<svg width="640" height="426" viewBox="0 0 640 426" fill="none" xmlns="http://www.w3.org/2000/svg">
<rect width="640" height="426" fill="#FFB26D"/>
<path d="M215.16 282.12C215.16 279.88 215.6 277.92 216.48 276.24C217.387 274.56 218.627 273.267 220.2 272.36C221.8 271.453 223.613 271 225.64 271C227.933 271 229.88 271.56 231.48 272.68C233.08 273.8 234.2 275.227 234.84 276.96V271.28H236.64V293H234.84V287.28C234.2 289.04 233.067 290.493 231.44 291.64C229.84 292.76 227.907 293.32 225.64 293.32C223.613 293.32 221.8 292.867 220.2 291.96C218.627 291.027 217.387 289.72 216.48 288.04C215.6 286.333 215.16 284.36 215.16 282.12ZM234.84 282.12C234.84 280.227 234.44 278.56 233.64 277.12C232.867 275.653 231.8 274.533 230.44 273.76C229.08 272.96 227.56 272.56 225.88 272.56C224.12 272.56 222.573 272.947 221.24 273.72C219.907 274.467 218.867 275.56 218.12 277C217.373 278.44 217 280.147 217 282.12C217 284.093 217.373 285.8 218.12 287.24C218.867 288.68 219.907 289.787 221.24 290.56C222.6 291.333 224.147 291.72 225.88 291.72C227.56 291.72 229.08 291.333 230.44 290.56C231.827 289.76 232.907 288.64 233.68 287.2C234.453 285.733 234.84 284.04 234.84 282.12ZM242.074 282.12C242.074 279.853 242.514 277.88 243.394 276.2C244.301 274.52 245.541 273.24 247.114 272.36C248.714 271.453 250.541 271 252.594 271C255.314 271 257.541 271.68 259.274 273.04C261.034 274.4 262.127 276.227 262.554 278.52H260.674C260.327 276.653 259.421 275.187 257.954 274.12C256.514 273.053 254.727 272.52 252.594 272.52C250.994 272.52 249.541 272.88 248.234 273.6C246.927 274.293 245.874 275.373 245.074 276.84C244.301 278.28 243.914 280.04 243.914 282.12C243.914 284.227 244.301 286 245.074 287.44C245.874 288.88 246.927 289.96 248.234 290.68C249.541 291.4 250.994 291.76 252.594 291.76C254.727 291.76 256.514 291.227 257.954 290.16C259.421 289.093 260.327 287.627 260.674 285.76H262.554C262.127 288.027 261.034 289.853 259.274 291.24C257.514 292.627 255.287 293.32 252.594 293.32C250.541 293.32 248.714 292.867 247.114 291.96C245.541 291.053 244.301 289.76 243.394 288.08C242.514 286.373 242.074 284.387 242.074 282.12ZM292.462 278.64C293.475 278.8 294.395 279.213 295.222 279.88C296.075 280.547 296.742 281.373 297.222 282.36C297.729 283.347 297.982 284.4 297.982 285.52C297.982 286.933 297.622 288.213 296.902 289.36C296.182 290.48 295.129 291.373 293.742 292.04C292.382 292.68 290.769 293 288.902 293H278.502V265.12H288.502C290.395 265.12 292.009 265.44 293.342 266.08C294.675 266.693 295.675 267.533 296.342 268.6C297.009 269.667 297.342 270.867 297.342 272.2C297.342 273.853 296.889 275.227 295.982 276.32C295.102 277.387 293.929 278.16 292.462 278.64ZM282.142 277.16H288.262C289.969 277.16 291.289 276.76 292.222 275.96C293.155 275.16 293.622 274.053 293.622 272.64C293.622 271.227 293.155 270.12 292.222 269.32C291.289 268.52 289.942 268.12 288.182 268.12H282.142V277.16ZM288.582 290C290.395 290 291.809 289.573 292.822 288.72C293.835 287.867 294.342 286.68 294.342 285.16C294.342 283.613 293.809 282.4 292.742 281.52C291.675 280.613 290.249 280.16 288.462 280.16H282.142V290H288.582ZM304.913 267.52C304.22 267.52 303.633 267.28 303.153 266.8C302.673 266.32 302.433 265.733 302.433 265.04C302.433 264.347 302.673 263.76 303.153 263.28C303.633 262.8 304.22 262.56 304.913 262.56C305.58 262.56 306.14 262.8 306.593 263.28C307.073 263.76 307.313 264.347 307.313 265.04C307.313 265.733 307.073 266.32 306.593 266.8C306.14 267.28 305.58 267.52 304.913 267.52ZM306.673 271.08V293H303.033V271.08H306.673ZM325.117 293L316.517 283.32V293H312.877V263.4H316.517V280.8L324.957 271.08H330.037L319.717 282L330.077 293H325.117ZM332.103 282C332.103 279.733 332.556 277.76 333.463 276.08C334.369 274.373 335.623 273.053 337.223 272.12C338.849 271.187 340.703 270.72 342.783 270.72C345.476 270.72 347.689 271.373 349.423 272.68C351.183 273.987 352.343 275.8 352.903 278.12H348.983C348.609 276.787 347.876 275.733 346.783 274.96C345.716 274.187 344.383 273.8 342.783 273.8C340.703 273.8 339.023 274.52 337.743 275.96C336.463 277.373 335.823 279.387 335.823 282C335.823 284.64 336.463 286.68 337.743 288.12C339.023 289.56 340.703 290.28 342.783 290.28C344.383 290.28 345.716 289.907 346.783 289.16C347.849 288.413 348.583 287.347 348.983 285.96H352.903C352.316 288.2 351.143 290 349.383 291.36C347.623 292.693 345.423 293.36 342.783 293.36C340.703 293.36 338.849 292.893 337.223 291.96C335.623 291.027 334.369 289.707 333.463 288C332.556 286.293 332.103 284.293 332.103 282ZM361.4 274.64C362.04 273.387 362.946 272.413 364.12 271.72C365.32 271.027 366.773 270.68 368.48 270.68V274.44H367.52C363.44 274.44 361.4 276.653 361.4 281.08V293H357.76V271.08H361.4V274.64ZM371.322 281.96C371.322 279.72 371.775 277.76 372.682 276.08C373.588 274.373 374.828 273.053 376.402 272.12C378.002 271.187 379.775 270.72 381.722 270.72C383.642 270.72 385.308 271.133 386.722 271.96C388.135 272.787 389.188 273.827 389.882 275.08V271.08H393.562V293H389.882V288.92C389.162 290.2 388.082 291.267 386.642 292.12C385.228 292.947 383.575 293.36 381.682 293.36C379.735 293.36 377.975 292.88 376.402 291.92C374.828 290.96 373.588 289.613 372.682 287.88C371.775 286.147 371.322 284.173 371.322 281.96ZM389.882 282C389.882 280.347 389.548 278.907 388.882 277.68C388.215 276.453 387.308 275.52 386.162 274.88C385.042 274.213 383.802 273.88 382.442 273.88C381.082 273.88 379.842 274.2 378.722 274.84C377.602 275.48 376.708 276.413 376.042 277.64C375.375 278.867 375.042 280.307 375.042 281.96C375.042 283.64 375.375 285.107 376.042 286.36C376.708 287.587 377.602 288.533 378.722 289.2C379.842 289.84 381.082 290.16 382.442 290.16C383.802 290.16 385.042 289.84 386.162 289.2C387.308 288.533 388.215 287.587 388.882 286.36C389.548 285.107 389.882 283.653 389.882 282ZM408.633 274.08H404.033V293H400.393V274.08H397.553V271.08H400.393V269.52C400.393 267.067 401.019 265.28 402.273 264.16C403.553 263.013 405.593 262.44 408.393 262.44V265.48C406.793 265.48 405.659 265.8 404.993 266.44C404.353 267.053 404.033 268.08 404.033 269.52V271.08H408.633V274.08ZM417.317 274.08V287C417.317 288.067 417.544 288.827 417.997 289.28C418.45 289.707 419.237 289.92 420.357 289.92H423.037V293H419.757C417.73 293 416.21 292.533 415.197 291.6C414.184 290.667 413.677 289.133 413.677 287V274.08H410.837V271.08H413.677V265.56H417.317V271.08H423.037V274.08H417.317Z" fill="white"/>
<path d="M291.559 222.249L284.37 222.082L287.284 218.972L280.603 218.952L284.026 215.554L278.072 215.536L281.204 212.427L275.539 212.41L278.963 209.012L273.589 208.996L276.648 205.96L271.71 205.945L274.771 202.255L269.688 202.24L273.62 198.916L267.452 197.084L271.744 194.632L266.527 190.99L270.313 187.666L265.742 186.274L269.744 183.748L265.32 181.849L269.757 179.542L265.335 176.846L270.348 176.353L265.786 171.771L270.362 171.785L266.597 168.002L271.172 168.016L267.552 164.379L272.563 164.395L269.015 160.83L273.735 160.845L270.405 157.499L274.907 157.513L271.867 154.458L276.805 154.473L273.764 151.418L279.138 151.434L276.171 148.017L281.4 148.032L278.577 144.906L284.241 144.923L282.001 141.145L287.663 142.105L286.516 137.17L291.813 138.709L290.737 134.137L295.232 136.617L295.248 131.468L298.506 134.741L298.52 129.955C299.461 131.239 301.342 133.517 301.342 133.517L301.357 128.513L305.485 132.297L306.591 126.934L310.284 130.426L312.695 125.647L315.077 130.44L318.141 125.663L319.653 130.019L322.571 125.677L324.519 130.034L328.308 125.694L329.673 130.485L333.17 127.014L333.156 131.583L336.726 127.678L336.712 132.391L340.5 128.632L340.482 134.288L345.068 130.894L345.053 135.825L349.272 133.372L349.256 138.883L354.636 136.797L353.457 142.232L358.402 140.144L356.789 145.143L362.095 143.708L359.031 148.268L364.481 147.124L362.071 151.685L367.23 150.686L364.456 155.463L369.975 155.48L366.26 159.167L371.559 159.763L368.208 163.234L373.94 165.137L369.936 168.388L374.867 170.651L370.862 174.265L375.791 177.253L371.5 179.198L375.776 182.257L371.487 183.476L375.759 187.768L370.821 187.753L374.803 191.754L369.865 191.739L373.847 195.739L369.054 195.725L372.529 199.216L368.099 199.203L371.429 202.548L366.128 202.532L368.58 208.124L363.498 207.673L365.297 213.19L360.07 212.449L361.87 217.748L357.591 215.777L357.574 221.361L354.315 218.378L354.296 224.614L351.038 221.341L351.022 226.707L347.4 223.723L347.383 229.162L343.981 225.743L343.529 231.108L340.2 227.327L338.439 232.978L335.401 229.126L333.061 234.485L328.861 230.411L326.086 235.696L323.413 231.047L319.985 235.678L317.385 231.029L313.959 235.225L313.827 231.018L309.966 234.85L309.981 229.919L305.975 233.895L305.99 229.036L301.042 232.212L301.056 227.499L296.546 229.878L296.559 225.6L291.181 227.179L291.559 222.249ZM291.559 222.249L288.353 225.575" stroke="white" stroke-width="0.5"/>
<path d="M357.467 145.94L356.271 138.873L353.613 142.193L352.635 135.606L349.765 139.47L348.893 133.599L346.267 137.134L345.437 131.549L342.567 135.413L341.78 130.115L339.215 133.568L338.493 128.699L335.282 132.248L334.538 127.236L331.814 131.591L329.118 125.77L327.307 130.355L322.956 125.731L320.211 129.942L318.179 125.633L316.254 129.943L313.741 125.851L312.095 130.559L308.794 126.584L309.026 131.598L303.839 127.756L304.508 132.267L300.227 129.096L300.897 133.607L296.78 130.558L297.514 135.498L293.479 132.51L294.17 137.164L290.383 134.359L291.042 138.798L287.584 136.237L288.307 141.105L284.849 138.544L285.636 143.842L281.83 141.406L282.596 146.561L279.098 144.225L279.927 149.81L275.869 148.142L277.63 153.589L272.584 153.165L274.866 158.169L270.19 157.764L273.287 161.843L268.196 162.596L271.901 165.341L267.168 166.041C268.573 166.784 271.097 168.313 271.097 168.313L266.149 169.046L270.484 172.575L265.337 174.435L269.321 177.577L264.94 180.64L270.023 182.302L265.737 186.01L270.262 186.877L266.385 190.378L270.975 191.674L267.225 196.034L272.16 196.694L269.228 200.641L273.745 199.972L270.394 204.054L275.055 203.363L271.879 207.639L277.472 206.811L274.772 211.821L279.648 211.099L277.826 215.612L283.276 214.806L281.983 220.412L287.191 218.47L285.834 223.647L290.548 221.339L289.89 226.778L293.961 223.102L293.611 228.642L297.777 225.611L297.528 230.843L301.856 227.421L302.664 232.863L305.779 228.67L307.129 233.812L310.081 230.009L312.785 235.389L315.427 230.973L318.373 235.513L321.373 231.044L325.036 235.478L326.345 230.967L329.983 234.745L330.575 230.34L335.433 233.939L334.71 229.07L339.238 232.424L338.515 227.555L343.043 230.909L342.342 226.183L346.294 229.111L345.645 224.743L349.433 227.548L348.657 222.322L354.539 223.939L353.365 218.99L359.08 219.973L357.597 214.924L363.097 215.939L360.534 212.002L366.055 211.184L362.637 208.397L368.803 207.484L365.098 204.74L370.404 203.954L366.933 200.81L372.31 200.014L368.441 197.147L373.683 195.932L369.465 193.19L374.803 190.644L370.556 188.199L375.522 185.123L370.89 181.564L375.72 178.068L370.738 176.099L374.827 172.054L369.856 170.156L373.515 166.175L369.335 166.647L372.571 162.29L367.696 163.012L371.055 158.49L366.251 159.201L368.682 153.865L364.022 154.555L365.729 149.766L361.498 150.392L362.289 144.86L357.467 145.94ZM357.467 145.94L360.297 142.301" stroke="white" stroke-width="0.5"/>
<path d="M298.461 226.258L291.334 227.217L293.725 223.691L287.124 224.715L289.972 220.824L284.088 221.737L286.694 218.177L281.097 219.046L283.945 215.154L278.635 215.978L281.181 212.501L276.301 213.258L278.746 209.136L273.723 209.916L277.085 206.018L270.707 205.173L274.561 202.08L268.837 199.299L272.056 195.423L267.323 194.763L270.879 191.643L266.212 190.459L270.233 187.487L265.443 185.515L270.316 184.245L265.093 180.432L269.613 179.73L265.302 176.583L269.823 175.882L265.677 172.856L270.629 172.087L266.566 169.122L271.231 168.398L267.417 165.614L271.866 164.924L268.383 162.382L273.263 161.624L269.781 159.083L275.091 158.259L271.625 155.347L276.792 154.545L273.513 151.898L279.111 151.03L276.306 147.649L282.048 147.712L280.142 143.017L285.615 143.709L283.836 139.362L288.664 141.108L287.872 136.02L291.603 138.744L290.867 134.014C291.997 135.136 294.212 137.091 294.212 137.091L293.443 132.147L298.113 135.238L298.364 129.769L302.559 132.64L304.191 127.544L307.295 131.905L309.573 126.708L311.749 130.774L313.951 126.029L316.557 130.028L319.62 125.149L321.719 129.667L324.628 125.693L325.331 130.208L328.245 125.792L328.97 130.45L332.121 126.145L332.991 131.734L336.988 127.665L337.746 132.537L341.529 129.455L342.377 134.901L347.363 131.999L347.052 137.552L351.608 134.716L350.799 139.906L355.814 137.66L353.503 142.642L358.706 140.66L357.041 145.542L361.979 143.748L359.989 148.901L365.442 148.054L362.351 152.277L367.679 152.037L364.913 155.989L370.872 156.972L367.427 160.809L372.653 162.273L369.263 166.469L374.6 168.649L370.667 171.241L375.37 173.594L371.325 175.469L376.217 179.04L371.338 179.797L375.898 183.126L371.018 183.883L375.578 187.211L370.842 187.946L374.822 190.852L370.444 191.531L374.258 194.315L369.02 195.128L372.318 200.267L367.228 200.616L369.87 205.784L364.591 205.869L367.2 210.821L362.665 209.544L363.523 215.061L359.837 212.624L360.796 218.787L357.065 216.063L357.89 221.366L353.845 218.985L354.681 224.359L350.784 221.515L351.179 226.884L347.298 223.67L346.446 229.527L342.841 226.197L341.37 231.855L336.583 228.489L334.67 234.143L331.302 229.969L328.643 235.078L325.346 230.893L322.62 235.572L321.829 231.438L318.617 235.826L317.859 230.954L314.525 235.507L313.778 230.706L309.389 234.616L308.664 229.959L304.583 233.014L303.925 228.786L298.861 231.187L298.461 226.258ZM298.461 226.258L295.817 230.044" stroke="white" stroke-width="0.5"/>
<path d="M351.593 140.587L349.303 133.794L347.199 137.489L345.2 131.136L342.971 135.401L341.19 129.738L339.15 133.641L337.456 128.254L335.227 132.52L333.619 127.409L331.627 131.221L330.149 126.525L327.535 130.532L326.014 125.698L324.006 130.425L320.431 125.098L319.362 129.909L314.34 126.022L312.288 130.611L309.606 126.673L308.38 131.23L305.257 127.582L304.369 132.488L300.485 129.079L301.5 133.995L295.775 131.012L297.144 135.362L292.418 132.899L293.787 137.25L289.243 134.882L290.742 139.647L286.289 137.326L287.701 141.814L283.521 139.636L284.868 143.917L281.051 141.928L282.528 146.624L278.711 144.635L280.319 149.745L276.178 147.933L277.742 152.905L273.921 151.145L275.616 156.531L271.346 155.519L273.94 160.623L268.89 160.993L271.928 165.579L267.246 165.91L270.944 169.454L266.034 170.994L270.123 173.125L265.559 174.557C267.063 175.071 269.795 176.187 269.795 176.187L265.024 177.684L269.858 180.492L265.066 183.133L269.494 185.614L265.647 189.324L270.928 190.171L267.276 194.504L271.882 194.652L268.601 198.716L273.337 199.279L270.318 204.171L275.295 204.052L273.018 208.408L277.375 207.041L274.705 211.596L279.2 210.186L276.734 214.905L282.128 213.213L280.246 218.583L284.949 217.108L283.858 221.851L289.113 220.202L288.715 225.941L293.554 223.209L293.026 228.534L297.32 225.518L297.523 230.993L300.967 226.726L301.49 232.252L305.13 228.607L305.704 233.813L309.443 229.757L311.094 235.006L313.513 230.377L315.652 235.245L317.972 231.027L321.486 235.918L323.403 231.144L327.024 235.167L329.287 230.285L333.599 234.091L334.185 229.431L338.371 232.594L338.265 228.151L343.627 230.945L342.149 226.249L347.148 228.854L345.67 224.158L350.669 226.763L349.235 222.206L353.597 224.479L352.272 220.267L356.452 222.445L354.866 217.404L360.93 218.082L358.994 213.378L364.793 213.456L362.537 208.7L368.128 208.843L364.979 205.355L370.304 203.684L366.491 201.466L372.438 199.6L368.349 197.469L373.466 195.864L369.544 193.3L374.731 191.673L370.46 189.447L375.447 187.428L370.851 185.379L375.724 182.03L371.146 180.279L375.568 176.464L370.436 173.674L374.658 169.466L369.429 168.299L372.833 163.665L367.625 162.568L370.615 158.064L366.561 159.184L369.074 154.374L364.372 155.849L366.981 150.858L362.347 152.312L363.913 146.661L359.418 148.071L360.353 143.074L356.273 144.354L356.186 138.766L351.593 140.587ZM351.593 140.587L353.818 136.551" stroke="white" stroke-width="0.5"/>
<path d="M311.39 172.465L291.908 203.751L321.185 204.35M311.39 172.465L321.352 156.556L348.564 204.91L329.995 204.53L311.39 172.465Z" stroke="white" stroke-width="2"/>
</svg>
