<svg width="640" height="426" viewBox="0 0 640 426" fill="none" xmlns="http://www.w3.org/2000/svg">
<rect width="640" height="426" fill="#00D37F"/>
<path d="M191.16 282.12C191.16 279.88 191.6 277.92 192.48 276.24C193.387 274.56 194.627 273.267 196.2 272.36C197.8 271.453 199.613 271 201.64 271C203.933 271 205.88 271.56 207.48 272.68C209.08 273.8 210.2 275.227 210.84 276.96V271.28H212.64V293H210.84V287.28C210.2 289.04 209.067 290.493 207.44 291.64C205.84 292.76 203.907 293.32 201.64 293.32C199.613 293.32 197.8 292.867 196.2 291.96C194.627 291.027 193.387 289.72 192.48 288.04C191.6 286.333 191.16 284.36 191.16 282.12ZM210.84 282.12C210.84 280.227 210.44 278.56 209.64 277.12C208.867 275.653 207.8 274.533 206.44 273.76C205.08 272.96 203.56 272.56 201.88 272.56C200.12 272.56 198.573 272.947 197.24 273.72C195.907 274.467 194.867 275.56 194.12 277C193.373 278.44 193 280.147 193 282.12C193 284.093 193.373 285.8 194.12 287.24C194.867 288.68 195.907 289.787 197.24 290.56C198.6 291.333 200.147 291.72 201.88 291.72C203.56 291.72 205.08 291.333 206.44 290.56C207.827 289.76 208.907 288.64 209.68 287.2C210.453 285.733 210.84 284.04 210.84 282.12ZM218.074 282.12C218.074 279.853 218.514 277.88 219.394 276.2C220.301 274.52 221.541 273.24 223.114 272.36C224.714 271.453 226.541 271 228.594 271C231.314 271 233.541 271.68 235.274 273.04C237.034 274.4 238.127 276.227 238.554 278.52H236.674C236.327 276.653 235.421 275.187 233.954 274.12C232.514 273.053 230.727 272.52 228.594 272.52C226.994 272.52 225.541 272.88 224.234 273.6C222.927 274.293 221.874 275.373 221.074 276.84C220.301 278.28 219.914 280.04 219.914 282.12C219.914 284.227 220.301 286 221.074 287.44C221.874 288.88 222.927 289.96 224.234 290.68C225.541 291.4 226.994 291.76 228.594 291.76C230.727 291.76 232.514 291.227 233.954 290.16C235.421 289.093 236.327 287.627 236.674 285.76H238.554C238.127 288.027 237.034 289.853 235.274 291.24C233.514 292.627 231.287 293.32 228.594 293.32C226.541 293.32 224.714 292.867 223.114 291.96C221.541 291.053 220.301 289.76 219.394 288.08C218.514 286.373 218.074 284.387 218.074 282.12ZM253.142 279.04C253.142 276.32 253.755 273.88 254.982 271.72C256.209 269.533 257.875 267.827 259.982 266.6C262.115 265.373 264.475 264.76 267.062 264.76C270.102 264.76 272.755 265.493 275.022 266.96C277.289 268.427 278.942 270.507 279.982 273.2H275.622C274.849 271.52 273.729 270.227 272.262 269.32C270.822 268.413 269.089 267.96 267.062 267.96C265.115 267.96 263.369 268.413 261.822 269.32C260.275 270.227 259.062 271.52 258.182 273.2C257.302 274.853 256.862 276.8 256.862 279.04C256.862 281.253 257.302 283.2 258.182 284.88C259.062 286.533 260.275 287.813 261.822 288.72C263.369 289.627 265.115 290.08 267.062 290.08C269.089 290.08 270.822 289.64 272.262 288.76C273.729 287.853 274.849 286.56 275.622 284.88H279.982C278.942 287.547 277.289 289.613 275.022 291.08C272.755 292.52 270.102 293.24 267.062 293.24C264.475 293.24 262.115 292.64 259.982 291.44C257.875 290.213 256.209 288.52 254.982 286.36C253.755 284.2 253.142 281.76 253.142 279.04ZM294.96 293.36C292.907 293.36 291.04 292.893 289.36 291.96C287.707 291.027 286.4 289.707 285.44 288C284.507 286.267 284.04 284.267 284.04 282C284.04 279.76 284.52 277.787 285.48 276.08C286.467 274.347 287.8 273.027 289.48 272.12C291.16 271.187 293.04 270.72 295.12 270.72C297.2 270.72 299.08 271.187 300.76 272.12C302.44 273.027 303.76 274.333 304.72 276.04C305.707 277.747 306.2 279.733 306.2 282C306.2 284.267 305.694 286.267 304.68 288C303.694 289.707 302.347 291.027 300.64 291.96C298.934 292.893 297.04 293.36 294.96 293.36ZM294.96 290.16C296.267 290.16 297.494 289.853 298.64 289.24C299.787 288.627 300.707 287.707 301.4 286.48C302.12 285.253 302.48 283.76 302.48 282C302.48 280.24 302.134 278.747 301.44 277.52C300.747 276.293 299.84 275.387 298.72 274.8C297.6 274.187 296.387 273.88 295.08 273.88C293.747 273.88 292.52 274.187 291.4 274.8C290.307 275.387 289.427 276.293 288.76 277.52C288.094 278.747 287.76 280.24 287.76 282C287.76 283.787 288.08 285.293 288.72 286.52C289.387 287.747 290.267 288.667 291.36 289.28C292.454 289.867 293.654 290.16 294.96 290.16ZM330.426 271.08V293H326.786V289.76C326.093 290.88 325.12 291.76 323.866 292.4C322.64 293.013 321.28 293.32 319.786 293.32C318.08 293.32 316.546 292.973 315.186 292.28C313.826 291.56 312.746 290.493 311.946 289.08C311.173 287.667 310.786 285.947 310.786 283.92V271.08H314.386V283.44C314.386 285.6 314.933 287.267 316.026 288.44C317.12 289.587 318.613 290.16 320.506 290.16C322.453 290.16 323.986 289.56 325.106 288.36C326.226 287.16 326.786 285.413 326.786 283.12V271.08H330.426ZM347.252 270.68C349.919 270.68 352.079 271.493 353.732 273.12C355.386 274.72 356.212 277.04 356.212 280.08V293H352.612V280.6C352.612 278.413 352.066 276.747 350.972 275.6C349.879 274.427 348.386 273.84 346.492 273.84C344.572 273.84 343.039 274.44 341.892 275.64C340.772 276.84 340.212 278.587 340.212 280.88V293H336.572V271.08H340.212V274.2C340.932 273.08 341.906 272.213 343.132 271.6C344.386 270.987 345.759 270.68 347.252 270.68ZM366.598 274.08V287C366.598 288.067 366.825 288.827 367.278 289.28C367.731 289.707 368.518 289.92 369.638 289.92H372.318V293H369.038C367.011 293 365.491 292.533 364.478 291.6C363.465 290.667 362.958 289.133 362.958 287V274.08H360.118V271.08H362.958V265.56H366.598V271.08H372.318V274.08H366.598ZM380.368 274.64C381.008 273.387 381.915 272.413 383.088 271.72C384.288 271.027 385.742 270.68 387.448 270.68V274.44H386.488C382.408 274.44 380.368 276.653 380.368 281.08V293H376.728V271.08H380.368V274.64ZM393.53 267.52C392.837 267.52 392.25 267.28 391.77 266.8C391.29 266.32 391.05 265.733 391.05 265.04C391.05 264.347 391.29 263.76 391.77 263.28C392.25 262.8 392.837 262.56 393.53 262.56C394.197 262.56 394.757 262.8 395.21 263.28C395.69 263.76 395.93 264.347 395.93 265.04C395.93 265.733 395.69 266.32 395.21 266.8C394.757 267.28 394.197 267.52 393.53 267.52ZM395.29 271.08V293H391.65V271.08H395.29ZM421.494 281.2C421.494 281.893 421.454 282.627 421.374 283.4H403.854C403.987 285.56 404.721 287.253 406.054 288.48C407.414 289.68 409.054 290.28 410.974 290.28C412.547 290.28 413.854 289.92 414.894 289.2C415.961 288.453 416.707 287.467 417.134 286.24H421.054C420.467 288.347 419.294 290.067 417.534 291.4C415.774 292.707 413.587 293.36 410.974 293.36C408.894 293.36 407.027 292.893 405.374 291.96C403.747 291.027 402.467 289.707 401.534 288C400.601 286.267 400.134 284.267 400.134 282C400.134 279.733 400.587 277.747 401.494 276.04C402.401 274.333 403.667 273.027 405.294 272.12C406.947 271.187 408.841 270.72 410.974 270.72C413.054 270.72 414.894 271.173 416.494 272.08C418.094 272.987 419.321 274.24 420.174 275.84C421.054 277.413 421.494 279.2 421.494 281.2ZM417.734 280.44C417.734 279.053 417.427 277.867 416.814 276.88C416.201 275.867 415.361 275.107 414.294 274.6C413.254 274.067 412.094 273.8 410.814 273.8C408.974 273.8 407.401 274.387 406.094 275.56C404.814 276.733 404.081 278.36 403.894 280.44H417.734ZM434.059 293.36C432.379 293.36 430.872 293.08 429.539 292.52C428.205 291.933 427.152 291.133 426.379 290.12C425.605 289.08 425.179 287.893 425.099 286.56H428.859C428.965 287.653 429.472 288.547 430.379 289.24C431.312 289.933 432.525 290.28 434.019 290.28C435.405 290.28 436.499 289.973 437.299 289.36C438.099 288.747 438.499 287.973 438.499 287.04C438.499 286.08 438.072 285.373 437.219 284.92C436.365 284.44 435.045 283.973 433.259 283.52C431.632 283.093 430.299 282.667 429.259 282.24C428.245 281.787 427.365 281.133 426.619 280.28C425.899 279.4 425.539 278.253 425.539 276.84C425.539 275.72 425.872 274.693 426.539 273.76C427.205 272.827 428.152 272.093 429.379 271.56C430.605 271 432.005 270.72 433.579 270.72C436.005 270.72 437.965 271.333 439.459 272.56C440.952 273.787 441.752 275.467 441.859 277.6H438.219C438.139 276.453 437.672 275.533 436.819 274.84C435.992 274.147 434.872 273.8 433.459 273.8C432.152 273.8 431.112 274.08 430.339 274.64C429.565 275.2 429.179 275.933 429.179 276.84C429.179 277.56 429.405 278.16 429.859 278.64C430.339 279.093 430.925 279.467 431.619 279.76C432.339 280.027 433.325 280.333 434.579 280.68C436.152 281.107 437.432 281.533 438.419 281.96C439.405 282.36 440.245 282.973 440.939 283.8C441.659 284.627 442.032 285.707 442.059 287.04C442.059 288.24 441.725 289.32 441.059 290.28C440.392 291.24 439.445 292 438.219 292.56C437.019 293.093 435.632 293.36 434.059 293.36Z" fill="white"/>
<path d="M353.021 148.782L351.92 142.393L349.525 145.403L348.622 139.448L346.037 142.951L345.232 137.643L342.866 140.848L342.101 135.798L339.515 139.301L338.789 134.511L336.479 137.641L335.811 133.239L332.917 136.458L332.23 131.927L329.778 135.873L327.323 130.616L325.698 134.768L321.75 130.597L319.279 134.414L317.429 130.522L315.7 134.425L313.416 130.731L311.94 134.994L308.943 131.408L309.166 135.943L304.464 132.482L305.082 136.56L301.201 133.704L301.819 137.782L298.087 135.035L298.764 139.502L295.107 136.81L295.744 141.018L292.311 138.491L292.919 142.504L289.785 140.197L290.452 144.599L287.317 142.292L288.043 147.082L284.594 144.888L285.301 149.549L282.13 147.446L282.896 152.495L279.221 150.998L280.829 155.92L276.263 155.551L278.341 160.071L274.11 159.717L276.922 163.397L272.32 164.093L275.679 166.565L271.4 167.212C272.673 167.88 274.959 169.256 274.959 169.256L270.486 169.932L274.416 173.113L269.767 174.809L273.379 177.64L269.424 180.423L274.026 181.913L270.16 185.278L274.256 186.05L270.758 189.227L274.913 190.387L271.534 194.341L275.999 194.924L273.358 198.502L277.442 197.885L274.422 201.586L278.636 200.949L275.775 204.825L280.832 204.06L278.403 208.599L282.811 207.933L281.176 212.021L286.103 211.276L284.949 216.35L289.654 214.58L288.442 219.266L292.699 217.166L292.119 222.087L295.791 218.751L295.489 223.763L299.249 221.009L299.039 225.743L302.944 222.636L303.69 227.556L306.496 223.755L307.731 228.402L310.391 224.954L312.852 229.813L315.229 225.812L317.906 229.91L320.608 225.859L323.933 229.86L325.104 225.776L328.406 229.184L328.929 225.198L333.333 228.439L332.665 224.037L336.77 227.058L336.103 222.656L340.208 225.678L339.561 221.405L343.143 224.042L342.545 220.093L345.978 222.62L345.262 217.895L350.587 219.341L349.511 214.868L354.683 215.742L353.329 211.179L358.306 212.082L355.977 208.527L360.969 207.773L357.869 205.262L363.444 204.419L360.085 201.947L364.883 201.222L361.734 198.387L366.596 197.652L363.088 195.07L367.826 193.956L364.004 191.488L368.825 189.17L364.977 186.97L369.46 184.174L365.261 180.968L369.62 177.793L365.108 176.025L368.796 172.355L364.294 170.652L367.592 167.041L363.813 167.48L366.728 163.529L362.32 164.196L365.346 160.096L361.003 160.753L363.188 155.92L358.974 156.557L360.505 152.22L356.68 152.798L357.38 147.792L353.021 148.782ZM353.021 148.782L355.571 145.483" stroke="white" stroke-width="0.5"/>
<path d="M311.417 172.901L293.881 201.253L320.364 201.715M311.417 172.901L320.384 158.483L345.131 202.146L328.334 201.854L311.417 172.901Z" stroke="white" stroke-width="2"/>
</svg>
