<svg width="640" height="426" viewBox="0 0 640 426" fill="none" xmlns="http://www.w3.org/2000/svg">
<rect width="640" height="426" fill="#333333"/>
<path d="M238.16 282.12C238.16 279.88 238.6 277.92 239.48 276.24C240.387 274.56 241.627 273.267 243.2 272.36C244.8 271.453 246.613 271 248.64 271C250.933 271 252.88 271.56 254.48 272.68C256.08 273.8 257.2 275.227 257.84 276.96V271.28H259.64V293H257.84V287.28C257.2 289.04 256.067 290.493 254.44 291.64C252.84 292.76 250.907 293.32 248.64 293.32C246.613 293.32 244.8 292.867 243.2 291.96C241.627 291.027 240.387 289.72 239.48 288.04C238.6 286.333 238.16 284.36 238.16 282.12ZM257.84 282.12C257.84 280.227 257.44 278.56 256.64 277.12C255.867 275.653 254.8 274.533 253.44 273.76C252.08 272.96 250.56 272.56 248.88 272.56C247.12 272.56 245.573 272.947 244.24 273.72C242.907 274.467 241.867 275.56 241.12 277C240.373 278.44 240 280.147 240 282.12C240 284.093 240.373 285.8 241.12 287.24C241.867 288.68 242.907 289.787 244.24 290.56C245.6 291.333 247.147 291.72 248.88 291.72C250.56 291.72 252.08 291.333 253.44 290.56C254.827 289.76 255.907 288.64 256.68 287.2C257.453 285.733 257.84 284.04 257.84 282.12ZM265.074 282.12C265.074 279.853 265.514 277.88 266.394 276.2C267.301 274.52 268.541 273.24 270.114 272.36C271.714 271.453 273.541 271 275.594 271C278.314 271 280.541 271.68 282.274 273.04C284.034 274.4 285.127 276.227 285.554 278.52H283.674C283.327 276.653 282.421 275.187 280.954 274.12C279.514 273.053 277.727 272.52 275.594 272.52C273.994 272.52 272.541 272.88 271.234 273.6C269.927 274.293 268.874 275.373 268.074 276.84C267.301 278.28 266.914 280.04 266.914 282.12C266.914 284.227 267.301 286 268.074 287.44C268.874 288.88 269.927 289.96 271.234 290.68C272.541 291.4 273.994 291.76 275.594 291.76C277.727 291.76 279.514 291.227 280.954 290.16C282.421 289.093 283.327 287.627 283.674 285.76H285.554C285.127 288.027 284.034 289.853 282.274 291.24C280.514 292.627 278.287 293.32 275.594 293.32C273.541 293.32 271.714 292.867 270.114 291.96C268.541 291.053 267.301 289.76 266.394 288.08C265.514 286.373 265.074 284.387 265.074 282.12ZM310.182 265.12C313.222 265.12 315.849 265.693 318.062 266.84C320.302 267.96 322.009 269.573 323.182 271.68C324.382 273.787 324.982 276.267 324.982 279.12C324.982 281.973 324.382 284.453 323.182 286.56C322.009 288.64 320.302 290.24 318.062 291.36C315.849 292.453 313.222 293 310.182 293H301.502V265.12H310.182ZM310.182 290C313.782 290 316.529 289.053 318.422 287.16C320.315 285.24 321.262 282.56 321.262 279.12C321.262 275.653 320.302 272.947 318.382 271C316.489 269.053 313.755 268.08 310.182 268.08H305.142V290H310.182ZM339.343 293.36C337.29 293.36 335.423 292.893 333.743 291.96C332.09 291.027 330.783 289.707 329.823 288C328.89 286.267 328.423 284.267 328.423 282C328.423 279.76 328.903 277.787 329.863 276.08C330.85 274.347 332.183 273.027 333.863 272.12C335.543 271.187 337.423 270.72 339.503 270.72C341.583 270.72 343.463 271.187 345.143 272.12C346.823 273.027 348.143 274.333 349.103 276.04C350.09 277.747 350.583 279.733 350.583 282C350.583 284.267 350.076 286.267 349.063 288C348.076 289.707 346.73 291.027 345.023 291.96C343.316 292.893 341.423 293.36 339.343 293.36ZM339.343 290.16C340.65 290.16 341.876 289.853 343.023 289.24C344.17 288.627 345.09 287.707 345.783 286.48C346.503 285.253 346.863 283.76 346.863 282C346.863 280.24 346.516 278.747 345.823 277.52C345.13 276.293 344.223 275.387 343.103 274.8C341.983 274.187 340.77 273.88 339.463 273.88C338.13 273.88 336.903 274.187 335.783 274.8C334.69 275.387 333.81 276.293 333.143 277.52C332.476 278.747 332.143 280.24 332.143 282C332.143 283.787 332.463 285.293 333.103 286.52C333.77 287.747 334.65 288.667 335.743 289.28C336.836 289.867 338.036 290.16 339.343 290.16ZM364.409 270.72C366.302 270.72 367.956 271.133 369.369 271.96C370.809 272.787 371.876 273.827 372.569 275.08V271.08H376.249V293.48C376.249 295.48 375.822 297.253 374.969 298.8C374.116 300.373 372.889 301.6 371.289 302.48C369.716 303.36 367.876 303.8 365.769 303.8C362.889 303.8 360.489 303.12 358.569 301.76C356.649 300.4 355.516 298.547 355.169 296.2H358.769C359.169 297.533 359.996 298.6 361.249 299.4C362.502 300.227 364.009 300.64 365.769 300.64C367.769 300.64 369.396 300.013 370.649 298.76C371.929 297.507 372.569 295.747 372.569 293.48V288.88C371.849 290.16 370.782 291.227 369.369 292.08C367.956 292.933 366.302 293.36 364.409 293.36C362.462 293.36 360.689 292.88 359.089 291.92C357.516 290.96 356.276 289.613 355.369 287.88C354.462 286.147 354.009 284.173 354.009 281.96C354.009 279.72 354.462 277.76 355.369 276.08C356.276 274.373 357.516 273.053 359.089 272.12C360.689 271.187 362.462 270.72 364.409 270.72ZM372.569 282C372.569 280.347 372.236 278.907 371.569 277.68C370.902 276.453 369.996 275.52 368.849 274.88C367.729 274.213 366.489 273.88 365.129 273.88C363.769 273.88 362.529 274.2 361.409 274.84C360.289 275.48 359.396 276.413 358.729 277.64C358.062 278.867 357.729 280.307 357.729 281.96C357.729 283.64 358.062 285.107 358.729 286.36C359.396 287.587 360.289 288.533 361.409 289.2C362.529 289.84 363.769 290.16 365.129 290.16C366.489 290.16 367.729 289.84 368.849 289.2C369.996 288.533 370.902 287.587 371.569 286.36C372.236 285.107 372.569 283.653 372.569 282ZM390.16 293.36C388.48 293.36 386.974 293.08 385.64 292.52C384.307 291.933 383.254 291.133 382.48 290.12C381.707 289.08 381.28 287.893 381.2 286.56H384.96C385.067 287.653 385.574 288.547 386.48 289.24C387.414 289.933 388.627 290.28 390.12 290.28C391.507 290.28 392.6 289.973 393.4 289.36C394.2 288.747 394.6 287.973 394.6 287.04C394.6 286.08 394.174 285.373 393.32 284.92C392.467 284.44 391.147 283.973 389.36 283.52C387.734 283.093 386.4 282.667 385.36 282.24C384.347 281.787 383.467 281.133 382.72 280.28C382 279.4 381.64 278.253 381.64 276.84C381.64 275.72 381.974 274.693 382.64 273.76C383.307 272.827 384.254 272.093 385.48 271.56C386.707 271 388.107 270.72 389.68 270.72C392.107 270.72 394.067 271.333 395.56 272.56C397.054 273.787 397.854 275.467 397.96 277.6H394.32C394.24 276.453 393.774 275.533 392.92 274.84C392.094 274.147 390.974 273.8 389.56 273.8C388.254 273.8 387.214 274.08 386.44 274.64C385.667 275.2 385.28 275.933 385.28 276.84C385.28 277.56 385.507 278.16 385.96 278.64C386.44 279.093 387.027 279.467 387.72 279.76C388.44 280.027 389.427 280.333 390.68 280.68C392.254 281.107 393.534 281.533 394.52 281.96C395.507 282.36 396.347 282.973 397.04 283.8C397.76 284.627 398.134 285.707 398.16 287.04C398.16 288.24 397.827 289.32 397.16 290.28C396.494 291.24 395.547 292 394.32 292.56C393.12 293.093 391.734 293.36 390.16 293.36Z" fill="white"/>
<path d="M354.021 149.782L352.92 143.393L350.525 146.403L349.622 140.448L347.037 143.951L346.232 138.643L343.866 141.848L343.101 136.798L340.515 140.301L339.789 135.511L337.479 138.641L336.811 134.239L333.917 137.458L333.23 132.927L330.778 136.873L328.323 131.616L326.698 135.768L322.75 131.597L320.279 135.414L318.429 131.522L316.7 135.425L314.416 131.731L312.94 135.994L309.943 132.408L310.166 136.943L305.464 133.482L306.082 137.56L302.201 134.704L302.819 138.782L299.087 136.035L299.764 140.502L296.107 137.81L296.744 142.018L293.311 139.491L293.919 143.504L290.785 141.197L291.452 145.599L288.317 143.292L289.043 148.082L285.594 145.888L286.301 150.549L283.13 148.446L283.896 153.495L280.221 151.998L281.829 156.92L277.263 156.551L279.341 161.071L275.11 160.717L277.922 164.397L273.32 165.093L276.679 167.565L272.4 168.212C273.673 168.88 275.959 170.256 275.959 170.256L271.486 170.932L275.416 174.113L270.767 175.809L274.379 178.64L270.424 181.423L275.026 182.913L271.16 186.278L275.256 187.05L271.758 190.227L275.913 191.387L272.534 195.341L276.999 195.924L274.358 199.502L278.442 198.885L275.422 202.586L279.636 201.949L276.775 205.825L281.832 205.06L279.403 209.599L283.811 208.933L282.176 213.021L287.103 212.276L285.949 217.35L290.654 215.58L289.442 220.266L293.699 218.166L293.119 223.087L296.791 219.751L296.489 224.763L300.249 222.009L300.039 226.743L303.944 223.636L304.69 228.556L307.496 224.755L308.731 229.402L311.391 225.954L313.852 230.813L316.229 226.812L318.906 230.91L321.608 226.859L324.933 230.86L326.104 226.776L329.406 230.183L329.929 226.198L334.333 229.439L333.665 225.037L337.77 228.058L337.103 223.656L341.208 226.678L340.561 222.405L344.143 225.042L343.545 221.093L346.978 223.62L346.262 218.895L351.587 220.341L350.511 215.868L355.683 216.742L354.329 212.179L359.306 213.082L356.977 209.527L361.969 208.773L358.869 206.262L364.444 205.419L361.085 202.947L365.883 202.222L362.734 199.387L367.596 198.652L364.088 196.07L368.826 194.956L365.004 192.488L369.825 190.17L365.977 187.97L370.46 185.174L366.261 181.968L370.62 178.793L366.108 177.025L369.796 173.355L365.294 171.652L368.592 168.041L364.813 168.48L367.728 164.529L363.32 165.196L366.346 161.096L362.003 161.753L364.188 156.92L359.974 157.557L361.505 153.22L357.68 153.798L358.38 148.792L354.021 149.782ZM354.021 149.782L356.571 146.483" stroke="white" stroke-width="0.5"/>
<path d="M312.417 173.901L294.881 202.254L321.364 202.715M312.417 173.901L321.384 159.483L346.131 203.146L329.334 202.854L312.417 173.901Z" stroke="white" stroke-width="2"/>
</svg>
