<svg width="640" height="426" viewBox="0 0 640 426" fill="none" xmlns="http://www.w3.org/2000/svg">
<rect width="640" height="426" fill="#FFB26D"/>
<path d="M148.16 282.12C148.16 279.88 148.6 277.92 149.48 276.24C150.387 274.56 151.627 273.267 153.2 272.36C154.8 271.453 156.613 271 158.64 271C160.933 271 162.88 271.56 164.48 272.68C166.08 273.8 167.2 275.227 167.84 276.96V271.28H169.64V293H167.84V287.28C167.2 289.04 166.067 290.493 164.44 291.64C162.84 292.76 160.907 293.32 158.64 293.32C156.613 293.32 154.8 292.867 153.2 291.96C151.627 291.027 150.387 289.72 149.48 288.04C148.6 286.333 148.16 284.36 148.16 282.12ZM167.84 282.12C167.84 280.227 167.44 278.56 166.64 277.12C165.867 275.653 164.8 274.533 163.44 273.76C162.08 272.96 160.56 272.56 158.88 272.56C157.12 272.56 155.573 272.947 154.24 273.72C152.907 274.467 151.867 275.56 151.12 277C150.373 278.44 150 280.147 150 282.12C150 284.093 150.373 285.8 151.12 287.24C151.867 288.68 152.907 289.787 154.24 290.56C155.6 291.333 157.147 291.72 158.88 291.72C160.56 291.72 162.08 291.333 163.44 290.56C164.827 289.76 165.907 288.64 166.68 287.2C167.453 285.733 167.84 284.04 167.84 282.12ZM175.074 282.12C175.074 279.853 175.514 277.88 176.394 276.2C177.301 274.52 178.541 273.24 180.114 272.36C181.714 271.453 183.541 271 185.594 271C188.314 271 190.541 271.68 192.274 273.04C194.034 274.4 195.127 276.227 195.554 278.52H193.674C193.327 276.653 192.421 275.187 190.954 274.12C189.514 273.053 187.727 272.52 185.594 272.52C183.994 272.52 182.541 272.88 181.234 273.6C179.927 274.293 178.874 275.373 178.074 276.84C177.301 278.28 176.914 280.04 176.914 282.12C176.914 284.227 177.301 286 178.074 287.44C178.874 288.88 179.927 289.96 181.234 290.68C182.541 291.4 183.994 291.76 185.594 291.76C187.727 291.76 189.514 291.227 190.954 290.16C192.421 289.093 193.327 287.627 193.674 285.76H195.554C195.127 288.027 194.034 289.853 192.274 291.24C190.514 292.627 188.287 293.32 185.594 293.32C183.541 293.32 181.714 292.867 180.114 291.96C178.541 291.053 177.301 289.76 176.394 288.08C175.514 286.373 175.074 284.387 175.074 282.12ZM220.967 293.28C219.127 293.28 217.474 292.96 216.007 292.32C214.567 291.653 213.434 290.747 212.607 289.6C211.78 288.427 211.354 287.08 211.327 285.56H215.207C215.34 286.867 215.874 287.973 216.807 288.88C217.767 289.76 219.154 290.2 220.967 290.2C222.7 290.2 224.06 289.773 225.047 288.92C226.06 288.04 226.567 286.92 226.567 285.56C226.567 284.493 226.274 283.627 225.687 282.96C225.1 282.293 224.367 281.787 223.487 281.44C222.607 281.093 221.42 280.72 219.927 280.32C218.087 279.84 216.607 279.36 215.487 278.88C214.394 278.4 213.447 277.653 212.647 276.64C211.874 275.6 211.487 274.213 211.487 272.48C211.487 270.96 211.874 269.613 212.647 268.44C213.42 267.267 214.5 266.36 215.887 265.72C217.3 265.08 218.914 264.76 220.727 264.76C223.34 264.76 225.474 265.413 227.127 266.72C228.807 268.027 229.754 269.76 229.967 271.92H225.967C225.834 270.853 225.274 269.92 224.287 269.12C223.3 268.293 221.994 267.88 220.367 267.88C218.847 267.88 217.607 268.28 216.647 269.08C215.687 269.853 215.207 270.947 215.207 272.36C215.207 273.373 215.487 274.2 216.047 274.84C216.634 275.48 217.34 275.973 218.167 276.32C219.02 276.64 220.207 277.013 221.727 277.44C223.567 277.947 225.047 278.453 226.167 278.96C227.287 279.44 228.247 280.2 229.047 281.24C229.847 282.253 230.247 283.64 230.247 285.4C230.247 286.76 229.887 288.04 229.167 289.24C228.447 290.44 227.38 291.413 225.967 292.16C224.554 292.907 222.887 293.28 220.967 293.28ZM237.483 267.52C236.79 267.52 236.203 267.28 235.723 266.8C235.243 266.32 235.003 265.733 235.003 265.04C235.003 264.347 235.243 263.76 235.723 263.28C236.203 262.8 236.79 262.56 237.483 262.56C238.15 262.56 238.71 262.8 239.163 263.28C239.643 263.76 239.883 264.347 239.883 265.04C239.883 265.733 239.643 266.32 239.163 266.8C238.71 267.28 238.15 267.52 237.483 267.52ZM239.243 271.08V293H235.603V271.08H239.243ZM271.807 270.68C273.514 270.68 275.034 271.04 276.367 271.76C277.701 272.453 278.754 273.507 279.527 274.92C280.301 276.333 280.687 278.053 280.687 280.08V293H277.087V280.6C277.087 278.413 276.541 276.747 275.447 275.6C274.381 274.427 272.927 273.84 271.087 273.84C269.194 273.84 267.687 274.453 266.567 275.68C265.447 276.88 264.887 278.627 264.887 280.92V293H261.287V280.6C261.287 278.413 260.741 276.747 259.647 275.6C258.581 274.427 257.127 273.84 255.287 273.84C253.394 273.84 251.887 274.453 250.767 275.68C249.647 276.88 249.087 278.627 249.087 280.92V293H245.447V271.08H249.087V274.24C249.807 273.093 250.767 272.213 251.967 271.6C253.194 270.987 254.541 270.68 256.007 270.68C257.847 270.68 259.474 271.093 260.887 271.92C262.301 272.747 263.354 273.96 264.047 275.56C264.661 274.013 265.674 272.813 267.087 271.96C268.501 271.107 270.074 270.68 271.807 270.68ZM290.298 275.12C291.018 273.867 292.085 272.827 293.498 272C294.938 271.147 296.605 270.72 298.498 270.72C300.445 270.72 302.205 271.187 303.778 272.12C305.378 273.053 306.631 274.373 307.538 276.08C308.445 277.76 308.898 279.72 308.898 281.96C308.898 284.173 308.445 286.147 307.538 287.88C306.631 289.613 305.378 290.96 303.778 291.92C302.205 292.88 300.445 293.36 298.498 293.36C296.631 293.36 294.978 292.947 293.538 292.12C292.125 291.267 291.045 290.213 290.298 288.96V303.4H286.658V271.08H290.298V275.12ZM305.178 281.96C305.178 280.307 304.845 278.867 304.178 277.64C303.511 276.413 302.605 275.48 301.458 274.84C300.338 274.2 299.098 273.88 297.738 273.88C296.405 273.88 295.165 274.213 294.018 274.88C292.898 275.52 291.991 276.467 291.298 277.72C290.631 278.947 290.298 280.373 290.298 282C290.298 283.653 290.631 285.107 291.298 286.36C291.991 287.587 292.898 288.533 294.018 289.2C295.165 289.84 296.405 290.16 297.738 290.16C299.098 290.16 300.338 289.84 301.458 289.2C302.605 288.533 303.511 287.587 304.178 286.36C304.845 285.107 305.178 283.64 305.178 281.96ZM317.329 263.4V293H313.689V263.4H317.329ZM343.533 281.2C343.533 281.893 343.493 282.627 343.413 283.4H325.893C326.026 285.56 326.76 287.253 328.093 288.48C329.453 289.68 331.093 290.28 333.013 290.28C334.586 290.28 335.893 289.92 336.933 289.2C338 288.453 338.746 287.467 339.173 286.24H343.093C342.506 288.347 341.333 290.067 339.573 291.4C337.813 292.707 335.626 293.36 333.013 293.36C330.933 293.36 329.066 292.893 327.413 291.96C325.786 291.027 324.506 289.707 323.573 288C322.64 286.267 322.173 284.267 322.173 282C322.173 279.733 322.626 277.747 323.533 276.04C324.44 274.333 325.706 273.027 327.333 272.12C328.986 271.187 330.88 270.72 333.013 270.72C335.093 270.72 336.933 271.173 338.533 272.08C340.133 272.987 341.36 274.24 342.213 275.84C343.093 277.413 343.533 279.2 343.533 281.2ZM339.773 280.44C339.773 279.053 339.466 277.867 338.853 276.88C338.24 275.867 337.4 275.107 336.333 274.6C335.293 274.067 334.133 273.8 332.853 273.8C331.013 273.8 329.44 274.387 328.133 275.56C326.853 276.733 326.12 278.36 325.933 280.44H339.773ZM367.922 274.08H363.322V293H359.682V274.08H356.842V271.08H359.682V269.52C359.682 267.067 360.309 265.28 361.562 264.16C362.842 263.013 364.882 262.44 367.682 262.44V265.48C366.082 265.48 364.949 265.8 364.282 266.44C363.642 267.053 363.322 268.08 363.322 269.52V271.08H367.922V274.08ZM374.046 267.52C373.353 267.52 372.766 267.28 372.286 266.8C371.806 266.32 371.566 265.733 371.566 265.04C371.566 264.347 371.806 263.76 372.286 263.28C372.766 262.8 373.353 262.56 374.046 262.56C374.713 262.56 375.273 262.8 375.726 263.28C376.206 263.76 376.446 264.347 376.446 265.04C376.446 265.733 376.206 266.32 375.726 266.8C375.273 267.28 374.713 267.52 374.046 267.52ZM375.806 271.08V293H372.166V271.08H375.806ZM392.69 270.68C395.356 270.68 397.516 271.493 399.17 273.12C400.823 274.72 401.65 277.04 401.65 280.08V293H398.05V280.6C398.05 278.413 397.503 276.747 396.41 275.6C395.316 274.427 393.823 273.84 391.93 273.84C390.01 273.84 388.476 274.44 387.33 275.64C386.21 276.84 385.65 278.587 385.65 280.88V293H382.01V271.08H385.65V274.2C386.37 273.08 387.343 272.213 388.57 271.6C389.823 270.987 391.196 270.68 392.69 270.68ZM412.036 274.08V287C412.036 288.067 412.262 288.827 412.716 289.28C413.169 289.707 413.956 289.92 415.076 289.92H417.756V293H414.476C412.449 293 410.929 292.533 409.916 291.6C408.902 290.667 408.396 289.133 408.396 287V274.08H405.556V271.08H408.396V265.56H412.036V271.08H417.756V274.08H412.036ZM442.166 281.2C442.166 281.893 442.126 282.627 442.046 283.4H424.526C424.659 285.56 425.393 287.253 426.726 288.48C428.086 289.68 429.726 290.28 431.646 290.28C433.219 290.28 434.526 289.92 435.566 289.2C436.633 288.453 437.379 287.467 437.806 286.24H441.726C441.139 288.347 439.966 290.067 438.206 291.4C436.446 292.707 434.259 293.36 431.646 293.36C429.566 293.36 427.699 292.893 426.046 291.96C424.419 291.027 423.139 289.707 422.206 288C421.273 286.267 420.806 284.267 420.806 282C420.806 279.733 421.259 277.747 422.166 276.04C423.073 274.333 424.339 273.027 425.966 272.12C427.619 271.187 429.513 270.72 431.646 270.72C433.726 270.72 435.566 271.173 437.166 272.08C438.766 272.987 439.993 274.24 440.846 275.84C441.726 277.413 442.166 279.2 442.166 281.2ZM438.406 280.44C438.406 279.053 438.099 277.867 437.486 276.88C436.873 275.867 436.033 275.107 434.966 274.6C433.926 274.067 432.766 273.8 431.486 273.8C429.646 273.8 428.073 274.387 426.766 275.56C425.486 276.733 424.753 278.36 424.566 280.44H438.406ZM445.611 282C445.611 279.733 446.064 277.76 446.971 276.08C447.877 274.373 449.131 273.053 450.731 272.12C452.357 271.187 454.211 270.72 456.291 270.72C458.984 270.72 461.197 271.373 462.931 272.68C464.691 273.987 465.851 275.8 466.411 278.12H462.491C462.117 276.787 461.384 275.733 460.291 274.96C459.224 274.187 457.891 273.8 456.291 273.8C454.211 273.8 452.531 274.52 451.251 275.96C449.971 277.373 449.331 279.387 449.331 282C449.331 284.64 449.971 286.68 451.251 288.12C452.531 289.56 454.211 290.28 456.291 290.28C457.891 290.28 459.224 289.907 460.291 289.16C461.357 288.413 462.091 287.347 462.491 285.96H466.411C465.824 288.2 464.651 290 462.891 291.36C461.131 292.693 458.931 293.36 456.291 293.36C454.211 293.36 452.357 292.893 450.731 291.96C449.131 291.027 447.877 289.707 446.971 288C446.064 286.293 445.611 284.293 445.611 282ZM482.148 270.68C483.801 270.68 485.294 271.04 486.628 271.76C487.961 272.453 489.001 273.507 489.748 274.92C490.521 276.333 490.908 278.053 490.908 280.08V293H487.308V280.6C487.308 278.413 486.761 276.747 485.668 275.6C484.574 274.427 483.081 273.84 481.188 273.84C479.268 273.84 477.734 274.44 476.588 275.64C475.468 276.84 474.908 278.587 474.908 280.88V293H471.268V263.4H474.908V274.2C475.628 273.08 476.614 272.213 477.868 271.6C479.148 270.987 480.574 270.68 482.148 270.68Z" fill="white"/>
<path d="M354.021 149.782L352.92 143.393L350.525 146.403L349.622 140.448L347.037 143.951L346.232 138.643L343.866 141.848L343.101 136.798L340.515 140.301L339.789 135.511L337.479 138.641L336.811 134.239L333.917 137.458L333.23 132.927L330.778 136.873L328.323 131.616L326.698 135.768L322.75 131.597L320.279 135.414L318.429 131.522L316.7 135.425L314.416 131.731L312.94 135.994L309.943 132.408L310.166 136.943L305.464 133.482L306.082 137.56L302.201 134.704L302.819 138.782L299.087 136.035L299.764 140.502L296.107 137.81L296.744 142.018L293.311 139.491L293.919 143.504L290.785 141.197L291.452 145.599L288.317 143.292L289.043 148.082L285.594 145.888L286.301 150.549L283.13 148.446L283.896 153.495L280.221 151.998L281.829 156.92L277.263 156.551L279.341 161.071L275.11 160.717L277.922 164.397L273.32 165.093L276.679 167.565L272.4 168.212C273.673 168.88 275.959 170.256 275.959 170.256L271.486 170.932L275.416 174.113L270.767 175.809L274.379 178.64L270.424 181.423L275.026 182.913L271.16 186.278L275.256 187.05L271.758 190.227L275.913 191.387L272.534 195.341L276.999 195.924L274.358 199.502L278.442 198.885L275.422 202.586L279.636 201.949L276.775 205.825L281.832 205.06L279.403 209.599L283.811 208.933L282.176 213.021L287.103 212.276L285.949 217.35L290.654 215.58L289.442 220.266L293.699 218.166L293.119 223.087L296.791 219.751L296.489 224.763L300.249 222.009L300.039 226.743L303.944 223.636L304.69 228.556L307.496 224.755L308.731 229.402L311.391 225.954L313.852 230.813L316.229 226.812L318.906 230.91L321.608 226.859L324.933 230.86L326.104 226.776L329.406 230.183L329.929 226.198L334.333 229.439L333.665 225.037L337.77 228.058L337.103 223.656L341.208 226.678L340.561 222.405L344.144 225.042L343.545 221.093L346.978 223.62L346.262 218.895L351.587 220.341L350.511 215.868L355.683 216.742L354.329 212.179L359.306 213.082L356.977 209.527L361.969 208.773L358.869 206.262L364.444 205.419L361.085 202.947L365.883 202.222L362.734 199.387L367.596 198.652L364.088 196.07L368.826 194.956L365.004 192.488L369.825 190.17L365.977 187.97L370.46 185.174L366.261 181.968L370.62 178.793L366.108 177.025L369.796 173.355L365.294 171.652L368.592 168.041L364.813 168.48L367.728 164.529L363.32 165.196L366.346 161.096L362.003 161.753L364.188 156.92L359.974 157.557L361.505 153.22L357.68 153.798L358.38 148.792L354.021 149.782ZM354.021 149.782L356.571 146.483" stroke="white" stroke-width="0.5"/>
<path d="M312.417 173.901L294.881 202.254L321.364 202.715M312.417 173.901L321.384 159.483L346.131 203.146L329.334 202.854L312.417 173.901Z" stroke="white" stroke-width="2"/>
</svg>
