<svg width="640" height="426" viewBox="0 0 640 426" fill="none" xmlns="http://www.w3.org/2000/svg">
<rect width="640" height="426" fill="#00D37F"/>
<path d="M210.72 273.28C210.72 275.6 209.92 277.533 208.32 279.08C206.747 280.6 204.333 281.36 201.08 281.36H195.72V293H192.08V265.12H201.08C204.227 265.12 206.613 265.88 208.24 267.4C209.893 268.92 210.72 270.88 210.72 273.28ZM201.08 278.36C203.107 278.36 204.6 277.92 205.56 277.04C206.52 276.16 207 274.907 207 273.28C207 269.84 205.027 268.12 201.08 268.12H195.72V278.36H201.08ZM223.004 293.36C221.324 293.36 219.817 293.08 218.484 292.52C217.151 291.933 216.097 291.133 215.324 290.12C214.551 289.08 214.124 287.893 214.044 286.56H217.804C217.911 287.653 218.417 288.547 219.324 289.24C220.257 289.933 221.471 290.28 222.964 290.28C224.351 290.28 225.444 289.973 226.244 289.36C227.044 288.747 227.444 287.973 227.444 287.04C227.444 286.08 227.017 285.373 226.164 284.92C225.311 284.44 223.991 283.973 222.204 283.52C220.577 283.093 219.244 282.667 218.204 282.24C217.191 281.787 216.311 281.133 215.564 280.28C214.844 279.4 214.484 278.253 214.484 276.84C214.484 275.72 214.817 274.693 215.484 273.76C216.151 272.827 217.097 272.093 218.324 271.56C219.551 271 220.951 270.72 222.524 270.72C224.951 270.72 226.911 271.333 228.404 272.56C229.897 273.787 230.697 275.467 230.804 277.6H227.164C227.084 276.453 226.617 275.533 225.764 274.84C224.937 274.147 223.817 273.8 222.404 273.8C221.097 273.8 220.057 274.08 219.284 274.64C218.511 275.2 218.124 275.933 218.124 276.84C218.124 277.56 218.351 278.16 218.804 278.64C219.284 279.093 219.871 279.467 220.564 279.76C221.284 280.027 222.271 280.333 223.524 280.68C225.097 281.107 226.377 281.533 227.364 281.96C228.351 282.36 229.191 282.973 229.884 283.8C230.604 284.627 230.977 285.707 231.004 287.04C231.004 288.24 230.671 289.32 230.004 290.28C229.337 291.24 228.391 292 227.164 292.56C225.964 293.093 224.577 293.36 223.004 293.36ZM238.023 267.52C237.329 267.52 236.743 267.28 236.263 266.8C235.783 266.32 235.543 265.733 235.543 265.04C235.543 264.347 235.783 263.76 236.263 263.28C236.743 262.8 237.329 262.56 238.023 262.56C238.689 262.56 239.249 262.8 239.703 263.28C240.183 263.76 240.423 264.347 240.423 265.04C240.423 265.733 240.183 266.32 239.703 266.8C239.249 267.28 238.689 267.52 238.023 267.52ZM239.783 271.08V293H236.143V271.08H239.783ZM277.77 273.2C276.997 271.573 275.877 270.32 274.41 269.44C272.944 268.533 271.237 268.08 269.29 268.08C267.344 268.08 265.584 268.533 264.01 269.44C262.464 270.32 261.237 271.6 260.33 273.28C259.45 274.933 259.01 276.853 259.01 279.04C259.01 281.227 259.45 283.147 260.33 284.8C261.237 286.453 262.464 287.733 264.01 288.64C265.584 289.52 267.344 289.96 269.29 289.96C272.01 289.96 274.25 289.147 276.01 287.52C277.77 285.893 278.797 283.693 279.09 280.92H267.97V277.96H282.97V280.76C282.757 283.053 282.037 285.16 280.81 287.08C279.584 288.973 277.97 290.48 275.97 291.6C273.97 292.693 271.744 293.24 269.29 293.24C266.704 293.24 264.344 292.64 262.21 291.44C260.077 290.213 258.384 288.52 257.13 286.36C255.904 284.2 255.29 281.76 255.29 279.04C255.29 276.32 255.904 273.88 257.13 271.72C258.384 269.533 260.077 267.84 262.21 266.64C264.344 265.413 266.704 264.8 269.29 264.8C272.25 264.8 274.864 265.533 277.13 267C279.424 268.467 281.09 270.533 282.13 273.2H277.77ZM289.663 267.52C288.97 267.52 288.383 267.28 287.903 266.8C287.423 266.32 287.183 265.733 287.183 265.04C287.183 264.347 287.423 263.76 287.903 263.28C288.383 262.8 288.97 262.56 289.663 262.56C290.33 262.56 290.89 262.8 291.343 263.28C291.823 263.76 292.063 264.347 292.063 265.04C292.063 265.733 291.823 266.32 291.343 266.8C290.89 267.28 290.33 267.52 289.663 267.52ZM291.423 271.08V293H287.783V271.08H291.423ZM307.187 293.36C305.134 293.36 303.267 292.893 301.587 291.96C299.934 291.027 298.627 289.707 297.667 288C296.734 286.267 296.267 284.267 296.267 282C296.267 279.76 296.747 277.787 297.707 276.08C298.694 274.347 300.027 273.027 301.707 272.12C303.387 271.187 305.267 270.72 307.347 270.72C309.427 270.72 311.307 271.187 312.987 272.12C314.667 273.027 315.987 274.333 316.947 276.04C317.934 277.747 318.427 279.733 318.427 282C318.427 284.267 317.92 286.267 316.907 288C315.92 289.707 314.574 291.027 312.867 291.96C311.16 292.893 309.267 293.36 307.187 293.36ZM307.187 290.16C308.494 290.16 309.72 289.853 310.867 289.24C312.014 288.627 312.934 287.707 313.627 286.48C314.347 285.253 314.707 283.76 314.707 282C314.707 280.24 314.36 278.747 313.667 277.52C312.974 276.293 312.067 275.387 310.947 274.8C309.827 274.187 308.614 273.88 307.307 273.88C305.974 273.88 304.747 274.187 303.627 274.8C302.534 275.387 301.654 276.293 300.987 277.52C300.32 278.747 299.987 280.24 299.987 282C299.987 283.787 300.307 285.293 300.947 286.52C301.614 287.747 302.494 288.667 303.587 289.28C304.68 289.867 305.88 290.16 307.187 290.16ZM331.373 289.64L338.173 271.08H342.053L333.453 293H329.213L320.613 271.08H324.533L331.373 289.64ZM344.275 281.96C344.275 279.72 344.728 277.76 345.635 276.08C346.541 274.373 347.781 273.053 349.355 272.12C350.955 271.187 352.728 270.72 354.675 270.72C356.595 270.72 358.261 271.133 359.675 271.96C361.088 272.787 362.141 273.827 362.835 275.08V271.08H366.515V293H362.835V288.92C362.115 290.2 361.035 291.267 359.595 292.12C358.181 292.947 356.528 293.36 354.635 293.36C352.688 293.36 350.928 292.88 349.355 291.92C347.781 290.96 346.541 289.613 345.635 287.88C344.728 286.147 344.275 284.173 344.275 281.96ZM362.835 282C362.835 280.347 362.501 278.907 361.835 277.68C361.168 276.453 360.261 275.52 359.115 274.88C357.995 274.213 356.755 273.88 355.395 273.88C354.035 273.88 352.795 274.2 351.675 274.84C350.555 275.48 349.661 276.413 348.995 277.64C348.328 278.867 347.995 280.307 347.995 281.96C347.995 283.64 348.328 285.107 348.995 286.36C349.661 287.587 350.555 288.533 351.675 289.2C352.795 289.84 354.035 290.16 355.395 290.16C356.755 290.16 357.995 289.84 359.115 289.2C360.261 288.533 361.168 287.587 361.835 286.36C362.501 285.107 362.835 283.653 362.835 282ZM383.346 270.68C386.013 270.68 388.173 271.493 389.826 273.12C391.479 274.72 392.306 277.04 392.306 280.08V293H388.706V280.6C388.706 278.413 388.159 276.747 387.066 275.6C385.973 274.427 384.479 273.84 382.586 273.84C380.666 273.84 379.133 274.44 377.986 275.64C376.866 276.84 376.306 278.587 376.306 280.88V293H372.666V271.08H376.306V274.2C377.026 273.08 377.999 272.213 379.226 271.6C380.479 270.987 381.853 270.68 383.346 270.68ZM408.932 270.68C411.599 270.68 413.759 271.493 415.412 273.12C417.065 274.72 417.892 277.04 417.892 280.08V293H414.292V280.6C414.292 278.413 413.745 276.747 412.652 275.6C411.559 274.427 410.065 273.84 408.172 273.84C406.252 273.84 404.719 274.44 403.572 275.64C402.452 276.84 401.892 278.587 401.892 280.88V293H398.252V271.08H401.892V274.2C402.612 273.08 403.585 272.213 404.812 271.6C406.065 270.987 407.439 270.68 408.932 270.68ZM422.478 281.96C422.478 279.72 422.931 277.76 423.838 276.08C424.744 274.373 425.984 273.053 427.558 272.12C429.158 271.187 430.931 270.72 432.878 270.72C434.798 270.72 436.464 271.133 437.878 271.96C439.291 272.787 440.344 273.827 441.038 275.08V271.08H444.718V293H441.038V288.92C440.318 290.2 439.238 291.267 437.798 292.12C436.384 292.947 434.731 293.36 432.838 293.36C430.891 293.36 429.131 292.88 427.558 291.92C425.984 290.96 424.744 289.613 423.838 287.88C422.931 286.147 422.478 284.173 422.478 281.96ZM441.038 282C441.038 280.347 440.704 278.907 440.038 277.68C439.371 276.453 438.464 275.52 437.318 274.88C436.198 274.213 434.958 273.88 433.598 273.88C432.238 273.88 430.998 274.2 429.878 274.84C428.758 275.48 427.864 276.413 427.198 277.64C426.531 278.867 426.198 280.307 426.198 281.96C426.198 283.64 426.531 285.107 427.198 286.36C427.864 287.587 428.758 288.533 429.878 289.2C430.998 289.84 432.238 290.16 433.598 290.16C434.958 290.16 436.198 289.84 437.318 289.2C438.464 288.533 439.371 287.587 440.038 286.36C440.704 285.107 441.038 283.653 441.038 282Z" fill="white"/>
<path d="M353.021 148.782L351.92 142.393L349.525 145.403L348.622 139.448L346.037 142.951L345.232 137.643L342.866 140.848L342.101 135.798L339.515 139.301L338.789 134.511L336.479 137.641L335.811 133.239L332.917 136.458L332.23 131.927L329.778 135.873L327.323 130.616L325.698 134.768L321.75 130.597L319.279 134.414L317.429 130.522L315.7 134.425L313.416 130.731L311.94 134.994L308.943 131.408L309.166 135.943L304.464 132.482L305.082 136.56L301.201 133.704L301.819 137.782L298.087 135.035L298.764 139.502L295.107 136.81L295.744 141.018L292.311 138.491L292.919 142.504L289.785 140.197L290.452 144.599L287.317 142.292L288.043 147.082L284.594 144.888L285.301 149.549L282.13 147.446L282.896 152.495L279.221 150.998L280.829 155.92L276.263 155.551L278.341 160.071L274.11 159.717L276.922 163.397L272.32 164.093L275.679 166.565L271.4 167.212C272.673 167.88 274.959 169.256 274.959 169.256L270.486 169.932L274.416 173.113L269.767 174.809L273.379 177.64L269.424 180.423L274.026 181.913L270.16 185.278L274.256 186.05L270.758 189.227L274.913 190.387L271.534 194.341L275.999 194.924L273.358 198.502L277.442 197.885L274.422 201.586L278.636 200.949L275.775 204.825L280.832 204.06L278.403 208.599L282.811 207.933L281.176 212.021L286.103 211.276L284.949 216.35L289.654 214.58L288.442 219.266L292.699 217.166L292.119 222.087L295.791 218.751L295.489 223.763L299.249 221.009L299.039 225.743L302.944 222.636L303.69 227.556L306.496 223.755L307.731 228.402L310.391 224.954L312.852 229.813L315.229 225.812L317.906 229.91L320.608 225.859L323.933 229.86L325.104 225.776L328.406 229.184L328.929 225.198L333.333 228.439L332.665 224.037L336.77 227.058L336.103 222.656L340.208 225.678L339.561 221.405L343.143 224.042L342.545 220.093L345.978 222.62L345.262 217.895L350.587 219.341L349.511 214.868L354.683 215.742L353.329 211.179L358.306 212.082L355.977 208.527L360.969 207.773L357.869 205.262L363.444 204.419L360.085 201.947L364.883 201.222L361.734 198.387L366.596 197.652L363.088 195.07L367.826 193.956L364.004 191.488L368.825 189.17L364.977 186.97L369.46 184.174L365.261 180.968L369.62 177.793L365.108 176.025L368.796 172.355L364.294 170.652L367.592 167.041L363.813 167.48L366.728 163.529L362.32 164.196L365.346 160.096L361.003 160.753L363.188 155.92L358.974 156.557L360.505 152.22L356.68 152.798L357.38 147.792L353.021 148.782ZM353.021 148.782L355.571 145.483" stroke="white" stroke-width="0.5"/>
<path d="M311.417 172.901L293.881 201.253L320.364 201.715M311.417 172.901L320.384 158.483L345.131 202.146L328.334 201.854L311.417 172.901Z" stroke="white" stroke-width="2"/>
</svg>
