<svg width="640" height="426" viewBox="0 0 640 426" fill="none" xmlns="http://www.w3.org/2000/svg">
<rect x="-3.05176e-05" width="640" height="426" fill="#00BED3"/>
<path d="M235.16 282.12C235.16 279.88 235.6 277.92 236.48 276.24C237.387 274.56 238.627 273.267 240.2 272.36C241.8 271.453 243.613 271 245.64 271C247.933 271 249.88 271.56 251.48 272.68C253.08 273.8 254.2 275.227 254.84 276.96V271.28H256.64V293H254.84V287.28C254.2 289.04 253.067 290.493 251.44 291.64C249.84 292.76 247.907 293.32 245.64 293.32C243.613 293.32 241.8 292.867 240.2 291.96C238.627 291.027 237.387 289.72 236.48 288.04C235.6 286.333 235.16 284.36 235.16 282.12ZM254.84 282.12C254.84 280.227 254.44 278.56 253.64 277.12C252.867 275.653 251.8 274.533 250.44 273.76C249.08 272.96 247.56 272.56 245.88 272.56C244.12 272.56 242.573 272.947 241.24 273.72C239.907 274.467 238.867 275.56 238.12 277C237.373 278.44 237 280.147 237 282.12C237 284.093 237.373 285.8 238.12 287.24C238.867 288.68 239.907 289.787 241.24 290.56C242.6 291.333 244.147 291.72 245.88 291.72C247.56 291.72 249.08 291.333 250.44 290.56C251.827 289.76 252.907 288.64 253.68 287.2C254.453 285.733 254.84 284.04 254.84 282.12ZM262.074 282.12C262.074 279.853 262.514 277.88 263.394 276.2C264.301 274.52 265.541 273.24 267.114 272.36C268.714 271.453 270.541 271 272.594 271C275.314 271 277.541 271.68 279.274 273.04C281.034 274.4 282.127 276.227 282.554 278.52H280.674C280.327 276.653 279.421 275.187 277.954 274.12C276.514 273.053 274.727 272.52 272.594 272.52C270.994 272.52 269.541 272.88 268.234 273.6C266.927 274.293 265.874 275.373 265.074 276.84C264.301 278.28 263.914 280.04 263.914 282.12C263.914 284.227 264.301 286 265.074 287.44C265.874 288.88 266.927 289.96 268.234 290.68C269.541 291.4 270.994 291.76 272.594 291.76C274.727 291.76 276.514 291.227 277.954 290.16C279.421 289.093 280.327 287.627 280.674 285.76H282.554C282.127 288.027 281.034 289.853 279.274 291.24C277.514 292.627 275.287 293.32 272.594 293.32C270.541 293.32 268.714 292.867 267.114 291.96C265.541 291.053 264.301 289.76 263.394 288.08C262.514 286.373 262.074 284.387 262.074 282.12ZM307.342 293.28C305.502 293.28 303.849 292.96 302.382 292.32C300.942 291.653 299.809 290.747 298.982 289.6C298.155 288.427 297.729 287.08 297.702 285.56H301.582C301.715 286.867 302.249 287.973 303.182 288.88C304.142 289.76 305.529 290.2 307.342 290.2C309.075 290.2 310.435 289.773 311.422 288.92C312.435 288.04 312.942 286.92 312.942 285.56C312.942 284.493 312.649 283.627 312.062 282.96C311.475 282.293 310.742 281.787 309.862 281.44C308.982 281.093 307.795 280.72 306.302 280.32C304.462 279.84 302.982 279.36 301.862 278.88C300.769 278.4 299.822 277.653 299.022 276.64C298.249 275.6 297.862 274.213 297.862 272.48C297.862 270.96 298.249 269.613 299.022 268.44C299.795 267.267 300.875 266.36 302.262 265.72C303.675 265.08 305.289 264.76 307.102 264.76C309.715 264.76 311.849 265.413 313.502 266.72C315.182 268.027 316.129 269.76 316.342 271.92H312.342C312.209 270.853 311.649 269.92 310.662 269.12C309.675 268.293 308.369 267.88 306.742 267.88C305.222 267.88 303.982 268.28 303.022 269.08C302.062 269.853 301.582 270.947 301.582 272.36C301.582 273.373 301.862 274.2 302.422 274.84C303.009 275.48 303.715 275.973 304.542 276.32C305.395 276.64 306.582 277.013 308.102 277.44C309.942 277.947 311.422 278.453 312.542 278.96C313.662 279.44 314.622 280.2 315.422 281.24C316.222 282.253 316.622 283.64 316.622 285.4C316.622 286.76 316.262 288.04 315.542 289.24C314.822 290.44 313.755 291.413 312.342 292.16C310.929 292.907 309.262 293.28 307.342 293.28ZM326.418 274.08V287C326.418 288.067 326.645 288.827 327.098 289.28C327.552 289.707 328.338 289.92 329.458 289.92H332.138V293H328.858C326.832 293 325.312 292.533 324.298 291.6C323.285 290.667 322.778 289.133 322.778 287V274.08H319.938V271.08H322.778V265.56H326.418V271.08H332.138V274.08H326.418ZM346.109 293.36C344.055 293.36 342.189 292.893 340.509 291.96C338.855 291.027 337.549 289.707 336.589 288C335.655 286.267 335.189 284.267 335.189 282C335.189 279.76 335.669 277.787 336.629 276.08C337.615 274.347 338.949 273.027 340.629 272.12C342.309 271.187 344.189 270.72 346.269 270.72C348.349 270.72 350.229 271.187 351.909 272.12C353.589 273.027 354.909 274.333 355.869 276.04C356.855 277.747 357.349 279.733 357.349 282C357.349 284.267 356.842 286.267 355.829 288C354.842 289.707 353.495 291.027 351.789 291.96C350.082 292.893 348.189 293.36 346.109 293.36ZM346.109 290.16C347.415 290.16 348.642 289.853 349.789 289.24C350.935 288.627 351.855 287.707 352.549 286.48C353.269 285.253 353.629 283.76 353.629 282C353.629 280.24 353.282 278.747 352.589 277.52C351.895 276.293 350.989 275.387 349.869 274.8C348.749 274.187 347.535 273.88 346.229 273.88C344.895 273.88 343.669 274.187 342.549 274.8C341.455 275.387 340.575 276.293 339.909 277.52C339.242 278.747 338.909 280.24 338.909 282C338.909 283.787 339.229 285.293 339.869 286.52C340.535 287.747 341.415 288.667 342.509 289.28C343.602 289.867 344.802 290.16 346.109 290.16ZM365.775 274.64C366.415 273.387 367.321 272.413 368.495 271.72C369.695 271.027 371.148 270.68 372.855 270.68V274.44H371.895C367.815 274.44 365.775 276.653 365.775 281.08V293H362.135V271.08H365.775V274.64ZM397.057 281.2C397.057 281.893 397.017 282.627 396.937 283.4H379.417C379.55 285.56 380.283 287.253 381.617 288.48C382.977 289.68 384.617 290.28 386.537 290.28C388.11 290.28 389.417 289.92 390.457 289.2C391.523 288.453 392.27 287.467 392.697 286.24H396.617C396.03 288.347 394.857 290.067 393.097 291.4C391.337 292.707 389.15 293.36 386.537 293.36C384.457 293.36 382.59 292.893 380.937 291.96C379.31 291.027 378.03 289.707 377.097 288C376.163 286.267 375.697 284.267 375.697 282C375.697 279.733 376.15 277.747 377.057 276.04C377.963 274.333 379.23 273.027 380.857 272.12C382.51 271.187 384.403 270.72 386.537 270.72C388.617 270.72 390.457 271.173 392.057 272.08C393.657 272.987 394.883 274.24 395.737 275.84C396.617 277.413 397.057 279.2 397.057 281.2ZM393.297 280.44C393.297 279.053 392.99 277.867 392.377 276.88C391.763 275.867 390.923 275.107 389.857 274.6C388.817 274.067 387.657 273.8 386.377 273.8C384.537 273.8 382.963 274.387 381.657 275.56C380.377 276.733 379.643 278.36 379.457 280.44H393.297Z" fill="white"/>
<path d="M353.021 148.782L351.92 142.393L349.525 145.403L348.622 139.448L346.037 142.951L345.232 137.643L342.866 140.848L342.101 135.798L339.515 139.301L338.789 134.511L336.479 137.641L335.811 133.239L332.917 136.458L332.23 131.927L329.778 135.873L327.323 130.616L325.698 134.768L321.75 130.597L319.279 134.414L317.429 130.522L315.7 134.425L313.416 130.731L311.94 134.994L308.943 131.408L309.166 135.943L304.464 132.482L305.082 136.56L301.201 133.704L301.819 137.782L298.087 135.035L298.764 139.502L295.107 136.81L295.744 141.018L292.311 138.491L292.919 142.504L289.785 140.197L290.452 144.599L287.317 142.292L288.043 147.082L284.594 144.888L285.301 149.549L282.13 147.446L282.896 152.495L279.221 150.998L280.829 155.92L276.263 155.551L278.341 160.071L274.11 159.717L276.922 163.397L272.32 164.093L275.679 166.565L271.4 167.212C272.673 167.88 274.959 169.256 274.959 169.256L270.486 169.932L274.416 173.113L269.767 174.809L273.379 177.64L269.424 180.423L274.026 181.913L270.16 185.278L274.256 186.05L270.758 189.227L274.913 190.387L271.534 194.341L275.999 194.924L273.358 198.502L277.442 197.885L274.422 201.586L278.636 200.949L275.775 204.825L280.832 204.06L278.403 208.599L282.811 207.933L281.176 212.021L286.103 211.276L284.949 216.35L289.654 214.58L288.442 219.266L292.699 217.166L292.119 222.087L295.791 218.751L295.489 223.763L299.249 221.009L299.039 225.743L302.944 222.636L303.69 227.556L306.496 223.755L307.731 228.402L310.391 224.954L312.852 229.813L315.229 225.812L317.906 229.91L320.608 225.859L323.933 229.86L325.104 225.776L328.406 229.184L328.929 225.198L333.333 228.439L332.665 224.037L336.77 227.058L336.103 222.656L340.208 225.678L339.561 221.405L343.144 224.042L342.545 220.093L345.978 222.62L345.262 217.895L350.587 219.341L349.511 214.868L354.683 215.742L353.329 211.179L358.306 212.082L355.977 208.527L360.969 207.773L357.869 205.262L363.444 204.419L360.085 201.947L364.883 201.222L361.734 198.387L366.596 197.652L363.088 195.07L367.826 193.956L364.004 191.488L368.825 189.17L364.977 186.97L369.46 184.174L365.261 180.968L369.62 177.793L365.108 176.025L368.796 172.355L364.294 170.652L367.592 167.041L363.813 167.48L366.728 163.529L362.32 164.196L365.346 160.096L361.003 160.753L363.188 155.92L358.974 156.557L360.505 152.22L356.68 152.798L357.38 147.792L353.021 148.782ZM353.021 148.782L355.571 145.483" stroke="white" stroke-width="0.5"/>
<path d="M311.417 172.901L293.881 201.253L320.364 201.715M311.417 172.901L320.384 158.483L345.131 202.146L328.334 201.854L311.417 172.901Z" stroke="white" stroke-width="2"/>
</svg>
