<svg width="640" height="426" viewBox="0 0 640 426" fill="none" xmlns="http://www.w3.org/2000/svg">
<rect x="-3.05176e-05" width="640" height="426" fill="#00BED3"/>
<path d="M217.16 282.12C217.16 279.88 217.6 277.92 218.48 276.24C219.387 274.56 220.627 273.267 222.2 272.36C223.8 271.453 225.613 271 227.64 271C229.933 271 231.88 271.56 233.48 272.68C235.08 273.8 236.2 275.227 236.84 276.96V271.28H238.64V293H236.84V287.28C236.2 289.04 235.067 290.493 233.44 291.64C231.84 292.76 229.907 293.32 227.64 293.32C225.613 293.32 223.8 292.867 222.2 291.96C220.627 291.027 219.387 289.72 218.48 288.04C217.6 286.333 217.16 284.36 217.16 282.12ZM236.84 282.12C236.84 280.227 236.44 278.56 235.64 277.12C234.867 275.653 233.8 274.533 232.44 273.76C231.08 272.96 229.56 272.56 227.88 272.56C226.12 272.56 224.573 272.947 223.24 273.72C221.907 274.467 220.867 275.56 220.12 277C219.373 278.44 219 280.147 219 282.12C219 284.093 219.373 285.8 220.12 287.24C220.867 288.68 221.907 289.787 223.24 290.56C224.6 291.333 226.147 291.72 227.88 291.72C229.56 291.72 231.08 291.333 232.44 290.56C233.827 289.76 234.907 288.64 235.68 287.2C236.453 285.733 236.84 284.04 236.84 282.12ZM244.074 282.12C244.074 279.853 244.514 277.88 245.394 276.2C246.301 274.52 247.541 273.24 249.114 272.36C250.714 271.453 252.541 271 254.594 271C257.314 271 259.541 271.68 261.274 273.04C263.034 274.4 264.127 276.227 264.554 278.52H262.674C262.327 276.653 261.421 275.187 259.954 274.12C258.514 273.053 256.727 272.52 254.594 272.52C252.994 272.52 251.541 272.88 250.234 273.6C248.927 274.293 247.874 275.373 247.074 276.84C246.301 278.28 245.914 280.04 245.914 282.12C245.914 284.227 246.301 286 247.074 287.44C247.874 288.88 248.927 289.96 250.234 290.68C251.541 291.4 252.994 291.76 254.594 291.76C256.727 291.76 258.514 291.227 259.954 290.16C261.421 289.093 262.327 287.627 262.674 285.76H264.554C264.127 288.027 263.034 289.853 261.274 291.24C259.514 292.627 257.287 293.32 254.594 293.32C252.541 293.32 250.714 292.867 249.114 291.96C247.541 291.053 246.301 289.76 245.394 288.08C244.514 286.373 244.074 284.387 244.074 282.12ZM297.662 265.12V268.08H290.062V293H286.422V268.08H278.782V265.12H297.662ZM331.343 271.08L324.503 293H320.743L315.463 275.6L310.183 293H306.423L299.543 271.08H303.263L308.303 289.48L313.743 271.08H317.463L322.783 289.52L327.743 271.08H331.343ZM354.955 281.2C354.955 281.893 354.915 282.627 354.835 283.4H337.315C337.448 285.56 338.182 287.253 339.515 288.48C340.875 289.68 342.515 290.28 344.435 290.28C346.008 290.28 347.315 289.92 348.355 289.2C349.422 288.453 350.168 287.467 350.595 286.24H354.515C353.928 288.347 352.755 290.067 350.995 291.4C349.235 292.707 347.048 293.36 344.435 293.36C342.355 293.36 340.488 292.893 338.835 291.96C337.208 291.027 335.928 289.707 334.995 288C334.062 286.267 333.595 284.267 333.595 282C333.595 279.733 334.048 277.747 334.955 276.04C335.862 274.333 337.128 273.027 338.755 272.12C340.408 271.187 342.302 270.72 344.435 270.72C346.515 270.72 348.355 271.173 349.955 272.08C351.555 272.987 352.782 274.24 353.635 275.84C354.515 277.413 354.955 279.2 354.955 281.2ZM351.195 280.44C351.195 279.053 350.888 277.867 350.275 276.88C349.662 275.867 348.822 275.107 347.755 274.6C346.715 274.067 345.555 273.8 344.275 273.8C342.435 273.8 340.862 274.387 339.555 275.56C338.275 276.733 337.542 278.36 337.355 280.44H351.195ZM379.76 281.2C379.76 281.893 379.72 282.627 379.64 283.4H362.12C362.253 285.56 362.986 287.253 364.32 288.48C365.68 289.68 367.32 290.28 369.24 290.28C370.813 290.28 372.12 289.92 373.16 289.2C374.226 288.453 374.973 287.467 375.4 286.24H379.32C378.733 288.347 377.56 290.067 375.8 291.4C374.04 292.707 371.853 293.36 369.24 293.36C367.16 293.36 365.293 292.893 363.64 291.96C362.013 291.027 360.733 289.707 359.8 288C358.866 286.267 358.4 284.267 358.4 282C358.4 279.733 358.853 277.747 359.76 276.04C360.666 274.333 361.933 273.027 363.56 272.12C365.213 271.187 367.106 270.72 369.24 270.72C371.32 270.72 373.16 271.173 374.76 272.08C376.36 272.987 377.586 274.24 378.44 275.84C379.32 277.413 379.76 279.2 379.76 281.2ZM376 280.44C376 279.053 375.693 277.867 375.08 276.88C374.466 275.867 373.626 275.107 372.56 274.6C371.52 274.067 370.36 273.8 369.08 273.8C367.24 273.8 365.666 274.387 364.36 275.56C363.08 276.733 362.346 278.36 362.16 280.44H376ZM389.004 274.08V287C389.004 288.067 389.231 288.827 389.684 289.28C390.138 289.707 390.924 289.92 392.044 289.92H394.724V293H391.444C389.418 293 387.898 292.533 386.884 291.6C385.871 290.667 385.364 289.133 385.364 287V274.08H382.524V271.08H385.364V265.56H389.004V271.08H394.724V274.08H389.004ZM406.895 293.36C405.215 293.36 403.708 293.08 402.375 292.52C401.041 291.933 399.988 291.133 399.215 290.12C398.441 289.08 398.015 287.893 397.935 286.56H401.695C401.801 287.653 402.308 288.547 403.215 289.24C404.148 289.933 405.361 290.28 406.855 290.28C408.241 290.28 409.335 289.973 410.135 289.36C410.935 288.747 411.335 287.973 411.335 287.04C411.335 286.08 410.908 285.373 410.055 284.92C409.201 284.44 407.881 283.973 406.095 283.52C404.468 283.093 403.135 282.667 402.095 282.24C401.081 281.787 400.201 281.133 399.455 280.28C398.735 279.4 398.375 278.253 398.375 276.84C398.375 275.72 398.708 274.693 399.375 273.76C400.041 272.827 400.988 272.093 402.215 271.56C403.441 271 404.841 270.72 406.415 270.72C408.841 270.72 410.801 271.333 412.295 272.56C413.788 273.787 414.588 275.467 414.695 277.6H411.055C410.975 276.453 410.508 275.533 409.655 274.84C408.828 274.147 407.708 273.8 406.295 273.8C404.988 273.8 403.948 274.08 403.175 274.64C402.401 275.2 402.015 275.933 402.015 276.84C402.015 277.56 402.241 278.16 402.695 278.64C403.175 279.093 403.761 279.467 404.455 279.76C405.175 280.027 406.161 280.333 407.415 280.68C408.988 281.107 410.268 281.533 411.255 281.96C412.241 282.36 413.081 282.973 413.775 283.8C414.495 284.627 414.868 285.707 414.895 287.04C414.895 288.24 414.561 289.32 413.895 290.28C413.228 291.24 412.281 292 411.055 292.56C409.855 293.093 408.468 293.36 406.895 293.36Z" fill="white"/>
<path d="M353.021 148.782L351.92 142.393L349.525 145.403L348.622 139.448L346.037 142.951L345.232 137.643L342.866 140.848L342.101 135.798L339.515 139.301L338.789 134.511L336.479 137.641L335.811 133.239L332.917 136.458L332.23 131.927L329.778 135.873L327.323 130.616L325.698 134.768L321.75 130.597L319.279 134.414L317.429 130.522L315.7 134.425L313.416 130.731L311.94 134.994L308.943 131.408L309.166 135.943L304.464 132.482L305.082 136.56L301.201 133.704L301.819 137.782L298.087 135.035L298.764 139.502L295.107 136.81L295.744 141.018L292.311 138.491L292.919 142.504L289.785 140.197L290.452 144.599L287.317 142.292L288.043 147.082L284.594 144.888L285.301 149.549L282.13 147.446L282.896 152.495L279.221 150.998L280.829 155.92L276.263 155.551L278.341 160.071L274.11 159.717L276.922 163.397L272.32 164.093L275.679 166.565L271.4 167.212C272.673 167.88 274.959 169.256 274.959 169.256L270.486 169.932L274.416 173.113L269.767 174.809L273.379 177.64L269.424 180.423L274.026 181.913L270.16 185.278L274.256 186.05L270.758 189.227L274.913 190.387L271.534 194.341L275.999 194.924L273.358 198.502L277.442 197.885L274.422 201.586L278.636 200.949L275.775 204.825L280.832 204.06L278.403 208.599L282.811 207.933L281.176 212.021L286.103 211.276L284.949 216.35L289.654 214.58L288.442 219.266L292.699 217.166L292.119 222.087L295.791 218.751L295.489 223.763L299.249 221.009L299.039 225.743L302.944 222.636L303.69 227.556L306.496 223.755L307.731 228.402L310.391 224.954L312.852 229.813L315.229 225.812L317.906 229.91L320.608 225.859L323.933 229.86L325.104 225.776L328.406 229.184L328.929 225.198L333.333 228.439L332.665 224.037L336.77 227.058L336.103 222.656L340.208 225.678L339.561 221.405L343.144 224.042L342.545 220.093L345.978 222.62L345.262 217.895L350.587 219.341L349.511 214.868L354.683 215.742L353.329 211.179L358.306 212.082L355.977 208.527L360.969 207.773L357.869 205.262L363.444 204.419L360.085 201.947L364.883 201.222L361.734 198.387L366.596 197.652L363.088 195.07L367.826 193.956L364.004 191.488L368.825 189.17L364.977 186.97L369.46 184.174L365.261 180.968L369.62 177.793L365.108 176.025L368.796 172.355L364.294 170.652L367.592 167.041L363.813 167.48L366.728 163.529L362.32 164.196L365.346 160.096L361.003 160.753L363.188 155.92L358.974 156.557L360.505 152.22L356.68 152.798L357.38 147.792L353.021 148.782ZM353.021 148.782L355.571 145.483" stroke="white" stroke-width="0.5"/>
<path d="M311.417 172.901L293.881 201.253L320.364 201.715M311.417 172.901L320.384 158.483L345.131 202.146L328.334 201.854L311.417 172.901Z" stroke="white" stroke-width="2"/>
</svg>
