<svg width="190" height="301" viewBox="0 0 190 301" fill="none" xmlns="http://www.w3.org/2000/svg">
<g clip-path="url(#clip0_101_70)">
<rect width="300" height="189" transform="translate(189) rotate(89.8599)" fill="white"/>
<path d="M70.9987 182.368L65.3767 182.255L67.6482 179.813L62.4238 179.813L65.0928 177.144L60.4361 177.144L62.878 174.702L58.4485 174.702L61.1176 172.033L56.9153 172.033L59.3004 169.648L55.4388 169.648L57.8239 166.752L53.8487 166.752L56.9153 164.14L52.0883 162.72L55.4388 160.789L51.35 157.95L54.303 155.337L50.7254 154.258L53.8487 152.271L50.3846 150.794L53.8487 148.977L50.3846 146.876L54.303 146.478L50.7254 142.901L54.303 142.901L51.35 139.948L54.9277 139.948L52.0883 137.108L56.0067 137.108L53.224 134.326L56.9153 134.326L54.303 131.713L57.8239 131.713L55.4388 129.328L59.3004 129.328L56.9153 126.943L61.1176 126.943L58.7893 124.274L62.878 124.274L60.6633 121.832L65.0928 121.832L63.3323 118.879L67.7618 119.618L66.8532 115.756L70.9987 116.949L70.1469 113.371L73.6678 115.302L73.6678 111.27L76.2233 113.825L76.2233 110.077C76.9615 111.08 78.438 112.86 78.438 112.86L78.438 108.941L81.6749 111.894L82.5267 107.692L85.4229 110.418L87.2969 106.67L89.171 110.418L91.5561 106.67L92.7486 110.077L95.0201 106.67L96.5534 110.077L99.5064 106.67L100.585 110.418L103.311 107.692L103.311 111.27L106.094 108.203L106.094 111.894L109.047 108.941L109.047 113.371L112.624 110.702L112.624 114.563L115.918 112.633L115.918 116.949L120.121 115.302L119.212 119.561L123.073 117.914L121.824 121.832L125.97 120.697L123.585 124.274L127.844 123.366L125.97 126.943L130.002 126.148L127.844 129.896L132.16 129.896L129.263 132.792L133.409 133.247L130.797 135.973L135.283 137.449L132.16 140.005L136.021 141.765L132.898 144.604L136.759 146.933L133.409 148.466L136.759 150.851L133.409 151.816L136.759 155.167L132.898 155.167L136.021 158.29L132.16 158.29L135.283 161.414L131.535 161.414L134.261 164.14L130.797 164.14L133.409 166.752L129.263 166.752L131.194 171.124L127.219 170.784L128.639 175.1L124.55 174.532L125.97 178.677L122.619 177.144L122.619 181.517L120.064 179.188L120.064 184.072L117.508 181.517L117.508 185.719L114.669 183.391L114.669 187.65L112 184.981L111.659 189.183L109.047 186.23L107.684 190.66L105.299 187.65L103.482 191.852L100.188 188.672L98.0299 192.818L95.9287 189.183L93.2597 192.818L91.2153 189.183L88.5463 192.477L88.4327 189.183L85.4229 192.193L85.4229 188.331L82.2996 191.455L82.2996 187.65L78.438 190.148L78.438 186.457L74.9171 188.331L74.9171 184.981L70.7148 186.23L70.9987 182.368ZM70.9987 182.368L68.5001 184.981" stroke="black" stroke-width="0.1"/>
<path d="M122.356 122.455L121.404 116.923L119.333 119.53L118.553 114.374L116.318 117.407L115.622 112.811L113.577 115.586L112.915 111.214L110.68 114.247L110.052 110.1L108.054 112.81L107.478 108.999L104.976 111.785L104.382 107.862L102.262 111.279L100.14 106.727L98.7347 110.322L95.3216 106.711L93.1847 110.016L91.5855 106.646L90.0905 110.026L88.1159 106.827L86.84 110.518L84.2488 107.413L84.4419 111.339L80.3767 108.343L80.9112 111.874L77.5557 109.4L78.0902 112.931L74.8638 110.553L75.4492 114.42L72.2873 112.09L72.8388 115.733L69.8705 113.545L70.3965 117.02L67.6864 115.022L68.2632 118.833L65.5531 116.836L66.1809 120.983L63.199 119.084L63.8098 123.119L61.0691 121.298L61.7308 125.67L58.5535 124.373L59.9438 128.635L55.9971 128.315L57.7933 132.228L54.1353 131.922L56.5668 135.108L52.5877 135.71L55.4914 137.851L51.7925 138.411C52.8929 138.989 54.8696 140.181 54.8696 140.181L51.0025 140.766L54.4004 143.519L50.3804 144.988L53.5032 147.439L50.0842 149.848L54.0631 151.138L50.7205 154.052L54.2613 154.72L51.238 157.471L54.8297 158.475L51.9083 161.898L55.7683 162.403L53.4855 165.5L57.0162 164.966L54.4055 168.17L58.0484 167.619L55.5753 170.974L59.9467 170.313L57.8471 174.242L61.6581 173.665L60.2446 177.204L64.504 176.56L63.5065 180.953L67.574 179.42L66.5257 183.477L70.2061 181.659L69.7045 185.92L72.8789 183.031L72.6185 187.37L75.8693 184.986L75.687 189.084L79.0636 186.395L79.7083 190.654L82.1339 187.363L83.2015 191.387L85.5014 188.401L87.6287 192.608L89.6841 189.144L91.9984 192.692L94.334 189.186L97.2086 192.649L98.2213 189.113L101.076 192.063L101.528 188.613L105.335 191.419L104.758 187.608L108.307 190.224L107.73 186.412L111.279 189.028L110.719 185.329L113.817 187.612L113.299 184.194L116.267 186.381L115.648 182.29L120.252 183.542L119.322 179.67L123.793 180.427L122.622 176.476L126.925 177.258L124.912 174.18L129.227 173.527L126.547 171.353L131.367 170.623L128.463 168.483L132.611 167.855L129.889 165.401L134.092 164.765L131.059 162.529L135.155 161.565L131.851 159.428L136.019 157.421L132.692 155.517L136.568 153.096L132.937 150.32L136.706 147.571L132.805 146.041L135.994 142.864L132.101 141.389L134.953 138.263L131.686 138.643L134.206 135.223L130.395 135.8L133.011 132.25L129.256 132.819L131.145 128.635L127.502 129.186L128.826 125.431L125.519 125.932L126.124 121.598L122.356 122.455ZM122.356 122.455L124.561 119.599" stroke="black" stroke-width="0.1"/>
<path d="M76.4056 185.492L70.8351 186.26L72.6963 183.493L67.5364 184.311L69.7546 181.257L65.1553 181.986L67.1848 179.192L62.81 179.885L65.0283 176.831L60.8777 177.489L62.86 174.76L59.0461 175.364L60.9483 172.131L57.0222 172.753L59.642 169.693L54.6522 169.046L57.6591 166.615L53.1763 164.45L55.6839 161.408L51.9814 160.902L54.7551 158.45L51.1026 157.534L54.2395 155.197L50.4891 153.664L54.297 152.658L50.2033 149.685L53.7369 149.125L50.358 146.67L53.8915 146.11L50.6426 143.751L54.5127 143.137L51.3287 140.824L54.9745 140.247L51.9855 138.075L55.4629 137.524L52.7338 135.542L56.5478 134.937L53.8187 132.955L57.9692 132.297L55.2518 130.026L59.2901 129.385L56.7204 127.32L61.0952 126.627L58.8942 123.986L63.3846 124.022L61.8827 120.35L66.1638 120.879L64.7624 117.479L68.5421 118.834L67.9109 114.852L70.8349 116.976L70.2481 113.274C71.1343 114.15 72.8712 115.676 72.8712 115.676L72.2578 111.806L75.9171 114.216L76.1005 109.932L79.3877 112.17L80.6518 108.175L83.0895 111.584L84.8584 107.509L86.5697 110.687L88.2798 106.966L90.3276 110.091L92.7107 106.264L94.3632 109.797L96.6287 106.678L97.1888 110.211L99.457 106.747L100.035 110.393L102.489 107.014L103.183 111.389L106.298 108.192L106.903 112.006L109.854 109.584L110.529 113.846L114.422 111.562L114.191 115.911L117.748 113.68L117.127 117.745L121.044 115.975L119.248 119.882L123.312 118.317L122.022 122.144L125.879 120.728L124.335 124.767L128.598 124.092L126.19 127.406L130.356 127.205L128.203 130.307L132.865 131.063L130.18 134.075L134.27 135.21L131.629 138.503L135.808 140.198L132.739 142.237L136.421 144.068L133.263 145.546L137.097 148.331L133.283 148.935L136.857 151.531L133.043 152.136L136.617 154.732L132.915 155.318L136.034 157.584L132.612 158.126L135.601 160.297L131.507 160.946L134.098 164.963L130.119 165.249L132.197 169.289L128.07 169.368L130.121 173.24L126.572 172.251L127.256 176.569L124.368 174.67L125.132 179.493L122.208 177.369L122.866 181.52L119.697 179.665L120.364 183.871L117.31 181.653L117.631 185.857L114.589 183.349L113.936 187.938L111.11 185.338L109.973 189.773L106.222 187.148L104.739 191.58L102.095 188.32L100.028 192.327L97.4398 189.058L95.3193 192.729L94.6915 189.493L92.19 192.937L91.5854 189.123L88.9896 192.697L88.3939 188.939L84.9711 192.011L84.3932 188.366L81.2092 190.768L80.6846 187.459L76.7297 189.35L76.4056 185.492ZM76.4056 185.492L74.3467 188.463" stroke="black" stroke-width="0.1"/>
<path d="M117.75 118.277L115.943 112.963L114.306 115.861L112.728 110.891L110.996 114.236L109.589 109.806L108.003 112.867L106.666 108.653L104.933 111.998L103.663 108L102.115 110.99L100.948 107.316L98.9134 110.46L97.7127 106.678L96.1538 110.385L93.3451 106.221L92.5204 109.992L88.584 106.96L86.9908 110.558L84.8838 107.48L83.9363 111.052L81.4853 108.203L80.8029 112.047L77.7576 109.386L78.563 113.234L74.0788 110.911L75.1595 114.315L71.4582 112.397L72.5389 115.801L68.98 113.957L70.1635 117.685L66.6758 115.878L67.7908 119.39L64.5166 117.694L65.5801 121.043L62.5906 119.495L63.7571 123.168L60.7676 121.62L62.0369 125.618L58.7945 124.209L60.0295 128.099L57.0375 126.729L58.3754 130.943L55.0344 130.16L57.0747 134.151L53.1266 134.453L55.5133 138.037L51.8524 138.307L54.7528 141.074L50.917 142.292L54.12 143.951L50.5544 145.083C51.7318 145.482 53.8706 146.35 53.8706 146.35L50.1429 147.533L53.9299 149.721L50.1894 151.8L53.6574 153.732L50.6578 156.647L54.7895 157.298L51.9443 160.699L55.546 160.805L52.9906 163.995L56.6952 164.424L54.3457 168.263L58.2373 168.157L56.4675 171.574L59.871 170.493L57.7942 174.067L61.3058 172.952L59.3885 176.653L63.6024 175.315L62.1439 179.525L65.8176 178.358L64.9756 182.075L69.0815 180.772L68.7841 185.267L72.5615 183.116L72.1612 187.287L75.5115 184.915L75.6832 189.202L78.3663 185.852L78.7884 190.179L81.6259 187.315L82.0875 191.391L85.0013 188.206L86.3049 192.312L88.1854 188.682L89.8697 192.489L91.6739 189.18L94.4336 193.002L95.9213 189.259L98.7625 192.401L100.52 188.572L103.902 191.542L104.348 187.892L107.629 190.359L107.536 186.88L111.735 189.055L110.569 185.381L114.484 187.409L113.317 183.736L117.232 185.764L116.1 182.198L119.517 183.968L118.47 180.672L121.744 182.368L120.492 178.425L125.235 178.941L123.71 175.262L128.245 175.309L126.47 171.59L130.842 171.689L128.372 168.965L132.532 167.644L129.545 165.916L134.191 164.441L130.988 162.781L134.986 161.512L131.913 159.514L135.965 158.228L132.619 156.495L136.514 154.901L132.916 153.308L136.718 150.673L133.134 149.313L136.583 146.315L132.563 144.142L135.855 140.837L131.763 139.936L134.414 136.299L130.339 135.452L132.666 131.918L129.499 132.805L131.453 129.032L127.779 130.199L129.807 126.284L126.187 127.433L127.398 123.004L123.886 124.119L124.606 120.204L121.418 121.216L121.338 116.84L117.75 118.277ZM117.75 118.277L119.48 115.111" stroke="black" stroke-width="0.1"/>
<path d="M77.7238 186.092L72.185 187.062L73.9442 184.229L68.8174 185.234L70.9229 182.102L66.3533 182.998L68.2797 180.131L63.933 180.984L66.0386 177.851L61.9148 178.66L63.7964 175.86L60.0069 176.603L61.7902 173.302L57.8893 174.067L60.3959 170.914L55.3859 170.449L58.3023 167.91L53.7436 165.91L56.1387 162.778L52.4203 162.408L55.1028 159.857L51.4194 159.074L54.4691 156.624L50.6654 155.229L54.4341 154.085L50.2349 151.263L53.7457 150.574L50.2796 148.245L53.7904 147.556L50.4577 145.316L54.3029 144.562L51.0368 142.367L54.6591 141.657L51.593 139.596L55.0481 138.919L52.2486 137.037L56.038 136.294L53.2386 134.412L57.3624 133.604L54.564 131.433L58.5763 130.646L55.9331 128.676L60.2798 127.823L57.984 125.264L62.4728 125.136L60.8381 121.522L65.1357 121.894L63.6113 118.548L67.4379 119.765L66.6621 115.808L69.6615 117.824L68.9403 114.146C69.8578 114.989 71.6491 116.451 71.6491 116.451L70.8952 112.606L74.6398 114.88L74.6671 110.593L78.0337 112.71L79.1515 108.672L81.7117 111.989L83.331 107.852L85.1569 110.966L86.7303 107.186L88.8906 110.234L91.1328 106.322L92.9128 109.793L95.0632 106.593L95.7516 110.104L97.8921 106.56L98.6024 110.182L100.932 106.716L101.784 111.062L104.782 107.755L105.525 111.544L108.385 109.016L109.216 113.251L113.023 110.826L112.95 115.181L116.423 112.822L115.951 116.907L119.801 114.995L118.148 118.965L122.153 117.253L121.003 121.125L124.806 119.569L123.41 123.662L127.645 122.832L125.36 126.231L129.516 125.879L127.477 129.057L132.163 129.642L129.59 132.751L133.718 133.736L131.2 137.123L135.437 138.665L132.444 140.814L136.191 142.51L133.089 144.102L137.021 146.745L133.232 147.488L136.898 149.952L133.109 150.695L136.775 153.159L133.096 153.88L136.296 156.031L132.897 156.697L135.963 158.758L131.895 159.556L134.631 163.475L130.664 163.906L132.888 167.868L128.766 168.097L130.957 171.892L127.374 171.032L128.216 175.323L125.26 173.53L126.2 178.323L123.2 176.307L124.009 180.43L120.774 178.692L121.594 182.872L118.461 180.766L118.936 184.955L115.804 182.56L115.319 187.169L112.399 184.674L111.424 189.148L107.58 186.661L106.26 191.144L103.499 187.982L101.579 192.062L98.8738 188.889L96.8884 192.635L96.1432 189.425L93.7688 192.957L93.0258 189.168L90.5618 192.834L89.8297 189.1L86.521 192.295L85.8108 188.673L82.7163 191.189L82.0716 187.901L78.1882 189.936L77.7238 186.092ZM77.7238 186.092L75.7744 189.136" stroke="black" stroke-width="0.1"/>
<path d="M116.593 117.416L114.594 112.171L113.064 115.127L111.306 110.218L109.696 113.624L108.129 109.248L106.656 112.364L105.165 108.202L103.555 111.608L102.141 107.659L100.703 110.703L99.4031 107.074L97.4841 110.29L96.1465 106.554L94.7236 110.315L91.7651 106.257L91.0783 110.055L87.0341 107.168L85.5731 110.822L83.3553 107.823L82.5385 111.427L79.9854 108.669L79.4434 112.536L76.3033 109.987L77.2483 113.803L72.6824 111.645L73.8863 115.007L70.1177 113.226L71.3216 116.588L67.6979 114.875L69.0165 118.557L65.4653 116.879L66.7074 120.347L63.3736 118.772L64.5584 122.08L61.5145 120.642L62.8139 124.27L59.7701 122.832L61.1842 126.781L57.8925 125.491L59.2684 129.333L56.2285 128.074L57.719 132.236L54.3517 131.575L56.536 135.489L52.6015 135.935L55.1171 139.429L51.4685 139.833L54.4677 142.492L50.6788 143.848L53.9401 145.39L50.4181 146.651C51.6093 147.007 53.7782 147.796 53.7782 147.796L50.0961 149.115L53.9603 151.163L50.298 153.377L53.834 155.182L50.9426 158.204L55.0952 158.704L52.3758 162.206L55.9789 162.18L53.5415 165.462L57.2593 165.756L55.0511 169.677L58.9362 169.43L57.292 172.909L60.6539 171.705L58.7086 175.352L62.1773 174.11L60.3961 177.878L64.5585 176.388L63.2542 180.648L66.883 179.349L66.177 183.094L70.2326 181.641L70.0992 186.145L73.7957 183.858L73.5476 188.041L76.8093 185.548L77.137 189.826L79.6964 186.381L80.2758 190.689L83.0071 187.724L83.6168 191.78L86.4126 188.491L87.865 192.547L89.612 188.851L91.4338 192.594L93.1163 189.222L96.0134 192.941L97.3638 189.146L100.317 192.182L101.935 188.291L105.422 191.137L105.735 187.472L109.104 189.818L108.884 186.345L113.16 188.366L111.86 184.737L115.846 186.621L114.547 182.992L118.533 184.877L117.272 181.354L120.751 182.999L119.585 179.743L122.919 181.319L121.524 177.424L126.282 177.767L124.625 174.146L129.158 174.028L127.248 170.376L131.622 170.316L129.054 167.683L133.163 166.212L130.115 164.594L134.704 162.95L131.443 161.409L135.392 159.995L132.248 158.11L136.251 156.677L132.844 155.067L136.679 153.332L133.025 151.871L136.728 149.1L133.097 147.871L136.435 144.75L132.338 142.725L135.508 139.302L131.385 138.55L133.902 134.819L129.799 134.121L131.996 130.504L128.863 131.506L130.678 127.665L127.05 128.964L128.934 124.978L125.358 126.258L126.407 121.789L122.938 123.031L123.514 119.092L120.366 120.219L120.126 115.85L116.593 117.416ZM116.593 117.416L118.206 114.189" stroke="black" stroke-width="0.1"/>
<path d="M86.3886 143.337L71.2278 167.883L94.1237 168.283M86.3886 143.337L94.1404 130.854L115.535 168.656L101.014 168.403L86.3886 143.337Z" stroke="black" stroke-width="2"/>
<path d="M59.7127 200.689L51.0845 200.515L54.5706 196.767L46.5527 196.767L50.6488 192.671L43.5022 192.671L47.2498 188.924L40.4518 188.924L44.548 184.827L38.0987 184.827L41.7591 181.167L35.8327 181.167L39.4931 176.722L33.3924 176.722L38.0987 172.713L30.6906 170.534L35.8327 167.571L29.5576 163.213L34.0896 159.204L28.5989 157.548L33.3924 154.498L28.076 152.232L33.3924 149.443L28.076 146.218L34.0896 145.608L28.5989 140.118L34.0896 140.118L29.5576 135.586L35.0483 135.586L30.6906 131.228L36.7042 131.228L32.4337 126.957L38.0987 126.957L34.0896 122.948L39.4931 122.948L35.8327 119.288L41.7591 119.288L38.0987 115.628L44.548 115.628L40.9747 111.531L47.2498 111.531L43.8508 107.784L50.6488 107.784L47.947 103.252L54.745 104.385L53.3505 98.4583L59.7127 100.289L58.4054 94.7979L63.8089 97.7611L63.8089 91.5732L67.7308 95.4951L67.7308 89.743C68.8638 91.2827 71.1298 94.0135 71.1298 94.0135L71.1298 87.9999L76.0975 92.5319L77.4048 86.0826L81.8496 90.2659L84.7257 84.5138L87.6017 90.2659L91.2622 84.5138L93.0924 89.743L96.5785 84.5138L98.9317 89.743L103.464 84.5138L105.12 90.2659L109.303 86.0826L109.303 91.5732L113.573 86.8669L113.573 92.5319L118.105 87.9999L118.105 94.7979L123.596 90.7017L123.596 96.6281L128.651 93.6649L128.651 100.289L135.1 97.7611L133.706 104.298L139.632 101.77L137.715 107.784L144.077 106.041L140.417 111.531L146.953 110.137L144.077 115.628L150.265 114.407L146.953 120.16L153.577 120.16L149.132 124.604L155.494 125.302L151.485 129.485L158.37 131.751L153.577 135.673L159.503 138.375L154.71 142.732L160.636 146.305L155.494 148.659L160.636 152.319L155.494 153.801L160.636 158.943L154.71 158.943L159.503 163.736L153.577 163.736L158.37 168.53L152.618 168.53L156.801 172.713L151.485 172.713L155.494 176.722L149.132 176.722L152.095 183.433L145.994 182.91L148.173 189.534L141.898 188.662L144.077 195.024L138.935 192.671L138.935 199.382L135.013 195.809L135.013 203.304L131.091 199.382L131.091 205.831L126.734 202.258L126.734 208.794L122.637 204.698L122.114 211.148L118.105 206.616L116.014 213.414L112.353 208.794L109.564 215.244L104.509 210.363L101.198 216.725L97.973 211.148L93.8768 216.725L90.7393 211.148L86.643 216.202L86.4688 211.148L81.8496 215.767L81.8496 209.84L77.0562 214.634L77.0562 208.794L71.1298 212.629L71.1298 206.964L65.7263 209.84L65.7263 204.698L59.2769 206.616L59.7127 200.689ZM59.7127 200.689L55.8779 204.698" stroke="black" stroke-width="0.1"/>
<path d="M138.531 108.739L137.07 100.25L133.892 104.25L132.694 96.3373L129.264 100.992L128.196 93.9386L125.057 98.197L124.042 91.4879L120.611 96.1425L119.648 89.7775L116.582 93.9369L115.697 88.088L111.857 92.3646L110.946 86.3437L107.692 91.5873L104.435 84.6017L102.279 90.1191L97.041 84.5772L93.7616 89.6488L91.3072 84.4773L89.0128 89.6638L85.9823 84.7555L84.0242 90.4189L80.0476 85.6538L80.3439 91.6799L74.1049 87.0813L74.9252 92.5001L69.7756 88.7044L70.5958 94.1233L65.6443 90.4736L66.5427 96.4085L61.6902 92.8318L62.5365 98.4227L57.981 95.065L58.7883 100.398L54.629 97.3321L55.5144 103.181L51.3551 100.115L52.3186 106.48L47.7422 103.566L48.6796 109.759L44.4734 106.964L45.489 113.673L40.6128 111.684L42.7465 118.223L36.6894 117.732L39.4461 123.738L33.8321 123.268L37.5637 128.158L31.457 129.083L35.9134 132.367L30.2366 133.227C31.9254 134.115 34.9589 135.943 34.9589 135.943L29.0242 136.841L34.2389 141.067L28.0694 143.321L32.8619 147.082L27.6149 150.78L33.7213 152.759L28.5914 157.231L34.0255 158.256L29.3856 162.478L34.8978 164.019L30.4142 169.273L36.3383 170.048L32.8347 174.801L38.2534 173.981L34.2468 178.899L39.8375 178.053L36.042 183.202L42.7509 182.187L39.5286 188.218L45.3773 187.332L43.2081 192.764L49.745 191.774L48.2141 198.517L54.4566 196.164L52.8477 202.39L58.496 199.6L57.7262 206.139L62.5981 201.706L62.1984 208.366L67.1874 204.707L66.9077 210.996L72.0897 206.868L73.0792 213.405L76.8018 208.355L78.4403 214.529L81.9699 209.948L85.2347 216.404L88.3891 211.088L91.9408 216.533L95.5253 211.151L99.9371 216.466L101.491 211.04L105.872 215.568L106.566 210.272L112.409 214.579L111.523 208.73L116.97 212.744L116.085 206.895L121.531 210.91L120.672 205.233L125.426 208.737L124.631 203.49L129.187 206.848L128.236 200.569L135.302 202.491L133.874 196.548L140.737 197.709L138.939 191.646L145.543 192.846L142.453 188.123L149.076 187.12L144.963 183.783L152.36 182.664L147.904 179.379L154.269 178.416L150.091 174.649L156.542 173.672L151.888 170.242L158.174 168.762L153.103 165.482L159.499 162.403L154.394 159.48L160.342 155.764L154.77 151.505L160.554 147.286L154.568 144.936L159.461 140.061L153.487 137.797L157.864 133L152.849 133.583L156.718 128.334L150.869 129.219L154.883 123.773L149.121 124.645L152.02 118.223L146.429 119.069L148.46 113.307L143.386 114.075L144.314 107.424L138.531 108.739ZM138.531 108.739L141.914 104.356" stroke="black" stroke-width="0.1"/>
<path d="M68.0106 205.483L59.4616 206.661L62.318 202.414L54.3989 203.669L57.8032 198.983L50.7448 200.102L53.8594 195.813L47.1453 196.878L50.5497 192.191L44.1799 193.2L47.2221 189.012L41.3688 189.94L44.2882 184.977L38.2627 185.932L42.2834 181.235L34.6255 180.243L39.2403 176.512L32.3604 173.19L36.2089 168.521L30.5267 167.745L34.7834 163.982L29.1779 162.576L33.9921 158.989L28.2364 156.636L34.0804 155.093L27.7978 150.529L33.2208 149.67L28.0351 145.903L33.4581 145.043L28.472 141.422L34.4114 140.48L29.525 136.931L35.1201 136.044L30.5328 132.712L35.8697 131.866L31.6814 128.824L37.5347 127.896L33.3463 124.854L39.7162 123.844L35.5456 120.358L41.7433 119.375L37.7995 116.206L44.5137 115.142L41.1357 111.089L48.0272 111.144L45.7222 105.509L52.2924 106.32L50.1417 101.102L55.9425 103.183L54.9737 97.071L59.4612 100.331L58.5607 94.6494C59.9208 95.9927 62.5864 98.3351 62.5864 98.3351L61.6449 92.3957L67.2609 96.0941L67.5424 89.5196L72.5873 92.9555L74.5274 86.824L78.2685 92.055L80.9833 85.8007L83.6096 90.6789L86.2341 84.9684L89.3768 89.7647L93.0343 83.8905L95.5703 89.3125L99.0472 84.5258L99.9067 89.9487L103.388 84.6319L104.275 90.227L108.041 85.0414L109.106 91.7556L113.887 86.8503L114.815 92.7036L119.344 88.9856L120.381 95.5276L126.355 92.0216L126.001 98.6958L131.458 95.2717L130.506 101.511L136.517 98.7937L133.761 104.79L139.999 102.389L138.018 108.262L143.938 106.089L141.568 112.288L148.11 111.251L144.416 116.337L150.809 116.03L147.504 120.789L154.659 121.949L150.539 126.573L156.815 128.314L152.763 133.368L159.176 135.97L154.465 139.099L160.117 141.909L155.27 144.177L161.154 148.451L155.301 149.379L160.785 153.363L154.932 154.291L160.417 158.274L154.736 159.175L159.522 162.652L154.272 163.484L158.859 166.816L152.575 167.812L156.552 173.976L150.445 174.415L153.634 180.616L147.3 180.737L150.448 186.68L145.001 185.161L146.051 191.789L141.618 188.874L142.792 196.276L138.304 193.017L139.314 199.387L134.451 196.54L135.474 202.996L130.787 199.591L131.28 206.043L126.611 202.194L125.609 209.236L121.271 205.247L119.526 212.053L113.77 208.024L111.495 214.827L107.436 209.822L104.264 215.973L100.292 210.955L97.0376 216.589L96.0741 211.623L92.2351 216.909L91.3073 211.055L87.3234 216.54L86.4092 210.773L81.1562 215.488L80.2693 209.893L75.3827 213.58L74.5777 208.501L68.508 211.404L68.0106 205.483ZM68.0106 205.483L64.8508 210.043" stroke="black" stroke-width="0.1"/>
<path d="M131.461 102.327L128.689 94.1715L126.177 98.62L123.755 90.9921L121.096 96.1261L118.937 89.3271L116.504 94.0244L114.451 87.5571L111.791 92.6913L109.843 86.5557L107.466 91.1437L105.676 85.5056L102.553 90.3305L100.711 84.5266L98.3182 90.2148L94.0076 83.8253L92.7419 89.6122L86.7008 84.9587L84.2557 90.4812L81.022 85.7577L79.5679 91.2394L75.8063 86.8661L74.759 92.7662L70.0854 88.6825L71.3215 94.5878L64.4395 91.0226L66.098 96.2462L60.4176 93.3036L62.0761 98.5272L56.6143 95.6977L58.4307 101.419L53.0781 98.6459L54.7892 104.035L49.7643 101.432L51.3965 106.573L46.8085 104.196L48.5986 109.834L44.0107 107.458L45.9588 113.593L40.9825 111.431L42.8779 117.401L38.286 115.299L40.3394 121.766L35.2119 120.565L38.3431 126.69L32.2839 127.153L35.9468 132.653L30.3285 133.068L34.7796 137.314L28.8929 139.183L33.8086 141.729L28.3364 143.467C30.1434 144.079 33.4257 145.41 33.4257 145.41L27.7048 147.227L33.5168 150.584L27.7762 153.776L33.0985 156.741L28.4951 161.214L34.836 162.213L30.4695 167.433L35.997 167.595L32.0753 172.491L37.7608 173.15L34.155 179.041L40.1274 178.879L37.4112 184.122L42.6347 182.464L39.4473 187.948L44.8366 186.237L41.8941 191.917L48.3613 189.864L46.1229 196.325L51.7609 194.535L50.4688 200.239L56.7701 198.238L56.3137 205.137L62.1109 201.836L61.4965 208.238L66.6383 204.597L66.9018 211.177L71.0196 206.036L71.6674 212.675L76.0222 208.281L76.7305 214.536L81.2023 209.648L83.2031 215.95L86.089 210.378L88.674 216.221L91.4428 211.143L95.6782 217.009L97.9614 211.264L102.322 216.086L105.019 210.209L110.209 214.768L110.894 209.166L115.93 212.952L115.786 207.612L122.231 210.951L120.441 205.313L126.449 208.425L124.659 202.787L130.667 205.9L128.93 200.427L134.173 203.144L132.567 198.086L137.592 200.689L135.67 194.636L142.95 195.428L140.609 189.782L147.569 189.855L144.844 184.148L151.555 184.299L147.763 180.118L154.147 178.091L149.563 175.439L156.694 173.175L151.778 170.629L157.914 168.681L153.198 165.614L159.416 163.64L154.282 160.98L160.26 158.535L154.737 156.09L160.573 152.046L155.073 149.959L160.366 145.358L154.196 142.023L159.248 136.951L152.968 135.568L157.037 129.986L150.783 128.686L154.354 123.262L149.493 124.623L152.492 118.833L146.854 120.623L149.966 114.615L144.411 116.379L146.269 109.583L140.88 111.294L141.984 105.284L137.092 106.837L136.968 100.123L131.461 102.327ZM131.461 102.327L134.117 97.4682" stroke="black" stroke-width="0.1"/>
<path d="M70.0338 206.403L61.5333 207.893L64.2332 203.544L56.3651 205.087L59.5965 200.279L52.5834 201.655L55.5399 197.256L48.869 198.564L52.1004 193.756L45.7716 194.997L48.6593 190.701L42.8436 191.841L45.5804 186.775L39.5937 187.949L43.4406 183.109L35.7517 182.396L40.2275 178.499L33.2312 175.43L36.9071 170.624L31.2004 170.056L35.3173 166.14L29.6642 164.939L34.3446 161.179L28.5071 159.038L34.2909 157.282L27.8463 152.951L33.2344 151.894L27.9151 148.319L33.3031 147.262L28.1884 143.825L34.0896 142.668L29.0771 139.299L34.6363 138.209L29.9307 135.046L35.2332 134.006L30.9369 131.118L36.7525 129.978L32.4562 127.09L38.785 125.849L34.4903 122.517L40.648 121.31L36.5915 118.286L43.2624 116.978L39.7391 113.051L46.628 112.855L44.1192 107.307L50.7147 107.879L48.3753 102.743L54.248 104.611L53.0574 98.5384L57.6606 101.632L56.5538 95.9877C57.9619 97.2806 60.711 99.5244 60.711 99.5244L59.5539 93.6232L65.3008 97.1146L65.3427 90.5342L70.5094 93.7841L72.2249 87.5861L76.154 92.6773L78.6392 86.3283L81.4415 91.1076L83.8562 85.3054L87.1716 89.984L90.6127 83.9805L93.3445 89.3065L96.6447 84.3964L97.7012 89.7844L100.986 84.3444L102.076 89.9035L105.652 84.5842L106.96 91.2551L111.56 86.1789L112.7 91.9946L117.09 88.1141L118.365 94.6139L124.207 90.8927L124.097 97.5754L129.426 93.9548L128.701 100.225L134.609 97.2903L132.074 103.383L138.22 100.757L136.454 106.698L142.292 104.31L140.148 110.592L146.648 109.317L143.142 114.534L149.519 113.994L146.39 118.871L153.583 119.77L149.633 124.541L155.969 126.052L152.104 131.25L158.607 133.616L154.014 136.915L159.764 139.518L155.003 141.961L161.038 146.017L155.223 147.158L160.849 150.939L155.033 152.08L160.66 155.861L155.015 156.968L159.925 160.268L154.708 161.291L159.414 164.454L153.17 165.678L157.369 171.693L151.282 172.354L154.695 178.435L148.369 178.787L151.732 184.611L146.233 183.291L147.524 189.877L142.988 187.125L144.43 194.48L139.827 191.386L141.068 197.715L136.104 195.047L137.362 201.461L132.554 198.23L133.282 204.659L128.476 200.983L127.731 208.057L123.25 204.228L121.754 211.094L115.855 207.277L113.829 214.157L109.592 209.304L106.645 215.566L102.493 210.696L99.446 216.445L98.3023 211.518L94.6583 216.94L93.5179 211.124L89.7364 216.75L88.6128 211.02L83.535 215.923L82.445 210.364L77.6959 214.226L76.7064 209.18L70.7466 212.303L70.0338 206.403ZM70.0338 206.403L67.0422 211.075" stroke="black" stroke-width="0.1"/>
<path d="M129.686 101.006L126.619 92.9562L124.27 97.4932L121.572 89.9586L119.101 95.186L116.697 88.4702L114.436 93.253L112.148 86.8647L109.678 92.0924L107.507 86.0318L105.299 90.7033L103.305 85.1341L100.36 90.0696L98.3072 84.3366L96.1235 90.1082L91.5831 83.8799L90.529 89.7091L84.3224 85.2786L82.0801 90.8865L78.6764 86.2839L77.4229 91.8149L73.5046 87.5815L72.6728 93.5159L67.8536 89.605L69.304 95.4614L62.2967 92.1493L64.1444 97.309L58.3606 94.5752L60.2082 99.7349L54.6469 97.1062L56.6705 102.757L51.2205 100.181L53.1268 105.505L48.0104 103.086L49.8287 108.164L45.1572 105.956L47.1514 111.525L42.48 109.317L44.6502 115.378L39.5986 113.398L41.7101 119.295L37.0447 117.362L39.3323 123.75L34.1644 122.736L37.5166 128.743L31.4783 129.427L35.3391 134.79L29.7396 135.409L34.3424 139.49L28.5276 141.572L33.5328 143.938L28.1275 145.873C29.9556 146.42 33.2843 147.63 33.2843 147.63L27.6333 149.654L33.5637 152.797L27.9431 156.196L33.3699 158.965L28.9324 163.603L35.3055 164.371L31.132 169.746L36.6617 169.706L32.9209 174.742L38.6267 175.194L35.2378 181.212L41.2003 180.833L38.6769 186.171L43.8365 184.324L40.851 189.921L46.1744 188.014L43.4407 193.798L49.8288 191.511L47.8272 198.049L53.3963 196.055L52.3127 201.802L58.537 199.573L58.3322 206.484L64.0053 202.974L63.6245 209.394L68.6303 205.569L69.1332 212.134L73.0611 206.846L73.9503 213.458L78.142 208.908L79.0777 215.133L83.3686 210.086L85.5975 216.31L88.2786 210.637L91.0746 216.382L93.6567 211.206L98.1029 216.914L100.175 211.09L104.708 215.75L107.19 209.779L112.542 214.146L113.023 208.522L118.193 212.122L117.855 206.792L124.418 209.894L122.423 204.324L128.541 207.216L126.547 201.647L132.664 204.538L130.728 199.133L136.067 201.656L134.278 196.66L139.395 199.079L137.254 193.1L144.557 193.627L142.013 188.069L148.97 187.888L146.04 182.285L152.751 182.191L148.81 178.151L155.116 175.893L150.438 173.41L157.482 170.888L152.477 168.522L158.537 166.352L153.713 163.459L159.855 161.26L154.628 158.789L160.512 156.127L154.904 153.885L160.589 149.631L155.016 147.746L160.138 142.955L153.851 139.847L158.715 134.594L152.388 133.441L156.252 127.714L149.954 126.643L153.326 121.093L148.517 122.63L151.303 116.735L145.734 118.729L148.626 112.612L143.139 114.576L144.748 107.717L139.424 109.623L140.309 103.577L135.477 105.308L135.108 98.6019L129.686 101.006ZM129.686 101.006L132.163 96.053" stroke="black" stroke-width="0.1"/>
<path d="M46.341 218.37L34.5598 218.132L39.3199 213.015L28.3719 213.015L33.9648 207.422L24.2066 207.422L29.3237 202.305L20.0415 202.305L25.6347 196.712L16.8285 196.712L21.8266 191.714L13.7345 191.714L18.7326 185.645L10.4024 185.645L16.8285 180.171L6.71334 177.196L13.7345 173.15L5.16631 167.2L11.3544 161.726L3.85729 159.465L10.4024 155.299L3.1433 152.205L10.4024 148.397L3.14331 143.994L11.3544 143.161L3.85729 135.664L11.3544 135.664L5.16631 129.476L12.6634 129.476L6.71334 123.526L14.9245 123.526L9.09338 117.695L16.8285 117.695L11.3544 112.221L18.7326 112.221L13.7345 107.223L21.8266 107.223L16.8285 102.225L25.6347 102.225L20.7556 96.6315L29.3237 96.6315L24.6826 91.5144L33.9648 91.5144L30.2757 85.3263L39.5579 86.8733L37.6538 78.7812L46.341 81.2802L44.556 73.7831L51.9341 77.8292L51.9341 69.3801L57.2892 74.7351L57.2892 66.881C58.8362 68.9834 61.9302 72.7121 61.9302 72.7121L61.9302 64.501L68.7133 70.6891L70.4984 61.8829L76.5675 67.595L80.4945 59.7409L84.4216 67.595L89.4197 59.7409L91.9187 66.881L96.6788 59.7409L99.8918 66.881L106.08 59.7409L108.341 67.595L114.053 61.8829L114.053 69.3801L119.884 62.9539L119.884 70.6891L126.072 64.501L126.072 73.7831L133.569 68.19L133.569 76.2822L140.471 72.2361L140.471 81.2802L149.278 77.8292L147.374 86.7543L155.466 83.3033L152.848 91.5144L161.535 89.1344L156.537 96.6315L165.462 94.7274L161.535 102.225L169.984 100.559L165.462 108.413L174.506 108.413L168.437 114.482L177.124 115.434L171.65 121.146L181.051 124.24L174.506 129.595L182.598 133.284L176.053 139.234L184.145 144.113L177.124 147.326L184.145 152.324L177.124 154.347L184.145 161.369L176.053 161.369L182.598 167.914L174.506 167.914L181.051 174.459L173.197 174.459L178.909 180.171L171.65 180.171L177.124 185.645L168.437 185.645L172.483 194.808L164.153 194.094L167.128 203.138L158.56 201.948L161.535 210.635L154.514 207.422L154.514 216.585L149.159 211.706L149.159 221.94L143.804 216.585L143.804 225.392L137.853 220.512L137.853 229.438L132.26 223.844L131.546 232.651L126.072 226.463L123.216 235.745L118.218 229.438L114.41 238.244L107.508 231.58L102.986 240.267L98.5828 232.651L92.9897 240.267L88.7056 232.651L83.1126 239.553L82.8746 232.651L76.5675 238.958L76.5675 230.866L70.0224 237.411L70.0224 229.438L61.9302 234.674L61.9302 226.939L54.5521 230.866L54.5521 223.844L45.746 226.463L46.341 218.37ZM46.341 218.37L41.1049 223.844" stroke="black" stroke-width="0.1"/>
<path d="M153.962 92.8191L151.967 81.2276L147.628 86.6899L145.992 75.8852L141.308 82.2404L139.851 72.6099L135.565 78.4245L134.178 69.2637L129.494 75.6192L128.178 66.9283L123.993 72.6076L122.784 64.6214L117.541 70.4608L116.296 62.2396L111.854 69.3994L107.407 59.861L104.463 67.3947L97.3104 59.8276L92.8325 66.7525L89.4812 59.6912L86.3484 66.7729L82.2105 60.071L79.5368 67.804L74.107 61.2977L74.5116 69.5258L65.9927 63.2467L67.1127 70.6458L60.0813 65.4631L61.2013 72.8621L54.4403 67.8787L55.667 75.9824L49.0412 71.0987L50.1967 78.7327L43.9766 74.148L45.0789 81.4296L39.3996 77.2435L40.6085 85.2298L34.9293 81.0438L36.2449 89.7347L29.9962 85.755L31.2762 94.211L25.5328 90.3951L26.9195 99.5558L20.2614 96.8394L23.1749 105.769L14.9043 105.099L18.6684 113.299L11.0029 112.657L16.0982 119.334L7.75979 120.597L13.8447 125.082L6.09351 126.255C8.39943 127.468 12.5415 129.964 12.5415 129.964L4.43803 131.191L11.5583 136.961L3.13431 140.038L9.6782 145.174L2.5137 150.223L10.8516 152.926L3.84705 159.032L11.2669 160.431L4.93151 166.196L12.458 168.3L6.33597 175.474L14.4249 176.532L9.64106 183.023L17.0399 181.903L11.5691 188.617L19.2029 187.462L14.0204 194.493L23.1808 193.107L18.7811 201.341L26.7671 200.133L23.8052 207.549L32.7308 206.198L30.6406 215.404L39.1643 212.192L36.9674 220.693L44.6797 216.883L43.6287 225.812L50.2809 219.759L49.7351 228.852L56.5473 223.857L56.1654 232.444L63.241 226.808L64.5921 235.734L69.675 228.837L71.9123 237.268L76.7317 231.013L81.1897 239.829L85.4968 232.569L90.3464 240.004L95.2407 232.656L101.265 239.913L103.387 232.504L109.368 238.687L110.316 231.455L118.294 237.336L117.085 229.349L124.522 234.831L123.313 226.845L130.75 232.326L129.577 224.575L136.068 229.359L134.983 222.195L141.203 226.78L139.905 218.206L149.553 220.83L147.604 212.716L156.974 214.301L154.519 206.023L163.537 207.661L159.317 201.212L168.36 199.843L162.745 195.287L172.845 193.758L166.76 189.273L175.451 187.957L169.747 182.814L178.555 181.481L172.2 176.796L180.784 174.776L173.859 170.298L182.593 166.093L175.622 162.102L183.743 157.029L176.136 151.212L184.033 145.452L175.859 142.244L182.54 135.586L174.384 132.496L180.36 125.945L173.513 126.741L178.795 119.575L170.809 120.783L176.29 113.346L168.422 114.537L172.38 105.769L164.746 106.924L167.52 99.0561L160.591 100.105L161.859 91.023L153.962 92.8191ZM153.962 92.8191L158.582 86.8338" stroke="black" stroke-width="0.1"/>
<path d="M57.6712 224.916L45.998 226.525L49.8983 220.726L39.0854 222.44L43.7337 216.04L34.0959 217.568L38.3487 211.713L29.181 213.166L33.8295 206.766L25.132 208.145L29.2859 202.426L21.2936 203.693L25.2799 196.916L17.0525 198.22L22.5424 191.808L12.0861 190.453L18.3873 185.358L8.99322 180.822L14.2481 174.447L6.48939 173.387L12.3017 168.249L4.64773 166.329L11.2212 161.432L3.36226 158.22L11.3417 156.111L2.76332 149.88L10.168 148.707L3.08742 143.564L10.4921 142.39L3.68385 137.445L11.7937 136.159L5.12165 131.313L12.7614 130.102L6.49784 125.552L13.785 124.397L8.06606 120.243L16.0584 118.976L10.3395 114.823L19.037 113.444L13.3425 108.684L21.805 107.342L16.42 103.015L25.5877 101.562L20.9754 96.0274L30.3853 96.1022L27.2378 88.4079L36.2091 89.5161L33.2724 82.3909L41.1929 85.232L39.8702 76.887L45.9976 81.3377L44.768 73.5805C46.6251 75.4147 50.2647 78.6131 50.2647 78.6131L48.9792 70.5032L56.6475 75.5531L57.0318 66.5761L63.9204 71.2676L66.5694 62.8955L71.6776 70.038L75.3845 61.4982L78.9705 68.159L82.5541 60.3618L86.8453 66.9108L91.8393 58.89L95.3021 66.2933L100.049 59.7574L101.223 67.162L105.976 59.9023L107.187 67.542L112.33 60.4615L113.783 69.6291L120.313 62.9313L121.579 70.9237L127.763 65.8469L129.179 74.7795L137.336 69.9924L136.853 79.1056L144.305 74.4302L143.005 82.95L151.212 79.2392L147.449 87.4264L155.966 84.1486L153.261 92.168L161.346 89.1998L158.109 97.6651L167.041 96.2492L161.997 103.194L170.726 102.774L166.214 109.272L175.984 110.857L170.358 117.17L178.928 119.547L173.395 126.448L182.151 130L175.719 134.273L183.436 138.11L176.818 141.208L184.852 147.043L176.86 148.31L184.349 153.75L176.357 155.016L183.846 160.456L176.088 161.686L182.624 166.433L175.455 167.57L181.718 172.119L173.138 173.479L178.569 181.896L170.23 182.495L174.584 190.962L165.935 191.128L170.234 199.242L162.796 197.168L164.231 206.218L158.178 202.237L159.78 212.345L153.652 207.895L155.031 216.592L148.391 212.705L149.788 221.52L143.388 216.871L144.062 225.681L137.686 220.426L136.318 230.041L130.395 224.594L128.012 233.888L120.152 228.386L117.046 237.674L111.504 230.841L107.173 239.239L101.749 232.388L97.3055 240.08L95.9899 233.3L90.748 240.517L89.4812 232.525L84.0414 240.014L82.7932 232.139L75.6206 238.577L74.4096 230.938L67.7373 235.971L66.6381 229.037L58.3504 233.001L57.6712 224.916ZM57.6712 224.916L53.3567 231.142" stroke="black" stroke-width="0.1"/>
<path d="M144.309 84.0641L140.524 72.9279L137.094 79.002L133.787 68.5866L130.156 75.5968L127.208 66.3133L123.886 72.7271L121.082 63.8964L117.451 70.9068L114.791 62.5291L111.545 68.7937L109.101 61.0952L104.837 67.6833L102.321 59.7584L99.0542 67.5254L93.1684 58.8009L91.4402 66.7025L83.1914 60.3484L79.8529 67.889L75.4374 61.4394L73.452 68.9243L68.3158 62.9528L66.8857 71.0091L60.5043 65.433L62.1921 73.4963L52.7952 68.6284L55.0598 75.7608L47.3036 71.7428L49.5682 78.8753L42.1104 75.0118L44.5906 82.8236L37.282 79.0374L39.6184 86.3963L32.7572 82.8419L34.9858 89.8611L28.7213 86.6158L31.1656 94.3143L24.901 91.0691L27.561 99.4468L20.7663 96.4945L23.3544 104.646L17.0844 101.776L19.8882 110.607L12.8869 108.966L17.1624 117.33L8.88892 117.962L13.8904 125.472L6.21891 126.038L12.2967 131.836L4.25872 134.388L10.9707 137.865L3.49883 140.237C5.96617 141.074 10.448 142.891 10.448 142.891L2.6365 145.371L10.5723 149.955L2.73391 154.313L10.0012 158.362L3.71553 164.47L12.3736 165.834L6.41142 172.961L13.9589 173.182L8.60409 179.867L16.3672 180.767L11.4438 188.811L19.5986 188.59L15.8899 195.75L23.0222 193.485L18.6701 200.973L26.0288 198.637L22.011 206.393L30.8415 203.59L27.7851 212.411L35.4834 209.967L33.7191 217.756L42.3231 215.024L41.6999 224.444L49.6156 219.937L48.7768 228.678L55.7975 223.707L56.1573 232.69L61.7799 225.671L62.6644 234.737L68.6105 228.736L69.5777 237.278L75.6837 230.603L78.4155 239.208L82.3561 231.6L85.8857 239.578L89.6664 232.644L95.4495 240.654L98.567 232.809L104.521 239.394L108.204 231.37L115.29 237.595L116.226 229.944L123.102 235.114L122.906 227.824L131.706 232.383L129.262 224.684L137.465 228.934L135.021 221.235L143.224 225.485L140.852 218.013L148.012 221.722L145.819 214.816L152.68 218.37L150.056 210.106L159.995 211.187L156.8 203.478L166.303 203.577L162.582 195.785L171.745 195.991L166.568 190.282L175.285 187.514L169.026 183.893L178.762 180.802L172.05 177.325L180.428 174.665L173.989 170.478L182.48 167.782L175.469 164.151L183.631 160.812L176.091 157.473L184.059 151.952L176.549 149.102L183.776 142.819L175.351 138.266L182.25 131.34L173.674 129.451L179.23 121.83L170.691 120.055L175.568 112.649L168.93 114.507L173.025 106.602L165.326 109.046L169.576 100.842L161.991 103.251L164.528 93.9707L157.169 96.3071L158.676 88.1017L151.997 90.2224L151.828 81.0538L144.309 84.0641ZM144.309 84.0641L147.935 77.4293" stroke="black" stroke-width="0.1"/>
<path d="M60.4339 226.173L48.827 228.206L52.5135 222.269L41.7702 224.375L46.1823 217.811L36.6065 219.689L40.6434 213.683L31.5346 215.469L35.947 208.904L27.3054 210.598L31.2484 204.732L23.3075 206.289L27.0443 199.372L18.8699 200.974L24.1226 194.366L13.6239 193.393L19.7353 188.072L10.1823 183.881L15.2015 177.319L7.40939 176.543L13.0307 171.196L5.31192 169.556L11.7026 164.423L3.73194 161.499L11.6294 159.101L2.82971 153.187L10.1867 151.744L2.92354 146.863L10.2806 145.42L3.29674 140.726L11.3544 139.146L4.51028 134.546L12.1009 133.057L5.67576 128.739L12.916 127.319L7.04959 123.376L14.9905 121.819L9.12409 117.876L17.7657 116.182L11.9015 111.632L20.3096 109.983L14.7706 105.855L23.8793 104.069L19.0684 98.7063L28.4748 98.4384L25.0492 90.8638L34.0549 91.6446L30.8606 84.6311L38.8794 87.1818L37.2537 78.8906L43.5391 83.1152L42.0278 75.4078C43.9504 77.1732 47.7042 80.2369 47.7042 80.2369L46.1242 72.1792L53.9712 76.9465L54.0284 67.9614L61.0832 72.3989L63.4256 63.9359L68.7906 70.8876L72.1839 62.2186L76.0102 68.7444L79.3074 60.8218L83.8343 67.2102L88.5329 59.0128L92.263 66.2851L96.7692 59.5806L98.2118 66.9376L102.697 59.5096L104.186 67.1002L109.068 59.837L110.854 68.9457L117.134 62.0145L118.691 69.9554L124.686 64.6568L126.426 73.532L134.404 68.4509L134.253 77.5757L141.53 72.632L140.541 81.1935L148.607 77.1863L145.145 85.5051L153.537 81.9192L151.126 90.0319L159.097 86.7712L156.171 95.3487L165.046 93.6085L160.258 100.732L168.966 99.9946L164.693 106.653L174.514 107.88L169.122 114.395L177.772 116.458L172.494 123.556L181.374 126.787L175.103 131.291L182.954 134.845L176.454 138.181L184.694 143.72L176.754 145.277L184.436 150.44L176.495 151.997L184.177 157.161L176.47 158.672L183.174 163.179L176.051 164.575L182.476 168.894L173.951 170.565L179.685 178.779L171.373 179.681L176.033 187.983L167.396 188.464L171.987 196.417L164.478 194.615L166.242 203.607L160.048 199.849L162.017 209.892L155.732 205.667L157.426 214.309L150.648 210.666L152.366 219.424L145.801 215.012L146.795 223.791L140.232 218.772L139.216 228.43L133.097 223.203L131.055 232.577L122.999 227.365L120.233 236.76L114.447 230.134L110.424 238.684L104.755 232.034L100.594 239.884L99.0325 233.156L94.0569 240.559L92.4998 232.618L87.3364 240.301L85.8022 232.476L78.8688 239.172L77.3804 231.581L70.8958 236.855L69.5448 229.965L61.407 234.228L60.4339 226.173ZM60.4339 226.173L56.3489 232.552" stroke="black" stroke-width="0.1"/>
<path d="M141.885 82.2594L137.697 71.2684L134.49 77.4634L130.806 67.1753L127.432 74.3131L124.149 65.1431L121.062 71.6736L117.938 62.9509L114.565 70.089L111.601 61.8136L108.587 68.1922L105.864 60.5879L101.842 67.3269L99.0391 59.4989L96.0575 67.3797L89.8578 58.8753L88.4185 66.8347L79.9438 60.7852L76.8821 68.4424L72.2347 62.1579L70.5231 69.7101L65.1729 63.9296L64.0372 72.0326L57.4569 66.6926L59.4373 74.6891L49.8693 70.1666L52.3922 77.2119L44.4948 73.479L47.0176 80.5243L39.4241 76.935L42.1871 84.6512L34.7455 81.1337L37.3484 88.4026L30.3623 85.1005L32.845 92.0339L26.4665 89.0189L29.1895 96.6233L22.8109 93.6083L25.7742 101.884L18.8765 99.1807L21.7597 107.232L15.3894 104.593L18.5129 113.316L11.4565 111.931L16.0338 120.133L7.78884 121.067L13.0605 128.39L5.41472 129.235L11.6996 134.807L3.75989 137.65L10.5941 140.88L3.21353 143.523C5.70971 144.27 10.2548 145.922 10.2548 145.922L2.53875 148.685L10.6363 152.977L2.96176 157.618L10.3717 161.399L4.31262 167.732L13.0147 168.78L7.31596 176.12L14.8665 176.065L9.75868 182.941L17.5495 183.558L12.9222 191.776L21.0636 191.258L17.6181 198.547L24.6631 196.025L20.5867 203.667L27.8554 201.064L24.1228 208.961L32.8452 205.838L30.1122 214.765L37.7164 212.042L36.2368 219.89L44.7357 216.846L44.456 226.283L52.2023 221.491L51.6823 230.256L58.5174 225.033L59.2041 233.997L64.5673 226.778L65.7814 235.806L71.505 229.593L72.7826 238.093L78.6415 231.201L81.6849 239.7L85.3458 231.954L89.1636 239.797L92.6892 232.731L98.7602 240.524L101.59 232.572L107.78 238.935L111.169 230.782L118.476 236.745L119.133 229.066L126.192 233.982L125.731 226.703L134.691 230.938L131.968 223.334L140.321 227.282L137.598 219.678L145.951 223.626L143.308 216.245L150.598 219.691L148.155 212.869L155.141 216.172L152.218 208.008L162.19 208.727L158.716 201.139L168.216 200.892L164.215 193.24L173.379 193.113L167.997 187.596L176.608 184.513L170.221 181.122L179.838 177.678L173.004 174.448L181.279 171.485L174.692 167.535L183.079 164.532L175.941 161.158L183.976 157.524L176.319 154.462L184.08 148.655L176.471 146.08L183.465 139.538L174.88 135.295L181.522 128.122L172.883 126.547L178.158 118.728L169.56 117.265L174.164 109.687L167.598 111.786L171.402 103.736L163.798 106.459L167.746 98.1064L160.253 100.789L162.451 91.423L155.182 94.0258L156.39 85.771L149.792 88.1336L149.289 78.9772L141.885 82.2594ZM141.885 82.2594L145.267 75.4969" stroke="black" stroke-width="0.1"/>
<path d="M33.9344 238.545L18.8451 238.24L24.9418 231.686L10.9197 231.686L18.083 224.523L5.58484 224.523L12.1388 217.969L0.250212 217.969L7.41384 210.805L-3.86501 210.805L2.53647 204.403L-7.82784 204.403L-1.42634 196.63L-12.0955 196.63L-3.86501 189.619L-16.8205 185.808L-7.82784 180.626L-18.8019 173.005L-10.8762 165.994L-20.4785 163.098L-12.0955 157.764L-21.393 153.801L-12.0955 148.923L-21.3929 143.284L-10.8762 142.217L-20.4785 132.615L-10.8762 132.615L-18.8019 124.689L-9.19963 124.689L-16.8205 117.068L-6.30371 117.068L-13.7721 109.6L-3.86501 109.6L-10.8762 102.589L-1.42634 102.589L-7.82784 96.1872L2.53647 96.1872L-3.86501 89.7858L7.41384 89.7858L1.16473 82.6221L12.1388 82.6221L6.19449 76.0682L18.083 76.0682L13.3581 68.1425L25.2466 70.124L22.8079 59.7596L33.9344 62.9604L31.6481 53.3581L41.098 58.5403L41.098 47.7187L47.9567 54.5774L47.9567 44.5179C49.9381 47.2106 53.901 51.9863 53.901 51.9863L53.901 41.4696L62.5887 49.3953L64.875 38.1164L72.6483 45.4324L77.678 35.3729L82.7078 45.4324L89.1093 35.3729L92.31 44.5179L98.4067 35.3729L102.522 44.5179L110.448 35.3729L113.344 45.4324L120.66 38.1164L120.66 47.7187L128.128 39.4882L128.128 49.3953L136.054 41.4696L136.054 53.3581L145.656 46.1945L145.656 56.5589L154.496 51.3767L154.496 62.9604L165.775 58.5403L163.336 69.9715L173.701 65.5514L170.347 76.0682L181.474 73.0199L175.072 82.6221L186.504 80.1835L181.474 89.7857L192.295 87.6519L186.504 97.7114L198.087 97.7114L190.314 105.485L201.44 106.704L194.429 114.02L206.47 117.983L198.087 124.842L208.452 129.567L200.069 137.187L210.433 143.436L201.44 147.552L210.433 153.953L201.44 156.544L210.433 165.537L200.069 165.537L208.452 173.92L198.087 173.92L206.47 182.303L196.41 182.303L203.727 189.619L194.429 189.619L201.44 196.63L190.314 196.63L195.496 208.366L184.827 207.452L188.637 219.035L177.663 217.511L181.474 228.637L172.481 224.523L172.481 236.258L165.623 230.009L165.623 243.117L158.764 236.258L158.764 247.537L151.143 241.288L151.143 252.719L143.979 245.556L143.065 256.835L136.054 248.909L132.396 260.797L125.994 252.719L121.117 263.998L112.277 255.463L106.485 266.589L100.845 256.835L93.6818 266.589L88.1948 256.835L81.0312 265.675L80.7264 256.835L72.6483 264.913L72.6483 254.548L64.2653 262.931L64.2653 252.719L53.901 259.426L53.901 249.519L44.4511 254.548L44.4511 245.556L33.1723 248.909L33.9344 238.545ZM33.9344 238.545L27.228 245.556" stroke="black" stroke-width="0.1"/>
<path d="M171.774 77.7392L169.219 62.8929L163.662 69.8889L161.567 56.0503L155.568 64.19L153.701 51.8554L148.212 59.3026L146.436 47.5696L140.436 55.7097L138.751 44.5784L133.39 51.8524L131.842 41.6238L125.127 49.1027L123.533 38.5732L117.843 47.7434L112.147 35.5267L108.376 45.1758L99.2157 35.4838L93.4804 44.3532L89.1881 35.3092L85.1757 44.3794L79.8758 35.7956L76.4514 45.7L69.4969 37.3667L70.0152 47.9053L59.1042 39.8631L60.5387 49.3397L51.5329 42.7017L52.9674 52.1784L44.3079 45.7957L45.8791 56.1749L37.3928 49.9199L38.8728 59.6974L30.9062 53.8253L32.3179 63.1515L25.044 57.7901L26.5923 68.0188L19.3184 62.6574L21.0034 73.7886L13.0001 68.6915L14.6395 79.5219L7.28347 74.6345L9.05953 86.3675L0.531862 82.8884L4.26337 94.3253L-6.32945 93.4669L-1.50843 103.97L-11.3264 103.148L-4.8004 111.7L-15.4801 113.316L-7.68664 119.061L-17.6143 120.564C-14.6609 122.117 -9.35575 125.314 -9.35575 125.314L-19.7346 126.885L-10.615 134.275L-21.4044 138.217L-13.023 144.795L-22.1993 151.262L-11.5202 154.723L-20.4916 162.544L-10.9883 164.336L-19.1026 171.72L-9.46267 174.415L-17.3038 183.603L-6.94347 184.958L-13.0706 193.271L-3.59423 191.837L-10.6011 200.437L-0.823892 198.957L-7.46164 207.963L4.27104 206.187L-1.36417 216.734L8.86434 215.186L5.07074 224.684L16.5026 222.954L13.8254 234.745L24.7425 230.631L21.9287 241.52L31.8067 236.639L30.4605 248.076L38.9806 240.323L38.2816 251.969L47.0066 245.571L46.5174 256.57L55.5798 249.351L57.3104 260.783L63.8205 251.95L66.686 262.749L72.8587 254.737L78.5684 266.028L84.0849 256.73L90.2962 266.253L96.5649 256.841L104.28 266.136L106.998 256.647L114.659 264.565L115.873 255.303L126.091 262.835L124.543 252.606L134.068 259.627L132.52 249.398L142.045 256.419L140.542 246.491L148.856 252.619L147.467 243.443L155.433 249.315L153.771 238.334L166.127 241.695L163.631 231.302L175.632 233.332L172.488 222.73L184.038 224.828L178.634 216.568L190.216 214.815L183.024 208.979L195.96 207.021L188.167 201.277L199.298 199.592L191.992 193.004L203.273 191.296L195.133 185.297L206.128 182.709L197.259 176.974L208.445 171.588L199.516 166.477L209.919 159.978L200.175 152.529L210.29 145.151L199.821 141.042L208.377 132.515L197.931 128.557L205.585 120.167L196.815 121.187L203.58 112.007L193.352 113.556L200.373 104.03L190.294 105.556L195.365 94.3251L185.587 95.8051L189.139 85.7275L180.265 87.0709L181.889 75.4387L171.774 77.7392ZM171.774 77.7392L177.692 70.0732" stroke="black" stroke-width="0.1"/>
<path d="M48.4461 246.928L33.4952 248.989L38.4906 241.561L24.6415 243.757L30.595 235.56L18.2509 237.517L23.698 230.018L11.956 231.879L17.9098 223.682L6.77006 225.448L12.0904 218.123L1.8539 219.746L6.95953 211.066L-3.57809 212.736L3.45329 204.523L-9.939 202.788L-1.86852 196.262L-13.9004 190.453L-7.17001 182.287L-17.1073 180.931L-9.66284 174.349L-19.466 171.891L-11.0468 165.618L-21.1125 161.504L-10.8924 158.804L-21.8796 150.823L-12.3957 149.32L-21.4645 142.732L-11.9806 141.229L-20.7006 134.895L-10.3135 133.249L-18.859 127.042L-9.07408 125.491L-17.0964 119.664L-7.76311 118.184L-15.0879 112.864L-4.85135 111.241L-12.1761 105.921L-1.03631 104.155L-8.32986 98.0583L2.50885 96.3403L-4.38818 90.7978L7.35376 88.9365L1.44628 81.8483L13.4984 81.9441L9.46721 72.0893L20.9576 73.5087L17.1962 64.3828L27.3408 68.0216L25.6467 57.3335L33.4946 63.0339L31.9197 53.0984C34.2983 55.4477 38.9599 59.5442 38.9599 59.5442L37.3135 49.1571L47.1349 55.6249L47.6272 44.1272L56.45 50.1361L59.8428 39.4132L66.3854 48.5612L71.1331 37.6236L75.7261 46.1547L80.3159 36.168L85.8121 44.556L92.2084 34.2829L96.6435 43.765L102.724 35.3939L104.227 44.8777L110.315 35.5795L111.866 45.3644L118.453 36.2957L120.314 48.0376L128.677 39.4591L130.299 49.6956L138.219 43.1934L140.033 54.6342L150.48 48.5029L149.861 60.175L159.406 54.1868L157.741 65.0988L168.253 60.3462L163.433 70.8322L174.342 66.634L170.877 76.9053L181.231 73.1036L177.086 83.9458L188.527 82.1324L182.066 91.0268L193.246 90.4891L187.467 98.8125L199.98 100.841L192.774 108.928L203.75 111.972L196.664 120.811L207.879 125.361L199.641 130.833L209.525 135.748L201.049 139.715L211.339 147.189L201.102 148.811L210.694 155.778L200.458 157.401L210.05 164.368L200.114 165.943L208.485 172.024L199.302 173.479L207.325 179.306L196.336 181.048L203.291 191.828L192.61 192.595L198.187 203.44L187.11 203.652L192.615 214.045L183.089 211.388L184.927 222.98L177.174 217.881L179.226 230.828L171.378 225.127L173.144 236.267L164.639 231.288L166.428 242.578L158.232 236.624L159.094 247.907L150.929 241.177L149.177 253.492L141.59 246.515L138.538 258.419L128.471 251.373L124.492 263.269L117.395 254.517L111.847 265.273L104.901 256.498L99.2095 266.35L97.5245 257.667L90.8107 266.91L89.1881 256.673L82.2209 266.265L80.6222 256.179L71.4355 264.426L69.8845 254.641L61.3386 261.088L59.9308 252.206L49.316 257.284L48.4461 246.928ZM48.4461 246.928L42.9201 254.902" stroke="black" stroke-width="0.1"/>
<path d="M159.411 66.5258L154.564 52.2626L150.17 60.0424L145.935 46.7024L141.284 55.6809L137.509 43.7907L133.253 52.0054L129.662 40.6951L125.011 49.6741L121.604 38.9439L117.448 46.9675L114.317 37.1074L108.856 45.5454L105.633 35.3952L101.449 45.3431L93.9108 34.1688L91.6973 44.2892L81.1323 36.1509L76.8563 45.8088L71.201 37.5483L68.658 47.1348L62.0797 39.4866L60.2481 49.805L52.0747 42.6632L54.2365 52.9907L42.201 46.7558L45.1015 55.891L35.1674 50.7448L38.0679 59.88L28.516 54.9317L31.6926 64.9369L22.3318 60.0876L25.3243 69.5128L16.5365 64.9604L19.3909 73.9506L11.3673 69.7941L14.4979 79.6542L6.47435 75.4977L9.8812 86.2279L1.1786 82.4465L4.49338 92.8868L-3.53711 89.2113L0.0538993 100.521L-8.91328 98.4203L-3.43727 109.132L-14.0339 109.943L-7.62806 119.561L-17.4536 120.286L-9.66923 127.711L-19.9642 130.98L-11.3675 135.433L-20.9375 138.472C-17.7773 139.544 -12.037 141.871 -12.037 141.871L-22.0419 145.048L-11.8778 150.919L-21.9172 156.501L-12.6092 161.686L-20.6599 169.51L-9.57067 171.256L-17.207 180.385L-7.54026 180.668L-14.3987 189.23L-4.45568 190.383L-10.7616 200.685L-0.316925 200.402L-5.06706 209.572L4.06791 206.671L-1.50618 216.263L7.9188 213.27L2.77284 223.204L14.0828 219.613L10.1682 230.912L20.0282 227.782L17.7684 237.757L28.7884 234.258L27.9903 246.324L38.1286 240.551L37.0543 251.746L46.0464 245.379L46.5072 256.885L53.7086 247.895L54.8415 259.507L62.4572 251.821L63.6959 262.761L71.5165 254.212L75.0154 265.233L80.0624 255.489L84.5832 265.706L89.4254 256.827L96.8324 267.085L100.825 257.038L108.451 265.471L113.169 255.194L122.244 263.167L123.443 253.368L132.249 259.99L131.998 250.652L143.269 256.491L140.139 246.631L150.646 252.074L147.515 242.214L158.022 247.657L154.984 238.087L164.154 242.837L161.345 233.992L170.133 238.544L166.772 227.959L179.502 229.344L175.41 219.47L187.581 219.597L182.816 209.617L194.552 209.881L187.921 202.569L199.086 199.024L191.069 194.386L203.539 190.427L194.942 185.974L205.672 182.567L197.425 177.204L208.3 173.752L199.321 169.1L209.775 164.823L200.117 160.547L210.322 153.476L200.704 149.826L209.96 141.779L199.17 135.947L208.006 127.076L197.022 124.658L204.138 114.896L193.201 112.622L199.447 103.137L190.945 105.517L196.19 95.3921L186.33 98.5226L191.773 88.0154L182.058 91.0999L185.307 79.2141L175.882 82.2065L177.813 71.6971L169.258 74.4133L169.041 62.6703L159.411 66.5258ZM159.411 66.5258L164.056 58.028" stroke="black" stroke-width="0.1"/>
<path d="M51.9845 248.538L37.1186 251.142L41.8402 243.538L28.0802 246.236L33.7313 237.828L21.4667 240.233L26.637 232.54L14.9706 234.828L20.6219 226.42L9.55387 228.59L14.6039 221.076L4.43331 223.071L9.21945 214.211L-1.25035 216.264L5.47726 207.8L-7.96936 206.553L-0.141888 199.738L-12.3773 194.371L-5.9488 185.966L-15.9289 184.972L-8.72906 178.124L-18.6153 176.024L-10.4301 169.449L-20.6389 165.704L-10.524 162.633L-21.7945 155.058L-12.3716 153.21L-21.6743 146.958L-12.2515 145.11L-21.1963 139.098L-10.8761 137.074L-19.642 131.183L-9.92004 129.276L-18.1493 123.745L-8.87603 121.927L-16.3897 116.877L-6.21906 114.882L-13.7327 109.832L-2.66461 107.662L-10.1754 101.835L0.593587 99.7231L-6.50071 94.4355L5.16565 92.1479L-0.996052 85.2795L11.0516 84.9363L6.66415 75.2349L18.1986 76.2349L14.1074 67.252L24.3778 70.519L22.2955 59.8996L30.3458 65.3104L28.4102 55.4389C30.8727 57.7 35.6804 61.624 35.6804 61.624L33.6568 51.3038L43.7072 57.4096L43.7805 45.9016L52.8162 51.5852L55.8163 40.7458L62.6878 49.6495L67.034 38.5462L71.9346 46.9044L76.1577 36.7572L81.9557 44.9394L87.9736 34.4403L92.751 43.7546L98.5226 35.1675L100.37 44.5903L106.115 35.0766L108.022 44.7985L114.274 35.4959L116.562 47.1623L124.606 38.2849L126.601 48.4555L134.278 41.6692L136.507 53.0364L146.725 46.5286L146.531 58.2155L155.851 51.8837L154.585 62.8491L164.917 57.7168L160.482 68.3714L171.231 63.7787L168.143 74.1694L178.351 69.9931L174.603 80.9791L185.971 78.7502L179.838 87.874L190.992 86.9295L185.519 95.4579L198.098 97.0297L191.191 105.373L202.271 108.016L195.511 117.107L206.884 121.245L198.851 127.014L208.908 131.565L200.582 135.838L211.137 142.933L200.966 144.927L210.805 151.54L200.635 153.534L210.474 160.148L200.602 162.083L209.19 167.855L200.066 169.644L208.295 175.175L197.377 177.316L204.72 187.835L194.074 188.991L200.043 199.625L188.98 200.241L194.861 210.426L185.244 208.119L187.502 219.635L179.569 214.823L182.092 227.685L174.041 222.275L176.212 233.343L167.531 228.677L169.73 239.894L161.322 234.243L162.595 245.487L154.19 239.059L152.888 251.429L145.051 244.734L142.436 256.74L132.118 250.065L128.576 262.098L121.164 253.611L116.012 264.562L108.75 256.045L103.422 266.099L101.421 257.482L95.0487 266.964L93.0544 256.793L86.4412 266.633L84.4762 256.611L75.5959 265.187L73.6896 255.465L65.3842 262.219L63.6538 253.394L53.231 258.855L51.9845 248.538ZM51.9845 248.538L46.7526 256.708" stroke="black" stroke-width="0.1"/>
<path d="M156.306 64.2144L150.942 50.1372L146.835 58.0718L142.116 44.8949L137.796 54.0368L133.59 42.292L129.637 50.6562L125.636 39.4842L121.315 48.6266L117.52 38.0276L113.658 46.1973L110.171 36.4577L105.02 45.089L101.43 35.0629L97.611 45.1566L89.6706 34.2643L87.8271 44.4586L76.9728 36.7104L73.0513 46.5177L67.099 38.4686L64.9068 48.1414L58.0543 40.7378L56.5996 51.116L48.1716 44.2766L50.7081 54.5185L38.4535 48.7261L41.6847 57.7496L31.5699 52.9686L34.8011 61.9921L25.0753 57.395L28.6142 67.2778L19.083 62.7727L22.4167 72.0827L13.469 67.8533L16.6489 76.7336L8.47928 72.872L11.9669 82.6116L3.79729 78.75L7.59265 89.3491L-1.24189 85.8871L2.45091 96.1997L-5.70811 92.8191L-1.70758 103.991L-10.7453 102.218L-4.88285 112.723L-15.4429 113.919L-8.69105 123.298L-18.4837 124.38L-10.4341 131.517L-20.6032 135.158L-11.85 139.296L-21.3029 142.681C-18.1058 143.637 -12.2846 145.754 -12.2846 145.754L-22.1672 149.292L-11.7959 154.79L-21.6254 160.733L-12.1348 165.576L-19.8952 173.688L-8.74972 175.029L-16.0486 184.43L-6.3779 184.361L-12.9199 193.167L-2.94156 193.957L-8.86814 204.482L1.55932 203.819L-2.8537 213.155L6.16958 209.924L0.948481 219.712L10.2582 216.378L5.47746 226.493L16.6491 222.493L13.1487 233.927L22.8881 230.439L20.9931 240.491L31.8784 236.593L31.5201 248.679L41.4415 242.541L40.7756 253.768L49.5299 247.078L50.4094 258.559L57.2786 249.313L58.8336 260.875L66.1644 252.918L67.8007 263.805L75.3047 254.977L79.2027 265.863L83.8916 255.942L88.7814 265.988L93.297 256.938L101.073 266.919L104.697 256.734L112.625 264.883L116.965 254.441L126.325 262.078L127.166 252.243L136.208 258.539L135.617 249.217L147.093 254.642L143.605 244.902L154.304 249.959L150.816 240.219L161.514 245.276L158.129 235.823L167.466 240.236L164.338 231.499L173.285 235.728L169.541 225.272L182.313 226.193L177.864 216.475L190.031 216.158L184.906 206.358L196.644 206.195L189.751 199.129L200.779 195.18L192.599 190.837L204.917 186.427L196.163 182.289L206.762 178.494L198.325 173.435L209.067 169.589L199.925 165.267L210.216 160.613L200.409 156.691L210.35 149.253L200.605 145.956L209.562 137.577L198.567 132.142L207.073 122.955L196.009 120.938L202.765 110.924L191.752 109.05L197.649 99.3433L189.239 102.032L194.112 91.7221L184.372 95.2096L189.429 84.5112L179.833 87.9474L182.647 75.9511L173.337 79.2848L174.884 68.712L166.434 71.738L165.789 60.0107L156.306 64.2144ZM156.306 64.2144L160.638 55.553" stroke="black" stroke-width="0.1"/>
<path d="M17.1153 263.727L-2.34024 263.334L5.52059 254.884L-12.5589 254.884L-3.32282 245.648L-19.4375 245.648L-10.9871 237.197L-26.3157 237.197L-17.0792 227.961L-31.6217 227.961L-23.3679 219.707L-36.7313 219.707L-28.4774 209.684L-42.2338 209.684L-31.6217 200.645L-48.326 195.731L-36.7313 189.05L-50.8808 179.224L-40.6617 170.184L-53.0425 166.45L-42.2338 159.572L-54.2216 154.462L-42.2338 148.173L-54.2216 140.902L-40.6617 139.527L-53.0425 127.146L-40.6617 127.146L-50.8808 116.927L-38.5 116.927L-48.326 107.101L-34.7661 107.101L-44.3956 97.4711L-31.6217 97.4711L-40.6617 88.4312L-28.4774 88.4312L-36.7313 80.1774L-23.3679 80.1774L-31.6217 71.9236L-17.0792 71.9236L-25.1366 62.6871L-10.9871 62.6871L-18.6514 54.2367L-3.32282 54.2367L-9.41497 44.0176L5.91363 46.5724L2.76928 33.209L17.1153 37.336L14.1675 24.9552L26.3517 31.6369L26.3517 17.6839L35.1951 26.5273L35.1951 13.557C37.7499 17.0289 42.8594 23.1865 42.8594 23.1865L42.8594 9.62663L54.0611 19.8457L57.0089 5.30317L67.0314 14.7361L73.5166 1.76581L80.0018 14.7361L88.2556 1.76581L92.3825 13.557L100.243 1.76581L105.549 13.557L115.768 1.76581L119.502 14.7361L128.935 5.30317L128.935 17.6839L138.565 7.07184L138.565 19.8457L148.784 9.62663L148.784 24.9552L161.165 15.7187L161.165 29.0821L172.563 22.4004L172.563 37.336L187.105 31.6369L183.961 46.3759L197.324 40.6768L193.001 54.2367L207.347 50.3063L199.093 62.6871L213.832 59.5427L207.347 71.9235L221.3 69.1722L213.832 82.1426L228.768 82.1426L218.745 92.1652L233.091 93.7372L224.051 103.17L239.576 108.28L228.768 117.123L242.131 123.215L231.322 133.041L244.686 141.099L233.091 146.405L244.686 154.658L233.091 157.999L244.686 169.594L231.322 169.594L242.131 180.403L228.768 180.403L239.576 191.211L226.606 191.211L236.039 200.645L224.051 200.645L233.091 209.684L218.745 209.684L225.427 224.816L211.67 223.637L216.583 238.573L202.434 236.607L207.347 250.953L195.752 245.648L195.752 260.779L186.909 252.722L186.909 269.623L178.065 260.779L178.065 275.322L168.239 267.265L168.239 282.004L159.003 272.767L157.824 287.31L148.784 277.091L144.067 292.419L135.813 282.004L129.525 296.546L118.127 285.541L110.659 299.887L103.388 287.31L94.1512 299.887L87.0765 287.31L77.84 298.708L77.447 287.31L67.0314 297.725L67.0314 284.362L56.2228 295.17L56.2228 282.004L42.8594 290.65L42.8594 277.877L30.6752 284.362L30.6752 272.767L16.1327 277.091L17.1153 263.727ZM17.1153 263.727L8.46837 272.767" stroke="black" stroke-width="0.1"/>
<path d="M194.84 56.3912L191.546 37.249L184.381 46.2693L181.68 28.4264L173.945 38.9214L171.537 23.0176L164.46 32.6198L162.17 17.4918L154.435 27.9872L152.262 13.635L145.349 23.0139L143.353 9.82539L134.695 19.4685L132.64 5.89209L125.304 17.7158L117.959 1.9641L113.098 14.4052L101.286 1.90884L93.8916 13.3447L88.3572 1.68364L83.1837 13.3784L76.3503 2.31084L71.935 15.0812L62.9681 4.33656L63.6364 17.9245L49.5683 7.55526L51.4179 19.7741L39.806 11.2153L41.6556 23.4341L30.4905 15.2045L32.5162 28.587L21.5744 20.5221L23.4827 33.1288L13.2108 25.5576L15.031 37.5824L5.65231 30.6696L7.64869 43.8581L-1.72999 36.9453L0.442551 51.2975L-9.87658 44.7254L-7.76276 58.6897L-17.2474 52.3881L-14.9574 67.5161L-25.9526 63.0303L-21.1413 77.7767L-34.7993 76.6698L-28.5833 90.2116L-41.2421 89.1519L-32.8278 100.179L-46.5978 102.263L-36.5492 109.67L-49.3495 111.607C-45.5415 113.61 -38.7013 117.733 -38.7013 117.733L-52.0834 119.758L-40.3249 129.287L-54.2364 134.368L-43.4298 142.851L-55.2612 151.189L-41.4921 155.651L-53.0593 165.735L-40.8062 168.046L-51.2685 177.566L-38.8391 181.041L-48.9491 192.888L-35.591 194.635L-43.4911 205.354L-31.2726 203.504L-40.307 214.593L-27.7007 212.685L-36.2591 224.297L-21.1315 222.007L-28.3973 235.605L-15.209 233.609L-20.1003 245.856L-5.36059 243.625L-8.81243 258.829L5.26365 253.524L1.63565 267.563L14.3719 261.271L12.6362 276.016L23.6216 266.021L22.7204 281.037L33.9701 272.787L33.3393 286.968L45.0241 277.661L47.2553 292.401L55.6492 281.012L59.3439 294.935L67.3027 284.605L74.6646 299.163L81.7774 287.175L89.786 299.453L97.8685 287.318L107.817 299.303L111.321 287.067L121.199 297.277L122.764 285.335L135.939 295.046L133.942 281.858L146.224 290.91L144.227 277.722L156.509 286.774L154.571 273.973L165.29 281.874L163.499 270.043L173.771 277.614L171.628 263.456L187.56 267.79L184.341 254.389L199.815 257.007L195.761 243.336L210.653 246.042L203.685 235.391L218.618 233.131L209.345 225.607L226.025 223.082L215.976 215.676L230.328 213.503L220.908 205.009L235.454 202.807L224.959 195.072L239.135 191.735L227.699 184.34L242.122 177.396L230.61 170.806L244.022 162.427L231.459 152.822L244.501 143.309L231.002 138.012L242.035 127.017L228.565 121.914L238.434 111.096L227.127 112.41L235.85 100.575L222.662 102.572L231.714 90.2897L218.72 92.2567L225.257 77.7764L212.65 79.6847L217.23 66.691L205.788 68.4232L207.882 53.4251L194.84 56.3912ZM194.84 56.3912L202.47 46.507" stroke="black" stroke-width="0.1"/>
<path d="M35.8258 274.536L16.5486 277.194L22.9896 267.617L5.13304 270.448L12.8093 259.879L-3.10666 262.402L3.91656 252.733L-11.223 255.133L-3.54646 244.564L-17.9096 246.841L-11.0498 237.397L-24.2483 239.489L-17.6653 228.298L-31.2521 230.451L-22.1861 219.861L-39.4536 217.624L-29.0479 209.21L-44.5612 201.72L-35.8834 191.191L-48.6961 189.442L-39.0976 180.956L-51.7374 177.787L-40.882 169.699L-53.8602 164.394L-40.6829 160.912L-54.8493 150.623L-42.6212 148.684L-54.3141 140.191L-42.086 138.253L-53.3292 130.086L-39.9365 127.963L-50.9548 119.96L-38.3384 117.96L-48.6821 110.447L-36.6481 108.54L-46.0924 101.68L-32.8938 99.5876L-42.338 92.7277L-27.9749 90.451L-37.3789 82.5899L-23.4039 80.3747L-32.2966 73.2284L-17.157 70.8286L-24.7739 61.6893L-9.23436 61.8128L-14.432 49.1065L0.383152 50.9366L-4.46659 39.17L8.61349 43.8618L6.42909 30.0809L16.5479 37.4308L14.5174 24.6204C17.5842 27.6495 23.5947 32.9313 23.5947 32.9313L21.4718 19.5386L34.1352 27.878L34.7699 13.0533L46.1457 20.8009L50.5203 6.9752L58.9561 18.7703L65.0775 4.66773L70.9995 15.6674L76.9174 2.791L84.004 13.6061L92.2511 0.360469L97.9695 12.5863L105.809 1.79288L107.748 14.021L115.597 2.03219L117.597 14.6485L126.09 2.95564L128.49 18.0952L139.272 7.03435L141.364 20.233L151.576 11.8492L153.914 26.6006L167.385 18.6951L166.587 33.7446L178.893 26.0237L176.746 40.0932L190.299 33.9654L184.086 47.4856L198.151 42.0726L193.684 55.316L207.034 50.4143L201.689 64.3938L216.44 62.0556L208.11 73.5237L222.526 72.8304L215.074 83.5623L231.207 86.1783L221.917 96.6048L236.069 100.53L226.932 111.927L241.392 117.793L230.771 124.848L243.515 131.185L232.586 136.3L245.853 145.937L232.654 148.029L245.022 157.012L231.823 159.104L244.191 168.087L231.38 170.118L242.174 177.958L230.334 179.835L240.678 187.348L226.509 189.594L235.477 203.493L221.705 204.482L228.896 218.464L214.613 218.738L221.712 232.138L209.429 228.713L211.798 243.658L201.803 237.085L204.448 253.777L194.33 246.427L196.606 260.79L185.64 254.371L187.948 268.928L177.379 261.252L178.491 275.799L167.963 267.122L165.704 282.999L155.922 274.005L151.987 289.352L139.007 280.267L133.877 295.605L124.726 284.322L117.573 298.19L108.616 286.875L101.278 299.579L99.1055 288.383L90.449 300.3L88.3569 287.102L79.3737 299.469L77.3123 286.465L65.4674 297.097L63.4676 284.481L52.4489 292.794L50.6337 281.342L36.9474 287.889L35.8258 274.536ZM35.8258 274.536L28.7007 284.818" stroke="black" stroke-width="0.1"/>
<path d="M178.9 41.9331L172.649 23.5426L166.985 33.5735L161.524 16.3735L155.527 27.95L150.659 12.6192L145.173 23.211L140.543 8.62798L134.546 20.2051L130.153 6.36996L124.794 16.7154L120.757 4.00205L113.716 14.8817L109.56 1.79446L104.166 14.6209L94.4461 0.213208L91.5921 13.2621L77.97 2.76886L72.4568 15.2214L65.1651 4.57056L61.8862 16.9311L53.4044 7.06977L51.0427 20.3739L40.5044 11.1656L43.2916 24.4813L27.7736 16.4424L31.5133 28.221L18.7048 21.5856L22.4445 33.3642L10.1286 26.9841L14.2245 39.8844L2.15494 33.6319L6.01338 45.7844L-5.3172 39.9147L-1.63687 51.5063L-11.9822 46.147L-7.9457 58.8603L-18.291 53.501L-13.8983 67.3361L-25.1191 62.4606L-20.8451 75.9218L-31.1993 71.1827L-26.5692 85.7657L-38.1312 83.0566L-31.0706 96.8679L-44.7334 97.9129L-36.474 110.315L-49.1427 111.25L-39.1059 120.823L-52.3798 125.038L-41.2955 130.78L-53.6347 134.697C-49.5601 136.079 -42.1587 139.08 -42.1587 139.08L-55.0587 143.176L-41.9535 150.746L-54.8979 157.943L-42.8966 164.629L-53.2768 174.716L-38.9788 176.968L-48.8248 188.738L-36.3608 189.103L-45.2038 200.143L-32.3837 201.629L-40.5144 214.913L-27.0474 214.547L-33.172 226.371L-21.3937 222.631L-28.5807 234.998L-16.4285 231.139L-23.0636 243.948L-8.48094 239.318L-13.5282 253.886L-0.815165 249.85L-3.72881 262.712L10.4799 258.201L9.45081 273.757L22.5228 266.314L21.1375 280.749L32.7316 272.54L33.3258 287.375L42.6109 275.783L44.0717 290.755L53.891 280.845L55.4882 294.951L65.5717 283.929L70.0831 298.138L76.5906 285.575L82.4194 298.749L88.6628 287.299L98.2131 300.526L103.361 287.572L113.193 298.445L119.277 285.194L130.978 295.474L132.524 282.84L143.878 291.378L143.554 279.338L158.087 286.867L154.05 274.153L167.598 281.171L163.561 268.458L177.109 275.476L173.191 263.137L185.015 269.262L181.394 257.857L192.724 263.727L188.391 250.079L204.804 251.865L199.528 239.134L215.22 239.296L209.077 226.429L224.209 226.77L215.659 217.341L230.054 212.771L219.718 206.791L235.796 201.687L224.712 195.944L238.547 191.552L227.913 184.638L241.935 180.186L230.358 174.188L243.837 168.674L231.384 163.16L244.542 154.043L232.141 149.337L244.076 138.962L230.163 131.442L241.556 120.004L227.394 116.886L236.569 104.3L222.467 101.368L230.521 89.1381L219.558 92.207L226.321 79.152L213.608 83.1884L220.626 69.6409L208.1 73.6179L212.289 58.2928L200.137 62.1511L202.626 48.6007L191.596 52.1028L191.316 36.9618L178.9 41.9331ZM178.9 41.9331L184.888 30.9762" stroke="black" stroke-width="0.1"/>
<path d="M40.3883 276.612L21.2207 279.97L27.3086 270.165L9.56702 273.644L16.8533 262.803L1.03978 265.904L7.70621 255.986L-7.33596 258.935L-0.0493584 248.094L-14.3201 250.892L-7.80873 241.205L-20.9223 243.776L-14.7513 232.352L-28.2506 234.999L-19.5763 224.086L-36.9138 222.479L-26.8214 213.692L-42.5973 206.772L-34.3086 195.934L-47.1765 194.653L-37.8934 185.823L-50.6403 183.116L-40.0866 174.638L-53.2495 169.809L-40.2076 165.85L-54.7394 156.083L-42.59 153.701L-54.5845 145.639L-42.435 143.257L-53.9682 135.505L-40.6617 132.896L-51.9641 125.299L-39.429 122.841L-50.0394 115.71L-38.0829 113.365L-47.7707 106.854L-34.6571 104.282L-44.3448 97.771L-30.0741 94.9727L-39.7582 87.4592L-25.8731 84.7365L-35.0202 77.9189L-19.9781 74.9693L-27.9227 66.1135L-12.389 65.671L-18.046 53.1624L-3.17397 54.4517L-8.44901 42.8696L4.79326 47.0819L2.10843 33.3897L12.4882 40.3662L9.99247 27.6382C13.1675 30.5536 19.3664 35.613 19.3664 35.613L16.7572 22.3065L29.7159 30.1792L29.8103 15.3412L41.4607 22.6694L45.3289 8.69355L54.1886 20.1736L59.7925 5.85747L66.1111 16.6342L71.5562 3.55078L79.0319 14.1006L86.7911 0.56344L92.951 12.5729L100.393 1.50112L102.775 13.6505L110.182 1.38383L112.64 13.9189L120.702 1.92453L123.652 16.9666L134.024 5.52047L136.595 18.6341L146.495 9.88406L149.369 24.5405L162.543 16.1496L162.293 31.2182L174.31 23.0543L172.677 37.1927L185.998 30.5753L180.281 44.3129L194.14 38.3912L190.158 51.7885L203.321 46.4038L198.488 60.5688L213.145 57.6949L205.238 69.4587L219.618 68.2409L212.562 79.2371L228.781 81.2638L219.876 92.0217L234.162 95.4286L225.446 107.151L240.11 112.486L229.753 119.924L242.719 125.793L231.984 131.302L245.593 140.449L232.479 143.02L245.166 151.547L232.052 154.119L244.738 162.646L232.01 165.141L243.082 172.583L231.319 174.89L241.929 182.021L227.851 184.782L237.32 198.345L223.593 199.835L231.288 213.546L217.025 214.34L224.607 227.473L212.208 224.497L215.12 239.346L204.891 233.141L208.143 249.726L197.763 242.75L200.562 257.02L189.369 251.004L192.205 265.468L181.364 258.181L183.005 272.679L172.168 264.39L170.489 280.34L160.385 271.707L157.012 287.188L143.709 278.582L139.142 294.097L129.586 283.153L122.942 297.273L113.58 286.292L106.709 299.255L104.13 288.145L95.9135 300.37L93.3421 287.256L84.8153 299.943L82.2817 287.022L70.8319 298.079L68.374 285.544L57.6653 294.252L55.4342 282.874L41.9954 289.915L40.3883 276.612ZM40.3883 276.612L33.6425 287.147" stroke="black" stroke-width="0.1"/>
<path d="M174.897 38.9529L167.98 20.8023L162.685 31.0328L156.601 14.0431L151.03 25.8304L145.607 10.687L140.51 21.4715L135.352 7.06684L129.78 18.8547L124.887 5.1887L119.908 15.7224L115.411 3.16453L108.77 14.2934L104.141 1.36617L99.2173 14.3805L88.9792 0.336411L86.6023 13.4805L72.6072 3.4904L67.5511 16.1354L59.8763 5.75724L57.0498 18.229L48.2144 8.6831L46.3389 22.0644L35.4722 13.246L38.7425 26.4514L22.942 18.9829L27.1082 30.6175L14.0665 24.453L18.2327 36.0876L5.69267 30.1602L10.2556 42.9028L-2.03361 37.094L2.26484 49.0979L-9.27198 43.6448L-5.17194 55.0946L-15.7056 50.1156L-11.2088 62.6735L-21.7423 57.6946L-16.8487 71.3605L-28.2396 66.8969L-23.4783 80.1935L-33.9982 75.8346L-28.8401 90.2393L-40.493 87.953L-32.9342 101.498L-46.5499 103.04L-37.8443 115.133L-50.4705 116.528L-40.0917 125.73L-53.2033 130.425L-41.9173 135.76L-54.1055 140.124C-49.9833 141.357 -42.4776 144.086 -42.4776 144.086L-55.2199 148.649L-41.8476 155.737L-54.5213 163.4L-42.2845 169.645L-52.2905 180.103L-37.9199 181.833L-47.3308 193.954L-34.8618 193.865L-43.2969 205.219L-30.4311 206.238L-38.0726 219.809L-24.6279 218.953L-30.3178 230.992L-18.6836 226.825L-25.4155 239.446L-13.4118 235.147L-19.576 248.189L-5.17166 243.031L-9.68504 257.773L2.87259 253.277L0.429291 266.236L14.4643 261.211L14.0024 276.794L26.7947 268.88L25.936 283.355L37.2235 274.73L38.3575 289.534L47.2143 277.611L49.2193 292.52L58.6713 282.259L60.7811 296.297L70.4565 284.915L75.4824 298.95L81.528 286.159L87.8328 299.112L93.655 287.442L103.681 300.312L108.354 287.18L118.575 297.688L124.172 284.224L136.24 294.071L137.325 281.389L148.982 289.508L148.22 277.488L163.017 284.482L158.521 271.924L172.315 278.444L167.818 265.886L181.612 272.406L177.247 260.218L189.286 265.908L185.252 254.643L196.789 260.096L191.961 246.615L208.429 247.802L202.692 235.271L218.38 234.862L211.772 222.227L226.906 222.017L218.019 212.906L232.238 207.814L221.691 202.215L237.573 196.528L226.287 191.194L239.952 186.3L229.074 179.778L242.925 174.818L231.137 169.246L244.406 163.245L231.761 158.188L244.578 148.598L232.013 144.347L243.563 133.544L229.386 126.536L240.354 114.691L226.088 112.09L234.799 99.1779L220.599 96.7618L228.202 84.2467L217.359 87.7128L223.642 74.4202L211.084 78.9169L217.604 65.1227L205.231 69.5533L208.859 54.0858L196.856 58.3841L198.85 44.752L187.954 48.6536L187.123 33.5328L174.897 38.9529ZM174.897 38.9529L180.482 27.7853" stroke="black" stroke-width="0.1"/>
</g>
<defs>
<clipPath id="clip0_101_70">
<rect width="300" height="189" fill="white" transform="translate(189) rotate(89.8599)"/>
</clipPath>
</defs>
</svg>
