<svg width="640" height="426" viewBox="0 0 640 426" fill="none" xmlns="http://www.w3.org/2000/svg">
<rect width="640" height="426" fill="#00D37F"/>
<path d="M191.16 282.12C191.16 279.88 191.6 277.92 192.48 276.24C193.387 274.56 194.627 273.267 196.2 272.36C197.8 271.453 199.613 271 201.64 271C203.933 271 205.88 271.56 207.48 272.68C209.08 273.8 210.2 275.227 210.84 276.96V271.28H212.64V293H210.84V287.28C210.2 289.04 209.067 290.493 207.44 291.64C205.84 292.76 203.907 293.32 201.64 293.32C199.613 293.32 197.8 292.867 196.2 291.96C194.627 291.027 193.387 289.72 192.48 288.04C191.6 286.333 191.16 284.36 191.16 282.12ZM210.84 282.12C210.84 280.227 210.44 278.56 209.64 277.12C208.867 275.653 207.8 274.533 206.44 273.76C205.08 272.96 203.56 272.56 201.88 272.56C200.12 272.56 198.573 272.947 197.24 273.72C195.907 274.467 194.867 275.56 194.12 277C193.373 278.44 193 280.147 193 282.12C193 284.093 193.373 285.8 194.12 287.24C194.867 288.68 195.907 289.787 197.24 290.56C198.6 291.333 200.147 291.72 201.88 291.72C203.56 291.72 205.08 291.333 206.44 290.56C207.827 289.76 208.907 288.64 209.68 287.2C210.453 285.733 210.84 284.04 210.84 282.12ZM218.074 282.12C218.074 279.853 218.514 277.88 219.394 276.2C220.301 274.52 221.541 273.24 223.114 272.36C224.714 271.453 226.541 271 228.594 271C231.314 271 233.541 271.68 235.274 273.04C237.034 274.4 238.127 276.227 238.554 278.52H236.674C236.327 276.653 235.421 275.187 233.954 274.12C232.514 273.053 230.727 272.52 228.594 272.52C226.994 272.52 225.541 272.88 224.234 273.6C222.927 274.293 221.874 275.373 221.074 276.84C220.301 278.28 219.914 280.04 219.914 282.12C219.914 284.227 220.301 286 221.074 287.44C221.874 288.88 222.927 289.96 224.234 290.68C225.541 291.4 226.994 291.76 228.594 291.76C230.727 291.76 232.514 291.227 233.954 290.16C235.421 289.093 236.327 287.627 236.674 285.76H238.554C238.127 288.027 237.034 289.853 235.274 291.24C233.514 292.627 231.287 293.32 228.594 293.32C226.541 293.32 224.714 292.867 223.114 291.96C221.541 291.053 220.301 289.76 219.394 288.08C218.514 286.373 218.074 284.387 218.074 282.12ZM253.142 279.04C253.142 276.32 253.755 273.88 254.982 271.72C256.209 269.533 257.875 267.827 259.982 266.6C262.115 265.373 264.475 264.76 267.062 264.76C270.102 264.76 272.755 265.493 275.022 266.96C277.289 268.427 278.942 270.507 279.982 273.2H275.622C274.849 271.52 273.729 270.227 272.262 269.32C270.822 268.413 269.089 267.96 267.062 267.96C265.115 267.96 263.369 268.413 261.822 269.32C260.275 270.227 259.062 271.52 258.182 273.2C257.302 274.853 256.862 276.8 256.862 279.04C256.862 281.253 257.302 283.2 258.182 284.88C259.062 286.533 260.275 287.813 261.822 288.72C263.369 289.627 265.115 290.08 267.062 290.08C269.089 290.08 270.822 289.64 272.262 288.76C273.729 287.853 274.849 286.56 275.622 284.88H279.982C278.942 287.547 277.289 289.613 275.022 291.08C272.755 292.52 270.102 293.24 267.062 293.24C264.475 293.24 262.115 292.64 259.982 291.44C257.875 290.213 256.209 288.52 254.982 286.36C253.755 284.2 253.142 281.76 253.142 279.04ZM294.96 293.36C292.907 293.36 291.04 292.893 289.36 291.96C287.707 291.027 286.4 289.707 285.44 288C284.507 286.267 284.04 284.267 284.04 282C284.04 279.76 284.52 277.787 285.48 276.08C286.467 274.347 287.8 273.027 289.48 272.12C291.16 271.187 293.04 270.72 295.12 270.72C297.2 270.72 299.08 271.187 300.76 272.12C302.44 273.027 303.76 274.333 304.72 276.04C305.707 277.747 306.2 279.733 306.2 282C306.2 284.267 305.694 286.267 304.68 288C303.694 289.707 302.347 291.027 300.64 291.96C298.934 292.893 297.04 293.36 294.96 293.36ZM294.96 290.16C296.267 290.16 297.494 289.853 298.64 289.24C299.787 288.627 300.707 287.707 301.4 286.48C302.12 285.253 302.48 283.76 302.48 282C302.48 280.24 302.134 278.747 301.44 277.52C300.747 276.293 299.84 275.387 298.72 274.8C297.6 274.187 296.387 273.88 295.08 273.88C293.747 273.88 292.52 274.187 291.4 274.8C290.307 275.387 289.427 276.293 288.76 277.52C288.094 278.747 287.76 280.24 287.76 282C287.76 283.787 288.08 285.293 288.72 286.52C289.387 287.747 290.267 288.667 291.36 289.28C292.454 289.867 293.654 290.16 294.96 290.16ZM330.426 271.08V293H326.786V289.76C326.093 290.88 325.12 291.76 323.866 292.4C322.64 293.013 321.28 293.32 319.786 293.32C318.08 293.32 316.546 292.973 315.186 292.28C313.826 291.56 312.746 290.493 311.946 289.08C311.173 287.667 310.786 285.947 310.786 283.92V271.08H314.386V283.44C314.386 285.6 314.933 287.267 316.026 288.44C317.12 289.587 318.613 290.16 320.506 290.16C322.453 290.16 323.986 289.56 325.106 288.36C326.226 287.16 326.786 285.413 326.786 283.12V271.08H330.426ZM347.252 270.68C349.919 270.68 352.079 271.493 353.732 273.12C355.386 274.72 356.212 277.04 356.212 280.08V293H352.612V280.6C352.612 278.413 352.066 276.747 350.972 275.6C349.879 274.427 348.386 273.84 346.492 273.84C344.572 273.84 343.039 274.44 341.892 275.64C340.772 276.84 340.212 278.587 340.212 280.88V293H336.572V271.08H340.212V274.2C340.932 273.08 341.906 272.213 343.132 271.6C344.386 270.987 345.759 270.68 347.252 270.68ZM366.598 274.08V287C366.598 288.067 366.825 288.827 367.278 289.28C367.731 289.707 368.518 289.92 369.638 289.92H372.318V293H369.038C367.011 293 365.491 292.533 364.478 291.6C363.465 290.667 362.958 289.133 362.958 287V274.08H360.118V271.08H362.958V265.56H366.598V271.08H372.318V274.08H366.598ZM380.368 274.64C381.008 273.387 381.915 272.413 383.088 271.72C384.288 271.027 385.742 270.68 387.448 270.68V274.44H386.488C382.408 274.44 380.368 276.653 380.368 281.08V293H376.728V271.08H380.368V274.64ZM393.53 267.52C392.837 267.52 392.25 267.28 391.77 266.8C391.29 266.32 391.05 265.733 391.05 265.04C391.05 264.347 391.29 263.76 391.77 263.28C392.25 262.8 392.837 262.56 393.53 262.56C394.197 262.56 394.757 262.8 395.21 263.28C395.69 263.76 395.93 264.347 395.93 265.04C395.93 265.733 395.69 266.32 395.21 266.8C394.757 267.28 394.197 267.52 393.53 267.52ZM395.29 271.08V293H391.65V271.08H395.29ZM421.494 281.2C421.494 281.893 421.454 282.627 421.374 283.4H403.854C403.987 285.56 404.721 287.253 406.054 288.48C407.414 289.68 409.054 290.28 410.974 290.28C412.547 290.28 413.854 289.92 414.894 289.2C415.961 288.453 416.707 287.467 417.134 286.24H421.054C420.467 288.347 419.294 290.067 417.534 291.4C415.774 292.707 413.587 293.36 410.974 293.36C408.894 293.36 407.027 292.893 405.374 291.96C403.747 291.027 402.467 289.707 401.534 288C400.601 286.267 400.134 284.267 400.134 282C400.134 279.733 400.587 277.747 401.494 276.04C402.401 274.333 403.667 273.027 405.294 272.12C406.947 271.187 408.841 270.72 410.974 270.72C413.054 270.72 414.894 271.173 416.494 272.08C418.094 272.987 419.321 274.24 420.174 275.84C421.054 277.413 421.494 279.2 421.494 281.2ZM417.734 280.44C417.734 279.053 417.427 277.867 416.814 276.88C416.201 275.867 415.361 275.107 414.294 274.6C413.254 274.067 412.094 273.8 410.814 273.8C408.974 273.8 407.401 274.387 406.094 275.56C404.814 276.733 404.081 278.36 403.894 280.44H417.734ZM434.059 293.36C432.379 293.36 430.872 293.08 429.539 292.52C428.205 291.933 427.152 291.133 426.379 290.12C425.605 289.08 425.179 287.893 425.099 286.56H428.859C428.965 287.653 429.472 288.547 430.379 289.24C431.312 289.933 432.525 290.28 434.019 290.28C435.405 290.28 436.499 289.973 437.299 289.36C438.099 288.747 438.499 287.973 438.499 287.04C438.499 286.08 438.072 285.373 437.219 284.92C436.365 284.44 435.045 283.973 433.259 283.52C431.632 283.093 430.299 282.667 429.259 282.24C428.245 281.787 427.365 281.133 426.619 280.28C425.899 279.4 425.539 278.253 425.539 276.84C425.539 275.72 425.872 274.693 426.539 273.76C427.205 272.827 428.152 272.093 429.379 271.56C430.605 271 432.005 270.72 433.579 270.72C436.005 270.72 437.965 271.333 439.459 272.56C440.952 273.787 441.752 275.467 441.859 277.6H438.219C438.139 276.453 437.672 275.533 436.819 274.84C435.992 274.147 434.872 273.8 433.459 273.8C432.152 273.8 431.112 274.08 430.339 274.64C429.565 275.2 429.179 275.933 429.179 276.84C429.179 277.56 429.405 278.16 429.859 278.64C430.339 279.093 430.925 279.467 431.619 279.76C432.339 280.027 433.325 280.333 434.579 280.68C436.152 281.107 437.432 281.533 438.419 281.96C439.405 282.36 440.245 282.973 440.939 283.8C441.659 284.627 442.032 285.707 442.059 287.04C442.059 288.24 441.725 289.32 441.059 290.28C440.392 291.24 439.445 292 438.219 292.56C437.019 293.093 435.632 293.36 434.059 293.36Z" fill="white"/>
<path d="M291.559 222.249L284.37 222.082L287.284 218.972L280.603 218.952L284.026 215.554L278.072 215.536L281.204 212.427L275.539 212.41L278.963 209.012L273.589 208.996L276.648 205.96L271.71 205.945L274.771 202.255L269.688 202.24L273.62 198.916L267.452 197.084L271.744 194.632L266.527 190.99L270.313 187.666L265.742 186.274L269.744 183.748L265.32 181.849L269.757 179.542L265.335 176.846L270.348 176.353L265.786 171.771L270.362 171.785L266.597 168.002L271.172 168.016L267.552 164.379L272.563 164.395L269.015 160.83L273.735 160.845L270.405 157.499L274.907 157.513L271.867 154.458L276.805 154.473L273.764 151.418L279.138 151.434L276.171 148.017L281.4 148.032L278.577 144.906L284.241 144.923L282.001 141.145L287.663 142.105L286.516 137.17L291.813 138.709L290.737 134.137L295.232 136.617L295.248 131.468L298.506 134.741L298.52 129.955C299.461 131.239 301.342 133.517 301.342 133.517L301.357 128.513L305.485 132.297L306.591 126.934L310.284 130.426L312.695 125.647L315.077 130.44L318.141 125.663L319.653 130.019L322.571 125.677L324.519 130.034L328.308 125.694L329.673 130.485L333.17 127.014L333.156 131.583L336.726 127.678L336.712 132.391L340.5 128.632L340.482 134.288L345.068 130.894L345.053 135.825L349.272 133.372L349.256 138.883L354.636 136.797L353.457 142.232L358.402 140.144L356.789 145.143L362.095 143.708L359.031 148.268L364.481 147.124L362.071 151.685L367.23 150.686L364.456 155.463L369.975 155.48L366.26 159.167L371.559 159.763L368.208 163.234L373.94 165.137L369.936 168.388L374.867 170.651L370.862 174.265L375.791 177.253L371.5 179.198L375.776 182.257L371.487 183.476L375.759 187.768L370.821 187.753L374.803 191.754L369.865 191.739L373.847 195.739L369.054 195.725L372.529 199.216L368.099 199.203L371.429 202.548L366.128 202.532L368.58 208.124L363.498 207.673L365.297 213.19L360.07 212.449L361.87 217.748L357.591 215.777L357.574 221.361L354.315 218.378L354.296 224.614L351.038 221.341L351.022 226.707L347.4 223.723L347.383 229.162L343.981 225.743L343.529 231.108L340.2 227.327L338.439 232.978L335.401 229.126L333.061 234.485L328.861 230.411L326.086 235.696L323.413 231.047L319.985 235.678L317.385 231.029L313.959 235.225L313.827 231.018L309.966 234.85L309.981 229.919L305.975 233.895L305.99 229.036L301.042 232.212L301.056 227.499L296.546 229.878L296.559 225.6L291.181 227.179L291.559 222.249ZM291.559 222.249L288.353 225.575" stroke="white" stroke-width="0.5"/>
<path d="M357.467 145.94L356.271 138.873L353.613 142.193L352.635 135.606L349.765 139.47L348.893 133.599L346.267 137.134L345.437 131.549L342.567 135.413L341.78 130.115L339.215 133.568L338.493 128.699L335.282 132.248L334.538 127.236L331.814 131.591L329.118 125.77L327.307 130.355L322.956 125.731L320.211 129.942L318.179 125.633L316.254 129.943L313.741 125.851L312.095 130.559L308.794 126.584L309.026 131.598L303.839 127.756L304.508 132.267L300.227 129.096L300.897 133.607L296.78 130.558L297.514 135.498L293.479 132.51L294.17 137.164L290.383 134.359L291.042 138.798L287.584 136.237L288.307 141.105L284.849 138.544L285.636 143.842L281.83 141.406L282.596 146.561L279.098 144.225L279.927 149.81L275.869 148.142L277.63 153.589L272.584 153.165L274.866 158.169L270.19 157.764L273.287 161.843L268.196 162.596L271.901 165.341L267.168 166.041C268.573 166.784 271.097 168.313 271.097 168.313L266.149 169.046L270.484 172.575L265.337 174.435L269.321 177.577L264.94 180.64L270.023 182.303L265.737 186.01L270.262 186.877L266.385 190.378L270.975 191.674L267.225 196.034L272.16 196.694L269.228 200.641L273.745 199.972L270.394 204.054L275.055 203.364L271.879 207.639L277.472 206.811L274.772 211.821L279.648 211.099L277.826 215.612L283.276 214.806L281.983 220.412L287.191 218.47L285.834 223.647L290.548 221.339L289.89 226.778L293.961 223.102L293.611 228.642L297.777 225.611L297.528 230.843L301.856 227.421L302.664 232.863L305.779 228.67L307.129 233.812L310.081 230.009L312.785 235.389L315.427 230.973L318.373 235.513L321.373 231.044L325.036 235.478L326.345 230.967L329.983 234.745L330.575 230.34L335.433 233.939L334.71 229.07L339.238 232.424L338.515 227.555L343.043 230.909L342.342 226.183L346.294 229.111L345.645 224.743L349.433 227.548L348.657 222.322L354.539 223.939L353.365 218.99L359.08 219.973L357.597 214.924L363.097 215.939L360.534 212.002L366.055 211.184L362.637 208.397L368.803 207.484L365.098 204.74L370.404 203.955L366.933 200.81L372.31 200.014L368.441 197.147L373.683 195.932L369.465 193.19L374.803 190.644L370.556 188.199L375.522 185.123L370.89 181.564L375.72 178.068L370.738 176.099L374.827 172.054L369.856 170.156L373.515 166.175L369.335 166.647L372.571 162.29L367.696 163.012L371.055 158.49L366.251 159.201L368.682 153.865L364.022 154.555L365.729 149.766L361.498 150.392L362.289 144.86L357.467 145.94ZM357.467 145.94L360.297 142.301" stroke="white" stroke-width="0.5"/>
<path d="M298.461 226.258L291.334 227.217L293.725 223.691L287.124 224.715L289.972 220.824L284.088 221.737L286.694 218.177L281.097 219.046L283.945 215.154L278.635 215.978L281.181 212.501L276.301 213.258L278.746 209.136L273.723 209.916L277.085 206.018L270.707 205.173L274.561 202.08L268.837 199.299L272.056 195.423L267.323 194.763L270.879 191.643L266.212 190.459L270.233 187.487L265.443 185.515L270.316 184.245L265.093 180.432L269.613 179.73L265.302 176.583L269.823 175.882L265.677 172.856L270.629 172.087L266.566 169.122L271.231 168.398L267.417 165.614L271.866 164.924L268.383 162.382L273.263 161.624L269.781 159.083L275.091 158.259L271.625 155.347L276.792 154.545L273.513 151.898L279.111 151.03L276.306 147.649L282.048 147.712L280.142 143.017L285.615 143.709L283.836 139.362L288.664 141.108L287.872 136.02L291.603 138.744L290.867 134.014C291.997 135.136 294.212 137.091 294.212 137.091L293.443 132.147L298.113 135.238L298.364 129.769L302.559 132.64L304.191 127.544L307.295 131.905L309.573 126.708L311.749 130.774L313.951 126.029L316.557 130.028L319.62 125.149L321.719 129.667L324.628 125.693L325.331 130.208L328.245 125.792L328.97 130.45L332.121 126.145L332.991 131.734L336.988 127.665L337.746 132.537L341.529 129.455L342.377 134.901L347.363 131.999L347.052 137.552L351.608 134.716L350.799 139.906L355.814 137.66L353.503 142.642L358.706 140.66L357.041 145.542L361.979 143.748L359.989 148.901L365.442 148.054L362.351 152.277L367.679 152.037L364.913 155.989L370.872 156.972L367.427 160.809L372.653 162.273L369.263 166.469L374.6 168.649L370.667 171.241L375.37 173.594L371.325 175.469L376.217 179.04L371.338 179.797L375.898 183.126L371.018 183.883L375.578 187.211L370.842 187.946L374.822 190.852L370.444 191.531L374.258 194.315L369.02 195.128L372.318 200.267L367.228 200.616L369.87 205.784L364.591 205.869L367.2 210.821L362.665 209.544L363.523 215.061L359.837 212.624L360.796 218.787L357.065 216.063L357.89 221.366L353.845 218.985L354.681 224.359L350.784 221.515L351.179 226.884L347.298 223.67L346.446 229.527L342.841 226.197L341.37 231.855L336.583 228.489L334.67 234.143L331.302 229.969L328.643 235.078L325.346 230.893L322.62 235.572L321.829 231.438L318.617 235.826L317.859 230.954L314.525 235.507L313.778 230.706L309.389 234.616L308.664 229.959L304.583 233.014L303.925 228.786L298.861 231.187L298.461 226.258ZM298.461 226.258L295.817 230.044" stroke="white" stroke-width="0.5"/>
<path d="M351.593 140.587L349.303 133.794L347.199 137.489L345.2 131.136L342.971 135.401L341.19 129.738L339.15 133.641L337.456 128.254L335.227 132.52L333.619 127.409L331.627 131.221L330.149 126.525L327.535 130.532L326.014 125.698L324.006 130.425L320.431 125.098L319.362 129.909L314.34 126.022L312.288 130.611L309.606 126.673L308.38 131.23L305.257 127.582L304.369 132.488L300.485 129.079L301.5 133.995L295.775 131.012L297.144 135.362L292.418 132.899L293.787 137.25L289.243 134.882L290.742 139.647L286.289 137.326L287.701 141.814L283.521 139.636L284.868 143.917L281.051 141.928L282.528 146.624L278.711 144.635L280.319 149.745L276.178 147.933L277.742 152.905L273.921 151.145L275.616 156.531L271.346 155.519L273.94 160.623L268.89 160.993L271.928 165.579L267.246 165.91L270.944 169.454L266.034 170.994L270.123 173.125L265.559 174.557C267.063 175.071 269.795 176.187 269.795 176.187L265.024 177.684L269.858 180.492L265.066 183.133L269.494 185.614L265.647 189.324L270.928 190.171L267.276 194.504L271.882 194.652L268.601 198.716L273.337 199.279L270.318 204.171L275.295 204.052L273.018 208.408L277.375 207.041L274.705 211.596L279.2 210.186L276.734 214.905L282.128 213.213L280.246 218.583L284.949 217.108L283.858 221.851L289.113 220.202L288.715 225.941L293.554 223.209L293.026 228.534L297.32 225.518L297.523 230.993L300.967 226.726L301.49 232.252L305.13 228.607L305.704 233.813L309.443 229.757L311.094 235.006L313.513 230.377L315.652 235.245L317.972 231.027L321.486 235.918L323.403 231.144L327.024 235.167L329.287 230.285L333.599 234.091L334.185 229.431L338.371 232.594L338.265 228.151L343.627 230.945L342.149 226.249L347.148 228.854L345.67 224.159L350.669 226.763L349.235 222.206L353.597 224.479L352.272 220.267L356.452 222.445L354.866 217.404L360.93 218.082L358.994 213.378L364.793 213.456L362.537 208.7L368.128 208.843L364.979 205.355L370.304 203.684L366.491 201.466L372.438 199.6L368.349 197.469L373.466 195.864L369.544 193.3L374.731 191.673L370.46 189.447L375.447 187.428L370.851 185.379L375.724 182.03L371.146 180.279L375.568 176.464L370.436 173.674L374.658 169.466L369.429 168.299L372.833 163.665L367.625 162.568L370.615 158.064L366.561 159.184L369.074 154.374L364.372 155.849L366.981 150.858L362.347 152.312L363.913 146.661L359.418 148.071L360.353 143.074L356.273 144.354L356.186 138.766L351.593 140.587ZM351.593 140.587L353.818 136.551" stroke="white" stroke-width="0.5"/>
<path d="M311.39 172.465L291.908 203.751L321.185 204.35M311.39 172.465L321.352 156.556L348.564 204.91L329.995 204.53L311.39 172.465Z" stroke="white" stroke-width="2"/>
</svg>
