<svg width="640" height="426" viewBox="0 0 640 426" fill="none" xmlns="http://www.w3.org/2000/svg">
<rect width="640" height="426" fill="#00D37F"/>
<path d="M231.16 282.12C231.16 279.88 231.6 277.92 232.48 276.24C233.387 274.56 234.627 273.267 236.2 272.36C237.8 271.453 239.613 271 241.64 271C243.933 271 245.88 271.56 247.48 272.68C249.08 273.8 250.2 275.227 250.84 276.96V271.28H252.64V293H250.84V287.28C250.2 289.04 249.067 290.493 247.44 291.64C245.84 292.76 243.907 293.32 241.64 293.32C239.613 293.32 237.8 292.867 236.2 291.96C234.627 291.027 233.387 289.72 232.48 288.04C231.6 286.333 231.16 284.36 231.16 282.12ZM250.84 282.12C250.84 280.227 250.44 278.56 249.64 277.12C248.867 275.653 247.8 274.533 246.44 273.76C245.08 272.96 243.56 272.56 241.88 272.56C240.12 272.56 238.573 272.947 237.24 273.72C235.907 274.467 234.867 275.56 234.12 277C233.373 278.44 233 280.147 233 282.12C233 284.093 233.373 285.8 234.12 287.24C234.867 288.68 235.907 289.787 237.24 290.56C238.6 291.333 240.147 291.72 241.88 291.72C243.56 291.72 245.08 291.333 246.44 290.56C247.827 289.76 248.907 288.64 249.68 287.2C250.453 285.733 250.84 284.04 250.84 282.12ZM258.074 282.12C258.074 279.853 258.514 277.88 259.394 276.2C260.301 274.52 261.541 273.24 263.114 272.36C264.714 271.453 266.541 271 268.594 271C271.314 271 273.541 271.68 275.274 273.04C277.034 274.4 278.127 276.227 278.554 278.52H276.674C276.327 276.653 275.421 275.187 273.954 274.12C272.514 273.053 270.727 272.52 268.594 272.52C266.994 272.52 265.541 272.88 264.234 273.6C262.927 274.293 261.874 275.373 261.074 276.84C260.301 278.28 259.914 280.04 259.914 282.12C259.914 284.227 260.301 286 261.074 287.44C261.874 288.88 262.927 289.96 264.234 290.68C265.541 291.4 266.994 291.76 268.594 291.76C270.727 291.76 272.514 291.227 273.954 290.16C275.421 289.093 276.327 287.627 276.674 285.76H278.554C278.127 288.027 277.034 289.853 275.274 291.24C273.514 292.627 271.287 293.32 268.594 293.32C266.541 293.32 264.714 292.867 263.114 291.96C261.541 291.053 260.301 289.76 259.394 288.08C258.514 286.373 258.074 284.387 258.074 282.12ZM293.142 279.04C293.142 276.32 293.755 273.88 294.982 271.72C296.209 269.533 297.875 267.827 299.982 266.6C302.115 265.373 304.475 264.76 307.062 264.76C310.102 264.76 312.755 265.493 315.022 266.96C317.289 268.427 318.942 270.507 319.982 273.2H315.622C314.849 271.52 313.729 270.227 312.262 269.32C310.822 268.413 309.089 267.96 307.062 267.96C305.115 267.96 303.369 268.413 301.822 269.32C300.275 270.227 299.062 271.52 298.182 273.2C297.302 274.853 296.862 276.8 296.862 279.04C296.862 281.253 297.302 283.2 298.182 284.88C299.062 286.533 300.275 287.813 301.822 288.72C303.369 289.627 305.115 290.08 307.062 290.08C309.089 290.08 310.822 289.64 312.262 288.76C313.729 287.853 314.849 286.56 315.622 284.88H319.982C318.942 287.547 317.289 289.613 315.022 291.08C312.755 292.52 310.102 293.24 307.062 293.24C304.475 293.24 302.115 292.64 299.982 291.44C297.875 290.213 296.209 288.52 294.982 286.36C293.755 284.2 293.142 281.76 293.142 279.04ZM334.96 293.36C332.907 293.36 331.04 292.893 329.36 291.96C327.707 291.027 326.4 289.707 325.44 288C324.507 286.267 324.04 284.267 324.04 282C324.04 279.76 324.52 277.787 325.48 276.08C326.467 274.347 327.8 273.027 329.48 272.12C331.16 271.187 333.04 270.72 335.12 270.72C337.2 270.72 339.08 271.187 340.76 272.12C342.44 273.027 343.76 274.333 344.72 276.04C345.707 277.747 346.2 279.733 346.2 282C346.2 284.267 345.694 286.267 344.68 288C343.694 289.707 342.347 291.027 340.64 291.96C338.934 292.893 337.04 293.36 334.96 293.36ZM334.96 290.16C336.267 290.16 337.494 289.853 338.64 289.24C339.787 288.627 340.707 287.707 341.4 286.48C342.12 285.253 342.48 283.76 342.48 282C342.48 280.24 342.134 278.747 341.44 277.52C340.747 276.293 339.84 275.387 338.72 274.8C337.6 274.187 336.387 273.88 335.08 273.88C333.747 273.88 332.52 274.187 331.4 274.8C330.307 275.387 329.427 276.293 328.76 277.52C328.094 278.747 327.76 280.24 327.76 282C327.76 283.787 328.08 285.293 328.72 286.52C329.387 287.747 330.267 288.667 331.36 289.28C332.454 289.867 333.654 290.16 334.96 290.16ZM352.866 267.52C352.173 267.52 351.586 267.28 351.106 266.8C350.626 266.32 350.386 265.733 350.386 265.04C350.386 264.347 350.626 263.76 351.106 263.28C351.586 262.8 352.173 262.56 352.866 262.56C353.533 262.56 354.093 262.8 354.546 263.28C355.026 263.76 355.266 264.347 355.266 265.04C355.266 265.733 355.026 266.32 354.546 266.8C354.093 267.28 353.533 267.52 352.866 267.52ZM354.626 271.08V293H350.986V271.08H354.626ZM371.51 270.68C374.177 270.68 376.337 271.493 377.99 273.12C379.643 274.72 380.47 277.04 380.47 280.08V293H376.87V280.6C376.87 278.413 376.323 276.747 375.23 275.6C374.137 274.427 372.643 273.84 370.75 273.84C368.83 273.84 367.297 274.44 366.15 275.64C365.03 276.84 364.47 278.587 364.47 280.88V293H360.83V271.08H364.47V274.2C365.19 273.08 366.163 272.213 367.39 271.6C368.643 270.987 370.017 270.68 371.51 270.68ZM394.176 293.36C392.496 293.36 390.989 293.08 389.656 292.52C388.323 291.933 387.269 291.133 386.496 290.12C385.723 289.08 385.296 287.893 385.216 286.56H388.976C389.083 287.653 389.589 288.547 390.496 289.24C391.429 289.933 392.643 290.28 394.136 290.28C395.523 290.28 396.616 289.973 397.416 289.36C398.216 288.747 398.616 287.973 398.616 287.04C398.616 286.08 398.189 285.373 397.336 284.92C396.483 284.44 395.163 283.973 393.376 283.52C391.749 283.093 390.416 282.667 389.376 282.24C388.363 281.787 387.483 281.133 386.736 280.28C386.016 279.4 385.656 278.253 385.656 276.84C385.656 275.72 385.989 274.693 386.656 273.76C387.323 272.827 388.269 272.093 389.496 271.56C390.723 271 392.123 270.72 393.696 270.72C396.123 270.72 398.083 271.333 399.576 272.56C401.069 273.787 401.869 275.467 401.976 277.6H398.336C398.256 276.453 397.789 275.533 396.936 274.84C396.109 274.147 394.989 273.8 393.576 273.8C392.269 273.8 391.229 274.08 390.456 274.64C389.683 275.2 389.296 275.933 389.296 276.84C389.296 277.56 389.523 278.16 389.976 278.64C390.456 279.093 391.043 279.467 391.736 279.76C392.456 280.027 393.443 280.333 394.696 280.68C396.269 281.107 397.549 281.533 398.536 281.96C399.523 282.36 400.363 282.973 401.056 283.8C401.776 284.627 402.149 285.707 402.176 287.04C402.176 288.24 401.843 289.32 401.176 290.28C400.509 291.24 399.563 292 398.336 292.56C397.136 293.093 395.749 293.36 394.176 293.36Z" fill="white"/>
<path d="M291.559 222.249L284.37 222.082L287.284 218.972L280.603 218.952L284.026 215.554L278.072 215.536L281.204 212.427L275.539 212.41L278.963 209.012L273.589 208.996L276.648 205.96L271.71 205.945L274.771 202.255L269.688 202.24L273.62 198.916L267.452 197.084L271.744 194.632L266.527 190.99L270.313 187.666L265.742 186.274L269.744 183.748L265.32 181.849L269.757 179.542L265.335 176.846L270.348 176.353L265.786 171.771L270.362 171.785L266.597 168.002L271.172 168.016L267.552 164.379L272.563 164.395L269.015 160.83L273.735 160.845L270.405 157.499L274.907 157.513L271.867 154.458L276.805 154.473L273.764 151.418L279.138 151.434L276.171 148.017L281.4 148.032L278.577 144.906L284.241 144.923L282.001 141.145L287.663 142.105L286.516 137.17L291.813 138.709L290.737 134.137L295.232 136.617L295.248 131.468L298.506 134.741L298.52 129.955C299.461 131.239 301.342 133.517 301.342 133.517L301.357 128.513L305.485 132.297L306.591 126.934L310.284 130.426L312.695 125.647L315.077 130.44L318.141 125.663L319.653 130.019L322.571 125.677L324.519 130.034L328.308 125.694L329.673 130.485L333.17 127.014L333.156 131.583L336.726 127.678L336.712 132.391L340.5 128.632L340.482 134.288L345.068 130.894L345.053 135.825L349.272 133.372L349.256 138.883L354.636 136.797L353.457 142.232L358.402 140.144L356.789 145.143L362.095 143.708L359.031 148.268L364.481 147.124L362.071 151.685L367.23 150.686L364.456 155.463L369.975 155.48L366.26 159.167L371.559 159.763L368.208 163.234L373.94 165.137L369.936 168.388L374.867 170.651L370.862 174.265L375.791 177.253L371.5 179.198L375.776 182.257L371.487 183.476L375.759 187.768L370.821 187.753L374.803 191.754L369.865 191.739L373.847 195.739L369.054 195.725L372.529 199.216L368.099 199.203L371.429 202.548L366.128 202.532L368.58 208.124L363.498 207.673L365.297 213.19L360.07 212.449L361.87 217.748L357.591 215.777L357.574 221.361L354.315 218.378L354.296 224.614L351.038 221.341L351.022 226.707L347.4 223.723L347.383 229.162L343.981 225.743L343.529 231.108L340.2 227.327L338.439 232.978L335.401 229.126L333.061 234.485L328.861 230.411L326.086 235.696L323.413 231.047L319.985 235.678L317.385 231.029L313.959 235.225L313.827 231.018L309.966 234.85L309.981 229.919L305.975 233.895L305.99 229.036L301.042 232.212L301.056 227.499L296.546 229.878L296.559 225.6L291.181 227.179L291.559 222.249ZM291.559 222.249L288.353 225.575" stroke="white" stroke-width="0.5"/>
<path d="M357.467 145.94L356.271 138.873L353.613 142.193L352.635 135.606L349.765 139.47L348.893 133.599L346.267 137.134L345.437 131.549L342.567 135.413L341.78 130.115L339.215 133.568L338.493 128.699L335.282 132.248L334.538 127.236L331.814 131.591L329.118 125.77L327.307 130.355L322.956 125.731L320.211 129.942L318.179 125.633L316.254 129.943L313.741 125.851L312.095 130.559L308.794 126.584L309.026 131.598L303.839 127.756L304.508 132.267L300.227 129.096L300.897 133.607L296.78 130.558L297.514 135.498L293.479 132.51L294.17 137.164L290.383 134.359L291.042 138.798L287.584 136.237L288.307 141.105L284.849 138.544L285.636 143.842L281.83 141.406L282.596 146.561L279.098 144.225L279.927 149.81L275.869 148.142L277.63 153.589L272.584 153.165L274.866 158.169L270.19 157.764L273.287 161.843L268.196 162.596L271.901 165.341L267.168 166.041C268.573 166.784 271.097 168.313 271.097 168.313L266.149 169.046L270.484 172.575L265.337 174.435L269.321 177.577L264.94 180.64L270.023 182.303L265.737 186.01L270.262 186.877L266.385 190.378L270.975 191.674L267.225 196.034L272.16 196.694L269.228 200.641L273.745 199.972L270.394 204.054L275.055 203.364L271.879 207.639L277.472 206.811L274.772 211.821L279.648 211.099L277.826 215.612L283.276 214.806L281.983 220.412L287.191 218.47L285.834 223.647L290.548 221.339L289.89 226.778L293.961 223.102L293.611 228.642L297.777 225.611L297.528 230.843L301.856 227.421L302.664 232.863L305.779 228.67L307.129 233.812L310.081 230.009L312.785 235.389L315.427 230.973L318.373 235.513L321.373 231.044L325.036 235.478L326.345 230.967L329.983 234.745L330.575 230.34L335.433 233.939L334.71 229.07L339.238 232.424L338.515 227.555L343.043 230.909L342.342 226.183L346.294 229.111L345.645 224.743L349.433 227.548L348.657 222.322L354.539 223.939L353.365 218.99L359.08 219.973L357.597 214.924L363.097 215.939L360.534 212.002L366.055 211.184L362.637 208.397L368.803 207.484L365.098 204.74L370.404 203.955L366.933 200.81L372.31 200.014L368.441 197.147L373.683 195.932L369.465 193.19L374.803 190.644L370.556 188.199L375.522 185.123L370.89 181.564L375.72 178.068L370.738 176.099L374.827 172.054L369.856 170.156L373.515 166.175L369.335 166.647L372.571 162.29L367.696 163.012L371.055 158.49L366.251 159.201L368.682 153.865L364.022 154.555L365.729 149.766L361.498 150.392L362.289 144.86L357.467 145.94ZM357.467 145.94L360.297 142.301" stroke="white" stroke-width="0.5"/>
<path d="M298.461 226.258L291.334 227.217L293.725 223.691L287.124 224.715L289.972 220.824L284.088 221.737L286.694 218.177L281.097 219.046L283.945 215.154L278.635 215.978L281.181 212.501L276.301 213.258L278.746 209.136L273.723 209.916L277.085 206.018L270.707 205.173L274.561 202.08L268.837 199.299L272.056 195.423L267.323 194.763L270.879 191.643L266.212 190.459L270.233 187.487L265.443 185.515L270.316 184.245L265.093 180.432L269.613 179.73L265.302 176.583L269.823 175.882L265.677 172.856L270.629 172.087L266.566 169.122L271.231 168.398L267.417 165.614L271.866 164.924L268.383 162.382L273.263 161.624L269.781 159.083L275.091 158.259L271.625 155.347L276.792 154.545L273.513 151.898L279.111 151.03L276.306 147.649L282.048 147.712L280.142 143.017L285.615 143.709L283.836 139.362L288.664 141.108L287.872 136.02L291.603 138.744L290.867 134.014C291.997 135.136 294.212 137.091 294.212 137.091L293.443 132.147L298.113 135.238L298.364 129.769L302.559 132.64L304.191 127.544L307.295 131.905L309.573 126.708L311.749 130.774L313.951 126.029L316.557 130.028L319.62 125.149L321.719 129.667L324.628 125.693L325.331 130.208L328.245 125.792L328.97 130.45L332.121 126.145L332.991 131.734L336.988 127.665L337.746 132.537L341.529 129.455L342.377 134.901L347.363 131.999L347.052 137.552L351.608 134.716L350.799 139.906L355.814 137.66L353.503 142.642L358.706 140.66L357.041 145.542L361.979 143.748L359.989 148.901L365.442 148.054L362.351 152.277L367.679 152.037L364.913 155.989L370.872 156.972L367.427 160.809L372.653 162.273L369.263 166.469L374.6 168.649L370.667 171.241L375.37 173.594L371.325 175.469L376.217 179.04L371.338 179.797L375.898 183.126L371.018 183.883L375.578 187.211L370.842 187.946L374.822 190.852L370.444 191.531L374.258 194.315L369.02 195.128L372.318 200.267L367.228 200.616L369.87 205.784L364.591 205.869L367.2 210.821L362.665 209.544L363.523 215.061L359.837 212.624L360.796 218.787L357.065 216.063L357.89 221.366L353.845 218.985L354.681 224.359L350.784 221.515L351.179 226.884L347.298 223.67L346.446 229.527L342.841 226.197L341.37 231.855L336.583 228.489L334.67 234.143L331.302 229.969L328.643 235.078L325.346 230.893L322.62 235.572L321.829 231.438L318.617 235.826L317.859 230.954L314.525 235.507L313.778 230.706L309.389 234.616L308.664 229.959L304.583 233.014L303.925 228.786L298.861 231.187L298.461 226.258ZM298.461 226.258L295.817 230.044" stroke="white" stroke-width="0.5"/>
<path d="M351.593 140.587L349.303 133.794L347.199 137.489L345.2 131.136L342.971 135.401L341.19 129.738L339.15 133.641L337.456 128.254L335.227 132.52L333.619 127.409L331.627 131.221L330.149 126.525L327.535 130.532L326.014 125.698L324.006 130.425L320.431 125.098L319.362 129.909L314.34 126.022L312.288 130.611L309.606 126.673L308.38 131.23L305.257 127.582L304.369 132.488L300.485 129.079L301.5 133.995L295.775 131.012L297.144 135.362L292.418 132.899L293.787 137.25L289.243 134.882L290.742 139.647L286.289 137.326L287.701 141.814L283.521 139.636L284.868 143.917L281.051 141.928L282.528 146.624L278.711 144.635L280.319 149.745L276.178 147.933L277.742 152.905L273.921 151.145L275.616 156.531L271.346 155.519L273.94 160.623L268.89 160.993L271.928 165.579L267.246 165.91L270.944 169.454L266.034 170.994L270.123 173.125L265.559 174.557C267.063 175.071 269.795 176.187 269.795 176.187L265.024 177.684L269.858 180.492L265.066 183.133L269.494 185.614L265.647 189.324L270.928 190.171L267.276 194.504L271.882 194.652L268.601 198.716L273.337 199.279L270.318 204.171L275.295 204.052L273.018 208.408L277.375 207.041L274.705 211.596L279.2 210.186L276.734 214.905L282.128 213.213L280.246 218.583L284.949 217.108L283.858 221.851L289.113 220.202L288.715 225.941L293.554 223.209L293.026 228.534L297.32 225.518L297.523 230.993L300.967 226.726L301.49 232.252L305.13 228.607L305.704 233.813L309.443 229.757L311.094 235.006L313.513 230.377L315.652 235.245L317.972 231.027L321.486 235.918L323.403 231.144L327.024 235.167L329.287 230.285L333.599 234.091L334.185 229.431L338.371 232.594L338.265 228.151L343.627 230.945L342.149 226.249L347.148 228.854L345.67 224.159L350.669 226.763L349.235 222.206L353.597 224.479L352.272 220.267L356.452 222.445L354.866 217.404L360.93 218.082L358.994 213.378L364.793 213.456L362.537 208.7L368.128 208.843L364.979 205.355L370.304 203.684L366.491 201.466L372.438 199.6L368.349 197.469L373.466 195.864L369.544 193.3L374.731 191.673L370.46 189.447L375.447 187.428L370.851 185.379L375.724 182.03L371.146 180.279L375.568 176.464L370.436 173.674L374.658 169.466L369.429 168.299L372.833 163.665L367.625 162.568L370.615 158.064L366.561 159.184L369.074 154.374L364.372 155.849L366.981 150.858L362.347 152.312L363.913 146.661L359.418 148.071L360.353 143.074L356.273 144.354L356.186 138.766L351.593 140.587ZM351.593 140.587L353.818 136.551" stroke="white" stroke-width="0.5"/>
<path d="M311.39 172.465L291.908 203.751L321.185 204.35M311.39 172.465L321.352 156.556L348.564 204.91L329.995 204.53L311.39 172.465Z" stroke="white" stroke-width="2"/>
</svg>
