<svg width="640" height="426" viewBox="0 0 640 426" fill="none" xmlns="http://www.w3.org/2000/svg">
<rect width="640" height="426" fill="#DA5C5C"/>
<path d="M212.16 282.12C212.16 279.88 212.6 277.92 213.48 276.24C214.387 274.56 215.627 273.267 217.2 272.36C218.8 271.453 220.613 271 222.64 271C224.933 271 226.88 271.56 228.48 272.68C230.08 273.8 231.2 275.227 231.84 276.96V271.28H233.64V293H231.84V287.28C231.2 289.04 230.067 290.493 228.44 291.64C226.84 292.76 224.907 293.32 222.64 293.32C220.613 293.32 218.8 292.867 217.2 291.96C215.627 291.027 214.387 289.72 213.48 288.04C212.6 286.333 212.16 284.36 212.16 282.12ZM231.84 282.12C231.84 280.227 231.44 278.56 230.64 277.12C229.867 275.653 228.8 274.533 227.44 273.76C226.08 272.96 224.56 272.56 222.88 272.56C221.12 272.56 219.573 272.947 218.24 273.72C216.907 274.467 215.867 275.56 215.12 277C214.373 278.44 214 280.147 214 282.12C214 284.093 214.373 285.8 215.12 287.24C215.867 288.68 216.907 289.787 218.24 290.56C219.6 291.333 221.147 291.72 222.88 291.72C224.56 291.72 226.08 291.333 227.44 290.56C228.827 289.76 229.907 288.64 230.68 287.2C231.453 285.733 231.84 284.04 231.84 282.12ZM239.074 282.12C239.074 279.853 239.514 277.88 240.394 276.2C241.301 274.52 242.541 273.24 244.114 272.36C245.714 271.453 247.541 271 249.594 271C252.314 271 254.541 271.68 256.274 273.04C258.034 274.4 259.127 276.227 259.554 278.52H257.674C257.327 276.653 256.421 275.187 254.954 274.12C253.514 273.053 251.727 272.52 249.594 272.52C247.994 272.52 246.541 272.88 245.234 273.6C243.927 274.293 242.874 275.373 242.074 276.84C241.301 278.28 240.914 280.04 240.914 282.12C240.914 284.227 241.301 286 242.074 287.44C242.874 288.88 243.927 289.96 245.234 290.68C246.541 291.4 247.994 291.76 249.594 291.76C251.727 291.76 253.514 291.227 254.954 290.16C256.421 289.093 257.327 287.627 257.674 285.76H259.554C259.127 288.027 258.034 289.853 256.274 291.24C254.514 292.627 252.287 293.32 249.594 293.32C247.541 293.32 245.714 292.867 244.114 291.96C242.541 291.053 241.301 289.76 240.394 288.08C239.514 286.373 239.074 284.387 239.074 282.12ZM284.182 265.12C287.222 265.12 289.849 265.693 292.062 266.84C294.302 267.96 296.009 269.573 297.182 271.68C298.382 273.787 298.982 276.267 298.982 279.12C298.982 281.973 298.382 284.453 297.182 286.56C296.009 288.64 294.302 290.24 292.062 291.36C289.849 292.453 287.222 293 284.182 293H275.502V265.12H284.182ZM284.182 290C287.782 290 290.529 289.053 292.422 287.16C294.315 285.24 295.262 282.56 295.262 279.12C295.262 275.653 294.302 272.947 292.382 271C290.489 269.053 287.755 268.08 284.182 268.08H279.142V290H284.182ZM323.783 281.2C323.783 281.893 323.743 282.627 323.663 283.4H306.143C306.276 285.56 307.01 287.253 308.343 288.48C309.703 289.68 311.343 290.28 313.263 290.28C314.836 290.28 316.143 289.92 317.183 289.2C318.25 288.453 318.996 287.467 319.423 286.24H323.343C322.756 288.347 321.583 290.067 319.823 291.4C318.063 292.707 315.876 293.36 313.263 293.36C311.183 293.36 309.316 292.893 307.663 291.96C306.036 291.027 304.756 289.707 303.823 288C302.89 286.267 302.423 284.267 302.423 282C302.423 279.733 302.876 277.747 303.783 276.04C304.69 274.333 305.956 273.027 307.583 272.12C309.236 271.187 311.13 270.72 313.263 270.72C315.343 270.72 317.183 271.173 318.783 272.08C320.383 272.987 321.61 274.24 322.463 275.84C323.343 277.413 323.783 279.2 323.783 281.2ZM320.023 280.44C320.023 279.053 319.716 277.867 319.103 276.88C318.49 275.867 317.65 275.107 316.583 274.6C315.543 274.067 314.383 273.8 313.103 273.8C311.263 273.8 309.69 274.387 308.383 275.56C307.103 276.733 306.37 278.36 306.183 280.44H320.023ZM332.228 263.4V293H328.588V263.4H332.228ZM340.312 267.52C339.618 267.52 339.032 267.28 338.552 266.8C338.072 266.32 337.832 265.733 337.832 265.04C337.832 264.347 338.072 263.76 338.552 263.28C339.032 262.8 339.618 262.56 340.312 262.56C340.978 262.56 341.538 262.8 341.992 263.28C342.472 263.76 342.712 264.347 342.712 265.04C342.712 265.733 342.472 266.32 341.992 266.8C341.538 267.28 340.978 267.52 340.312 267.52ZM342.072 271.08V293H338.432V271.08H342.072ZM356.435 289.64L363.235 271.08H367.115L358.515 293H354.275L345.675 271.08H349.595L356.435 289.64ZM390.697 281.2C390.697 281.893 390.657 282.627 390.577 283.4H373.057C373.191 285.56 373.924 287.253 375.257 288.48C376.617 289.68 378.257 290.28 380.177 290.28C381.751 290.28 383.057 289.92 384.097 289.2C385.164 288.453 385.911 287.467 386.337 286.24H390.257C389.671 288.347 388.497 290.067 386.737 291.4C384.977 292.707 382.791 293.36 380.177 293.36C378.097 293.36 376.231 292.893 374.577 291.96C372.951 291.027 371.671 289.707 370.737 288C369.804 286.267 369.337 284.267 369.337 282C369.337 279.733 369.791 277.747 370.697 276.04C371.604 274.333 372.871 273.027 374.497 272.12C376.151 271.187 378.044 270.72 380.177 270.72C382.257 270.72 384.097 271.173 385.697 272.08C387.297 272.987 388.524 274.24 389.377 275.84C390.257 277.413 390.697 279.2 390.697 281.2ZM386.937 280.44C386.937 279.053 386.631 277.867 386.017 276.88C385.404 275.867 384.564 275.107 383.497 274.6C382.457 274.067 381.297 273.8 380.017 273.8C378.177 273.8 376.604 274.387 375.297 275.56C374.017 276.733 373.284 278.36 373.097 280.44H386.937ZM399.142 274.64C399.782 273.387 400.689 272.413 401.862 271.72C403.062 271.027 404.515 270.68 406.222 270.68V274.44H405.262C401.182 274.44 399.142 276.653 399.142 281.08V293H395.502V271.08H399.142V274.64ZM429.304 271.08L416.104 303.32H412.344L416.664 292.76L407.824 271.08H411.864L418.744 288.84L425.544 271.08H429.304Z" fill="white"/>
<path d="M291.559 222.249L284.37 222.082L287.284 218.972L280.603 218.952L284.026 215.554L278.072 215.536L281.204 212.427L275.539 212.41L278.963 209.012L273.589 208.996L276.648 205.96L271.71 205.945L274.771 202.255L269.688 202.24L273.62 198.916L267.452 197.084L271.744 194.632L266.527 190.99L270.313 187.666L265.742 186.274L269.744 183.748L265.32 181.849L269.757 179.542L265.335 176.846L270.348 176.353L265.786 171.771L270.361 171.785L266.597 168.002L271.172 168.016L267.552 164.379L272.563 164.395L269.015 160.83L273.735 160.845L270.405 157.499L274.907 157.513L271.867 154.458L276.805 154.473L273.764 151.418L279.138 151.434L276.171 148.017L281.4 148.032L278.577 144.906L284.241 144.923L282.001 141.145L287.663 142.105L286.516 137.17L291.813 138.709L290.737 134.137L295.232 136.617L295.248 131.468L298.506 134.741L298.52 129.955C299.461 131.239 301.342 133.517 301.342 133.517L301.357 128.513L305.485 132.297L306.591 126.934L310.284 130.426L312.695 125.647L315.077 130.44L318.141 125.663L319.653 130.019L322.571 125.677L324.519 130.034L328.308 125.694L329.673 130.485L333.17 127.014L333.156 131.583L336.726 127.678L336.712 132.391L340.5 128.632L340.482 134.288L345.068 130.894L345.053 135.825L349.272 133.372L349.256 138.883L354.636 136.797L353.457 142.232L358.402 140.144L356.789 145.143L362.095 143.708L359.031 148.268L364.481 147.124L362.071 151.685L367.23 150.686L364.456 155.463L369.975 155.48L366.26 159.167L371.559 159.763L368.208 163.234L373.94 165.137L369.936 168.388L374.867 170.651L370.862 174.265L375.791 177.253L371.5 179.198L375.776 182.257L371.487 183.476L375.759 187.768L370.821 187.753L374.803 191.754L369.865 191.739L373.847 195.739L369.054 195.725L372.529 199.216L368.099 199.203L371.429 202.548L366.128 202.532L368.58 208.124L363.498 207.673L365.297 213.19L360.07 212.449L361.87 217.748L357.591 215.777L357.574 221.361L354.315 218.378L354.296 224.614L351.038 221.341L351.022 226.707L347.4 223.723L347.383 229.162L343.981 225.743L343.529 231.108L340.2 227.327L338.439 232.978L335.401 229.126L333.061 234.485L328.861 230.411L326.086 235.696L323.413 231.047L319.985 235.678L317.385 231.029L313.959 235.225L313.827 231.018L309.966 234.85L309.981 229.919L305.975 233.895L305.99 229.036L301.042 232.212L301.056 227.499L296.546 229.878L296.559 225.6L291.181 227.179L291.559 222.249ZM291.559 222.249L288.353 225.575" stroke="white" stroke-width="0.5"/>
<path d="M357.467 145.94L356.271 138.873L353.613 142.193L352.635 135.606L349.765 139.47L348.893 133.599L346.267 137.134L345.437 131.549L342.567 135.413L341.78 130.115L339.215 133.568L338.493 128.699L335.282 132.248L334.538 127.236L331.814 131.591L329.118 125.77L327.307 130.355L322.956 125.731L320.211 129.942L318.179 125.633L316.254 129.943L313.741 125.851L312.095 130.559L308.794 126.584L309.026 131.598L303.839 127.756L304.508 132.267L300.227 129.096L300.897 133.607L296.78 130.558L297.514 135.498L293.479 132.51L294.17 137.164L290.383 134.359L291.042 138.798L287.584 136.237L288.307 141.105L284.849 138.544L285.636 143.842L281.83 141.406L282.596 146.561L279.098 144.225L279.927 149.81L275.869 148.142L277.63 153.589L272.584 153.165L274.866 158.169L270.19 157.764L273.287 161.843L268.196 162.596L271.901 165.341L267.168 166.041C268.573 166.784 271.097 168.313 271.097 168.313L266.149 169.046L270.484 172.575L265.337 174.435L269.321 177.577L264.94 180.64L270.023 182.302L265.737 186.01L270.262 186.877L266.385 190.378L270.975 191.674L267.225 196.034L272.16 196.694L269.228 200.641L273.745 199.972L270.394 204.054L275.055 203.363L271.879 207.639L277.472 206.811L274.772 211.821L279.648 211.099L277.826 215.612L283.276 214.806L281.983 220.412L287.191 218.47L285.834 223.647L290.548 221.339L289.89 226.778L293.961 223.102L293.611 228.642L297.777 225.611L297.528 230.843L301.856 227.421L302.664 232.863L305.779 228.67L307.129 233.812L310.081 230.009L312.785 235.389L315.427 230.973L318.373 235.513L321.373 231.044L325.036 235.478L326.345 230.967L329.983 234.745L330.575 230.34L335.433 233.939L334.71 229.07L339.238 232.424L338.515 227.555L343.043 230.909L342.342 226.183L346.294 229.111L345.645 224.743L349.433 227.548L348.657 222.322L354.539 223.939L353.365 218.99L359.08 219.973L357.597 214.924L363.097 215.939L360.534 212.002L366.055 211.184L362.637 208.397L368.803 207.484L365.098 204.74L370.404 203.954L366.933 200.81L372.31 200.014L368.441 197.147L373.683 195.932L369.465 193.19L374.803 190.644L370.556 188.199L375.522 185.123L370.89 181.564L375.72 178.068L370.738 176.099L374.827 172.054L369.856 170.156L373.515 166.175L369.335 166.647L372.571 162.29L367.696 163.012L371.055 158.49L366.251 159.201L368.682 153.865L364.022 154.555L365.729 149.766L361.498 150.392L362.289 144.86L357.467 145.94ZM357.467 145.94L360.297 142.301" stroke="white" stroke-width="0.5"/>
<path d="M298.461 226.258L291.334 227.217L293.725 223.691L287.124 224.715L289.972 220.824L284.088 221.737L286.694 218.177L281.097 219.046L283.945 215.154L278.635 215.978L281.181 212.501L276.301 213.258L278.746 209.136L273.723 209.916L277.085 206.018L270.707 205.173L274.561 202.08L268.837 199.299L272.056 195.423L267.323 194.763L270.879 191.643L266.212 190.459L270.233 187.487L265.443 185.515L270.316 184.245L265.093 180.432L269.613 179.73L265.302 176.583L269.823 175.882L265.677 172.856L270.629 172.087L266.566 169.122L271.23 168.398L267.417 165.614L271.866 164.924L268.383 162.382L273.263 161.624L269.781 159.083L275.091 158.259L271.625 155.347L276.791 154.545L273.513 151.898L279.111 151.03L276.306 147.649L282.048 147.712L280.142 143.017L285.615 143.709L283.836 139.362L288.664 141.108L287.872 136.02L291.603 138.744L290.867 134.014C291.997 135.136 294.212 137.091 294.212 137.091L293.443 132.147L298.113 135.238L298.364 129.769L302.559 132.64L304.191 127.544L307.295 131.905L309.573 126.708L311.749 130.774L313.95 126.029L316.557 130.028L319.619 125.149L321.719 129.667L324.628 125.693L325.331 130.208L328.245 125.792L328.97 130.45L332.121 126.145L332.991 131.734L336.988 127.665L337.746 132.537L341.529 129.455L342.376 134.901L347.363 131.999L347.051 137.552L351.608 134.716L350.798 139.906L355.814 137.66L353.503 142.642L358.706 140.66L357.041 145.542L361.979 143.748L359.988 148.901L365.442 148.054L362.351 152.277L367.679 152.037L364.913 155.989L370.872 156.972L367.427 160.809L372.653 162.273L369.263 166.469L374.6 168.649L370.667 171.241L375.37 173.594L371.325 175.469L376.217 179.04L371.337 179.797L375.898 183.126L371.018 183.883L375.578 187.211L370.842 187.946L374.822 190.852L370.444 191.531L374.258 194.315L369.02 195.128L372.318 200.267L367.228 200.616L369.87 205.784L364.591 205.869L367.199 210.821L362.665 209.544L363.523 215.061L359.837 212.624L360.796 218.787L357.065 216.063L357.89 221.366L353.845 218.985L354.681 224.359L350.784 221.515L351.179 226.884L347.298 223.67L346.446 229.527L342.841 226.197L341.37 231.855L336.583 228.489L334.67 234.143L331.302 229.969L328.643 235.078L325.346 230.893L322.62 235.572L321.829 231.438L318.617 235.826L317.859 230.954L314.525 235.507L313.778 230.706L309.389 234.616L308.664 229.959L304.583 233.014L303.925 228.786L298.86 231.187L298.461 226.258ZM298.461 226.258L295.816 230.044" stroke="white" stroke-width="0.5"/>
<path d="M351.592 140.587L349.303 133.794L347.199 137.489L345.2 131.136L342.971 135.401L341.19 129.738L339.15 133.641L337.456 128.254L335.226 132.52L333.619 127.409L331.627 131.221L330.149 126.525L327.535 130.532L326.014 125.698L324.006 130.425L320.431 125.098L319.361 129.909L314.339 126.022L312.288 130.611L309.606 126.673L308.38 131.23L305.257 127.582L304.369 132.488L300.485 129.079L301.5 133.995L295.775 131.012L297.144 135.362L292.418 132.899L293.787 137.25L289.243 134.882L290.742 139.647L286.289 137.326L287.701 141.814L283.52 139.636L284.867 143.917L281.051 141.928L282.528 146.624L278.711 144.635L280.319 149.745L276.178 147.933L277.742 152.905L273.921 151.145L275.616 156.531L271.346 155.519L273.94 160.623L268.89 160.993L271.928 165.579L267.245 165.91L270.944 169.454L266.034 170.994L270.123 173.125L265.559 174.557C267.063 175.071 269.795 176.187 269.795 176.187L265.024 177.684L269.858 180.492L265.066 183.133L269.494 185.614L265.647 189.324L270.928 190.171L267.276 194.504L271.881 194.652L268.601 198.716L273.337 199.279L270.318 204.171L275.295 204.052L273.018 208.408L277.375 207.041L274.705 211.596L279.2 210.186L276.734 214.905L282.128 213.213L280.246 218.583L284.949 217.108L283.857 221.851L289.113 220.202L288.715 225.941L293.554 223.209L293.026 228.534L297.32 225.518L297.523 230.993L300.967 226.726L301.49 232.252L305.13 228.607L305.704 233.813L309.443 229.757L311.094 235.006L313.512 230.377L315.652 235.245L317.972 231.027L321.486 235.918L323.403 231.144L327.024 235.167L329.287 230.285L333.599 234.091L334.185 229.431L338.371 232.594L338.265 228.151L343.627 230.945L342.149 226.249L347.148 228.854L345.67 224.158L350.669 226.763L349.235 222.206L353.597 224.479L352.272 220.267L356.452 222.445L354.866 217.404L360.93 218.082L358.994 213.378L364.793 213.456L362.537 208.7L368.128 208.843L364.979 205.355L370.304 203.684L366.491 201.466L372.438 199.6L368.349 197.469L373.466 195.864L369.544 193.3L374.731 191.673L370.46 189.447L375.447 187.428L370.851 185.379L375.724 182.03L371.146 180.279L375.568 176.464L370.436 173.674L374.658 169.466L369.428 168.299L372.833 163.665L367.625 162.568L370.615 158.064L366.561 159.184L369.074 154.374L364.372 155.849L366.98 150.858L362.347 152.312L363.913 146.661L359.418 148.071L360.353 143.074L356.273 144.354L356.186 138.766L351.592 140.587ZM351.592 140.587L353.818 136.551" stroke="white" stroke-width="0.5"/>
<path d="M311.39 172.465L291.908 203.751L321.185 204.35M311.39 172.465L321.352 156.556L348.564 204.91L329.995 204.53L311.39 172.465Z" stroke="white" stroke-width="2"/>
</svg>
