<svg width="640" height="426" viewBox="0 0 640 426" fill="none" xmlns="http://www.w3.org/2000/svg">
<rect width="640" height="426" fill="#FFB26D"/>
<path d="M234.16 282.12C234.16 279.88 234.6 277.92 235.48 276.24C236.387 274.56 237.627 273.267 239.2 272.36C240.8 271.453 242.613 271 244.64 271C246.933 271 248.88 271.56 250.48 272.68C252.08 273.8 253.2 275.227 253.84 276.96V271.28H255.64V293H253.84V287.28C253.2 289.04 252.067 290.493 250.44 291.64C248.84 292.76 246.907 293.32 244.64 293.32C242.613 293.32 240.8 292.867 239.2 291.96C237.627 291.027 236.387 289.72 235.48 288.04C234.6 286.333 234.16 284.36 234.16 282.12ZM253.84 282.12C253.84 280.227 253.44 278.56 252.64 277.12C251.867 275.653 250.8 274.533 249.44 273.76C248.08 272.96 246.56 272.56 244.88 272.56C243.12 272.56 241.573 272.947 240.24 273.72C238.907 274.467 237.867 275.56 237.12 277C236.373 278.44 236 280.147 236 282.12C236 284.093 236.373 285.8 237.12 287.24C237.867 288.68 238.907 289.787 240.24 290.56C241.6 291.333 243.147 291.72 244.88 291.72C246.56 291.72 248.08 291.333 249.44 290.56C250.827 289.76 251.907 288.64 252.68 287.2C253.453 285.733 253.84 284.04 253.84 282.12ZM261.074 282.12C261.074 279.853 261.514 277.88 262.394 276.2C263.301 274.52 264.541 273.24 266.114 272.36C267.714 271.453 269.541 271 271.594 271C274.314 271 276.541 271.68 278.274 273.04C280.034 274.4 281.127 276.227 281.554 278.52H279.674C279.327 276.653 278.421 275.187 276.954 274.12C275.514 273.053 273.727 272.52 271.594 272.52C269.994 272.52 268.541 272.88 267.234 273.6C265.927 274.293 264.874 275.373 264.074 276.84C263.301 278.28 262.914 280.04 262.914 282.12C262.914 284.227 263.301 286 264.074 287.44C264.874 288.88 265.927 289.96 267.234 290.68C268.541 291.4 269.994 291.76 271.594 291.76C273.727 291.76 275.514 291.227 276.954 290.16C278.421 289.093 279.327 287.627 279.674 285.76H281.554C281.127 288.027 280.034 289.853 278.274 291.24C276.514 292.627 274.287 293.32 271.594 293.32C269.541 293.32 267.714 292.867 266.114 291.96C264.541 291.053 263.301 289.76 262.394 288.08C261.514 286.373 261.074 284.387 261.074 282.12ZM306.342 293.28C304.502 293.28 302.849 292.96 301.382 292.32C299.942 291.653 298.809 290.747 297.982 289.6C297.155 288.427 296.729 287.08 296.702 285.56H300.582C300.715 286.867 301.249 287.973 302.182 288.88C303.142 289.76 304.529 290.2 306.342 290.2C308.075 290.2 309.435 289.773 310.422 288.92C311.435 288.04 311.942 286.92 311.942 285.56C311.942 284.493 311.649 283.627 311.062 282.96C310.475 282.293 309.742 281.787 308.862 281.44C307.982 281.093 306.795 280.72 305.302 280.32C303.462 279.84 301.982 279.36 300.862 278.88C299.769 278.4 298.822 277.653 298.022 276.64C297.249 275.6 296.862 274.213 296.862 272.48C296.862 270.96 297.249 269.613 298.022 268.44C298.795 267.267 299.875 266.36 301.262 265.72C302.675 265.08 304.289 264.76 306.102 264.76C308.715 264.76 310.849 265.413 312.502 266.72C314.182 268.027 315.129 269.76 315.342 271.92H311.342C311.209 270.853 310.649 269.92 309.662 269.12C308.675 268.293 307.369 267.88 305.742 267.88C304.222 267.88 302.982 268.28 302.022 269.08C301.062 269.853 300.582 270.947 300.582 272.36C300.582 273.373 300.862 274.2 301.422 274.84C302.009 275.48 302.715 275.973 303.542 276.32C304.395 276.64 305.582 277.013 307.102 277.44C308.942 277.947 310.422 278.453 311.542 278.96C312.662 279.44 313.622 280.2 314.422 281.24C315.222 282.253 315.622 283.64 315.622 285.4C315.622 286.76 315.262 288.04 314.542 289.24C313.822 290.44 312.755 291.413 311.342 292.16C309.929 292.907 308.262 293.28 306.342 293.28ZM319.618 281.96C319.618 279.72 320.072 277.76 320.978 276.08C321.885 274.373 323.125 273.053 324.698 272.12C326.298 271.187 328.072 270.72 330.018 270.72C331.938 270.72 333.605 271.133 335.018 271.96C336.432 272.787 337.485 273.827 338.178 275.08V271.08H341.858V293H338.178V288.92C337.458 290.2 336.378 291.267 334.938 292.12C333.525 292.947 331.872 293.36 329.978 293.36C328.032 293.36 326.272 292.88 324.698 291.92C323.125 290.96 321.885 289.613 320.978 287.88C320.072 286.147 319.618 284.173 319.618 281.96ZM338.178 282C338.178 280.347 337.845 278.907 337.178 277.68C336.512 276.453 335.605 275.52 334.458 274.88C333.338 274.213 332.098 273.88 330.738 273.88C329.378 273.88 328.138 274.2 327.018 274.84C325.898 275.48 325.005 276.413 324.338 277.64C323.672 278.867 323.338 280.307 323.338 281.96C323.338 283.64 323.672 285.107 324.338 286.36C325.005 287.587 325.898 288.533 327.018 289.2C328.138 289.84 329.378 290.16 330.738 290.16C332.098 290.16 333.338 289.84 334.458 289.2C335.605 288.533 336.512 287.587 337.178 286.36C337.845 285.107 338.178 283.653 338.178 282ZM351.65 263.4V293H348.01V263.4H351.65ZM377.853 281.2C377.853 281.893 377.813 282.627 377.733 283.4H360.213C360.347 285.56 361.08 287.253 362.413 288.48C363.773 289.68 365.413 290.28 367.333 290.28C368.907 290.28 370.213 289.92 371.253 289.2C372.32 288.453 373.067 287.467 373.493 286.24H377.413C376.827 288.347 375.653 290.067 373.893 291.4C372.133 292.707 369.947 293.36 367.333 293.36C365.253 293.36 363.387 292.893 361.733 291.96C360.107 291.027 358.827 289.707 357.893 288C356.96 286.267 356.493 284.267 356.493 282C356.493 279.733 356.947 277.747 357.853 276.04C358.76 274.333 360.027 273.027 361.653 272.12C363.307 271.187 365.2 270.72 367.333 270.72C369.413 270.72 371.253 271.173 372.853 272.08C374.453 272.987 375.68 274.24 376.533 275.84C377.413 277.413 377.853 279.2 377.853 281.2ZM374.093 280.44C374.093 279.053 373.787 277.867 373.173 276.88C372.56 275.867 371.72 275.107 370.653 274.6C369.613 274.067 368.453 273.8 367.173 273.8C365.333 273.8 363.76 274.387 362.453 275.56C361.173 276.733 360.44 278.36 360.253 280.44H374.093ZM390.418 293.36C388.738 293.36 387.231 293.08 385.898 292.52C384.565 291.933 383.511 291.133 382.738 290.12C381.965 289.08 381.538 287.893 381.458 286.56H385.218C385.325 287.653 385.831 288.547 386.738 289.24C387.671 289.933 388.885 290.28 390.378 290.28C391.765 290.28 392.858 289.973 393.658 289.36C394.458 288.747 394.858 287.973 394.858 287.04C394.858 286.08 394.431 285.373 393.578 284.92C392.725 284.44 391.405 283.973 389.618 283.52C387.991 283.093 386.658 282.667 385.618 282.24C384.605 281.787 383.725 281.133 382.978 280.28C382.258 279.4 381.898 278.253 381.898 276.84C381.898 275.72 382.231 274.693 382.898 273.76C383.565 272.827 384.511 272.093 385.738 271.56C386.965 271 388.365 270.72 389.938 270.72C392.365 270.72 394.325 271.333 395.818 272.56C397.311 273.787 398.111 275.467 398.218 277.6H394.578C394.498 276.453 394.031 275.533 393.178 274.84C392.351 274.147 391.231 273.8 389.818 273.8C388.511 273.8 387.471 274.08 386.698 274.64C385.925 275.2 385.538 275.933 385.538 276.84C385.538 277.56 385.765 278.16 386.218 278.64C386.698 279.093 387.285 279.467 387.978 279.76C388.698 280.027 389.685 280.333 390.938 280.68C392.511 281.107 393.791 281.533 394.778 281.96C395.765 282.36 396.605 282.973 397.298 283.8C398.018 284.627 398.391 285.707 398.418 287.04C398.418 288.24 398.085 289.32 397.418 290.28C396.751 291.24 395.805 292 394.578 292.56C393.378 293.093 391.991 293.36 390.418 293.36Z" fill="white"/>
<path d="M291.559 222.249L284.37 222.082L287.284 218.972L280.603 218.952L284.026 215.554L278.072 215.536L281.204 212.427L275.539 212.41L278.963 209.012L273.589 208.996L276.648 205.96L271.71 205.945L274.771 202.255L269.688 202.24L273.62 198.916L267.452 197.084L271.744 194.632L266.527 190.99L270.313 187.666L265.742 186.274L269.744 183.748L265.32 181.849L269.757 179.542L265.335 176.846L270.348 176.353L265.786 171.771L270.362 171.785L266.597 168.002L271.172 168.016L267.552 164.379L272.563 164.395L269.015 160.83L273.735 160.845L270.405 157.499L274.907 157.513L271.867 154.458L276.805 154.473L273.764 151.418L279.138 151.434L276.171 148.017L281.4 148.032L278.577 144.906L284.241 144.923L282.001 141.145L287.663 142.105L286.516 137.17L291.813 138.709L290.737 134.137L295.232 136.617L295.248 131.468L298.506 134.741L298.52 129.955C299.461 131.239 301.342 133.517 301.342 133.517L301.357 128.513L305.485 132.297L306.591 126.934L310.284 130.426L312.695 125.647L315.077 130.44L318.141 125.663L319.653 130.019L322.571 125.677L324.519 130.034L328.308 125.694L329.673 130.485L333.17 127.014L333.156 131.583L336.726 127.678L336.712 132.391L340.5 128.632L340.482 134.288L345.068 130.894L345.053 135.825L349.272 133.372L349.256 138.883L354.636 136.797L353.457 142.232L358.402 140.144L356.789 145.143L362.095 143.708L359.031 148.268L364.481 147.124L362.071 151.685L367.23 150.686L364.456 155.463L369.975 155.48L366.26 159.167L371.559 159.763L368.208 163.234L373.94 165.137L369.936 168.388L374.867 170.651L370.862 174.265L375.791 177.253L371.5 179.198L375.776 182.257L371.487 183.476L375.759 187.768L370.821 187.753L374.803 191.754L369.865 191.739L373.847 195.739L369.054 195.725L372.529 199.216L368.099 199.203L371.429 202.548L366.128 202.532L368.58 208.124L363.498 207.673L365.297 213.19L360.07 212.449L361.87 217.748L357.591 215.777L357.574 221.361L354.315 218.378L354.296 224.614L351.038 221.341L351.022 226.707L347.4 223.723L347.383 229.162L343.981 225.743L343.529 231.108L340.2 227.327L338.439 232.978L335.401 229.126L333.061 234.485L328.861 230.411L326.086 235.696L323.413 231.047L319.985 235.678L317.385 231.029L313.959 235.225L313.827 231.018L309.966 234.85L309.981 229.919L305.975 233.895L305.99 229.036L301.042 232.212L301.056 227.499L296.546 229.878L296.559 225.6L291.181 227.179L291.559 222.249ZM291.559 222.249L288.353 225.575" stroke="white" stroke-width="0.5"/>
<path d="M357.467 145.94L356.271 138.873L353.613 142.193L352.635 135.606L349.765 139.47L348.893 133.599L346.267 137.134L345.437 131.549L342.567 135.413L341.78 130.115L339.215 133.568L338.493 128.699L335.282 132.248L334.538 127.236L331.814 131.591L329.118 125.77L327.307 130.355L322.956 125.731L320.211 129.942L318.179 125.633L316.254 129.943L313.741 125.851L312.095 130.559L308.794 126.584L309.026 131.598L303.839 127.756L304.508 132.267L300.227 129.096L300.897 133.607L296.78 130.558L297.514 135.498L293.479 132.51L294.17 137.164L290.383 134.359L291.042 138.798L287.584 136.237L288.307 141.105L284.849 138.544L285.636 143.842L281.83 141.406L282.596 146.561L279.098 144.225L279.927 149.81L275.869 148.142L277.63 153.589L272.584 153.165L274.866 158.169L270.19 157.764L273.287 161.843L268.196 162.596L271.901 165.341L267.168 166.041C268.573 166.784 271.097 168.313 271.097 168.313L266.149 169.046L270.484 172.575L265.337 174.435L269.321 177.577L264.94 180.64L270.023 182.302L265.737 186.01L270.262 186.877L266.385 190.378L270.975 191.674L267.225 196.034L272.16 196.694L269.228 200.641L273.745 199.972L270.394 204.054L275.055 203.363L271.879 207.639L277.472 206.811L274.772 211.821L279.648 211.099L277.826 215.612L283.276 214.806L281.983 220.412L287.191 218.47L285.834 223.647L290.548 221.339L289.89 226.778L293.961 223.102L293.611 228.642L297.777 225.611L297.528 230.843L301.856 227.421L302.664 232.863L305.779 228.67L307.129 233.812L310.081 230.009L312.785 235.389L315.427 230.973L318.373 235.513L321.373 231.044L325.036 235.478L326.345 230.967L329.983 234.745L330.575 230.34L335.433 233.939L334.71 229.07L339.238 232.424L338.515 227.555L343.043 230.909L342.342 226.183L346.294 229.111L345.645 224.743L349.433 227.548L348.657 222.322L354.539 223.939L353.365 218.99L359.08 219.973L357.597 214.924L363.097 215.939L360.534 212.002L366.055 211.184L362.637 208.397L368.803 207.484L365.098 204.74L370.404 203.954L366.933 200.81L372.31 200.014L368.441 197.147L373.683 195.932L369.465 193.19L374.803 190.644L370.556 188.199L375.522 185.123L370.89 181.564L375.72 178.068L370.738 176.099L374.827 172.054L369.856 170.156L373.515 166.175L369.335 166.647L372.571 162.29L367.696 163.012L371.055 158.49L366.251 159.201L368.682 153.865L364.022 154.555L365.729 149.766L361.498 150.392L362.289 144.86L357.467 145.94ZM357.467 145.94L360.297 142.301" stroke="white" stroke-width="0.5"/>
<path d="M298.461 226.258L291.334 227.217L293.725 223.691L287.124 224.715L289.972 220.824L284.088 221.737L286.694 218.177L281.097 219.046L283.945 215.154L278.635 215.978L281.181 212.501L276.301 213.258L278.746 209.136L273.723 209.916L277.085 206.018L270.707 205.173L274.561 202.08L268.837 199.299L272.056 195.423L267.323 194.763L270.879 191.643L266.212 190.459L270.233 187.487L265.443 185.515L270.316 184.245L265.093 180.432L269.613 179.73L265.302 176.583L269.823 175.882L265.677 172.856L270.629 172.087L266.566 169.122L271.231 168.398L267.417 165.614L271.866 164.924L268.383 162.382L273.263 161.624L269.781 159.083L275.091 158.259L271.625 155.347L276.792 154.545L273.513 151.898L279.111 151.03L276.306 147.649L282.048 147.712L280.142 143.017L285.615 143.709L283.836 139.362L288.664 141.108L287.872 136.02L291.603 138.744L290.867 134.014C291.997 135.136 294.212 137.091 294.212 137.091L293.443 132.147L298.113 135.238L298.364 129.769L302.559 132.64L304.191 127.544L307.295 131.905L309.573 126.708L311.749 130.774L313.951 126.029L316.557 130.028L319.62 125.149L321.719 129.667L324.628 125.693L325.331 130.208L328.245 125.792L328.97 130.45L332.121 126.145L332.991 131.734L336.988 127.665L337.746 132.537L341.529 129.455L342.377 134.901L347.363 131.999L347.052 137.552L351.608 134.716L350.799 139.906L355.814 137.66L353.503 142.642L358.706 140.66L357.041 145.542L361.979 143.748L359.989 148.901L365.442 148.054L362.351 152.277L367.679 152.037L364.913 155.989L370.872 156.972L367.427 160.809L372.653 162.273L369.263 166.469L374.6 168.649L370.667 171.241L375.37 173.594L371.325 175.469L376.217 179.04L371.338 179.797L375.898 183.126L371.018 183.883L375.578 187.211L370.842 187.946L374.822 190.852L370.444 191.531L374.258 194.315L369.02 195.128L372.318 200.267L367.228 200.616L369.87 205.784L364.591 205.869L367.2 210.821L362.665 209.544L363.523 215.061L359.837 212.624L360.796 218.787L357.065 216.063L357.89 221.366L353.845 218.985L354.681 224.359L350.784 221.515L351.179 226.884L347.298 223.67L346.446 229.527L342.841 226.197L341.37 231.855L336.583 228.489L334.67 234.143L331.302 229.969L328.643 235.078L325.346 230.893L322.62 235.572L321.829 231.438L318.617 235.826L317.859 230.954L314.525 235.507L313.778 230.706L309.389 234.616L308.664 229.959L304.583 233.014L303.925 228.786L298.861 231.187L298.461 226.258ZM298.461 226.258L295.817 230.044" stroke="white" stroke-width="0.5"/>
<path d="M351.593 140.587L349.303 133.794L347.199 137.489L345.2 131.136L342.971 135.401L341.19 129.738L339.15 133.641L337.456 128.254L335.227 132.52L333.619 127.409L331.627 131.221L330.149 126.525L327.535 130.532L326.014 125.698L324.006 130.425L320.431 125.098L319.362 129.909L314.34 126.022L312.288 130.611L309.606 126.673L308.38 131.23L305.257 127.582L304.369 132.488L300.485 129.079L301.5 133.995L295.775 131.012L297.144 135.362L292.418 132.899L293.787 137.25L289.243 134.882L290.742 139.647L286.289 137.326L287.701 141.814L283.521 139.636L284.868 143.917L281.051 141.928L282.528 146.624L278.711 144.635L280.319 149.745L276.178 147.933L277.742 152.905L273.921 151.145L275.616 156.531L271.346 155.519L273.94 160.623L268.89 160.993L271.928 165.579L267.246 165.91L270.944 169.454L266.034 170.994L270.123 173.125L265.559 174.557C267.063 175.071 269.795 176.187 269.795 176.187L265.024 177.684L269.858 180.492L265.066 183.133L269.494 185.614L265.647 189.324L270.928 190.171L267.276 194.504L271.882 194.652L268.601 198.716L273.337 199.279L270.318 204.171L275.295 204.052L273.018 208.408L277.375 207.041L274.705 211.596L279.2 210.186L276.734 214.905L282.128 213.213L280.246 218.583L284.949 217.108L283.858 221.851L289.113 220.202L288.715 225.941L293.554 223.209L293.026 228.534L297.32 225.518L297.523 230.993L300.967 226.726L301.49 232.252L305.13 228.607L305.704 233.813L309.443 229.757L311.094 235.006L313.513 230.377L315.652 235.245L317.972 231.027L321.486 235.918L323.403 231.144L327.024 235.167L329.287 230.285L333.599 234.091L334.185 229.431L338.371 232.594L338.265 228.151L343.627 230.945L342.149 226.249L347.148 228.854L345.67 224.158L350.669 226.763L349.235 222.206L353.597 224.479L352.272 220.267L356.452 222.445L354.866 217.404L360.93 218.082L358.994 213.378L364.793 213.456L362.537 208.7L368.128 208.843L364.979 205.355L370.304 203.684L366.491 201.466L372.438 199.6L368.349 197.469L373.466 195.864L369.544 193.3L374.731 191.673L370.46 189.447L375.447 187.428L370.851 185.379L375.724 182.03L371.146 180.279L375.568 176.464L370.436 173.674L374.658 169.466L369.429 168.299L372.833 163.665L367.625 162.568L370.615 158.064L366.561 159.184L369.074 154.374L364.372 155.849L366.981 150.858L362.347 152.312L363.913 146.661L359.418 148.071L360.353 143.074L356.273 144.354L356.186 138.766L351.593 140.587ZM351.593 140.587L353.818 136.551" stroke="white" stroke-width="0.5"/>
<path d="M311.39 172.465L291.908 203.751L321.185 204.35M311.39 172.465L321.352 156.556L348.564 204.91L329.995 204.53L311.39 172.465Z" stroke="white" stroke-width="2"/>
</svg>
